{"glyphs":{"0":{"ha":833,"x_min":86,"x_max":747,"o":"m 417 1000 q 590 954 515 1000 q 706 823 664 908 q 747 618 747 738 l 747 354 q 705 149 747 235 q 588 17 663 63 q 417 -28 514 -28 q 283 -2 344 -28 q 178 74 222 24 q 110 194 133 124 q 86 354 86 265 l 86 618 q 128 824 86 739 q 245 955 171 910 q 417 1000 319 1000 m 417 825 q 339 805 371 825 q 291 740 307 785 q 275 618 275 694 l 275 354 q 278 287 275 318 q 289 233 282 256 q 306 196 296 210 q 349 160 324 174 q 410 147 374 147 q 490 169 457 147 q 541 235 524 190 q 558 354 558 281 l 558 622 q 553 697 558 665 q 540 750 549 728 q 517 788 531 772 q 475 815 501 806 q 417 825 449 825 m 596 733 l 600 561 l 503 561 l 540 586 q 516 529 529 554 q 484 481 503 504 q 436 432 465 458 q 367 364 400 396 q 300 301 333 332 q 228 235 267 269 l 219 417 l 325 417 l 289 388 q 315 446 301 421 q 351 497 329 471 q 411 557 374 522 q 502 644 458 603 q 596 733 546 686 z "},"1":{"ha":833,"x_min":113,"x_max":763,"o":"m 360 986 q 384 986 365 986 q 428 986 403 986 q 480 986 454 986 q 523 986 506 986 q 544 986 540 986 q 553 984 550 986 q 558 979 556 982 q 560 971 560 976 q 560 922 560 968 q 560 804 560 876 q 560 646 560 732 q 560 472 560 560 q 560 311 560 385 q 560 190 560 238 q 560 135 560 142 l 363 135 l 371 169 q 371 213 371 183 q 371 272 371 242 q 371 315 371 301 q 371 352 371 322 q 371 426 371 382 q 371 522 371 471 q 371 624 371 574 q 371 718 371 675 q 371 790 371 761 q 371 822 371 818 l 389 800 l 322 800 l 358 825 q 319 758 338 785 q 278 710 300 731 q 231 668 257 690 q 190 638 207 650 q 164 619 174 625 q 150 614 154 614 q 144 615 147 614 q 140 620 142 617 q 139 628 139 624 l 139 825 q 194 865 167 844 q 249 906 221 885 q 290 935 268 919 q 332 965 313 951 q 360 986 351 979 m 113 178 q 151 178 117 178 q 242 178 186 178 q 364 178 299 178 q 496 178 429 178 q 618 178 563 178 q 709 178 674 178 q 747 178 744 178 q 758 174 754 178 q 763 163 763 169 q 763 133 763 157 q 763 81 763 110 q 763 29 763 53 q 763 0 763 6 q 724 0 758 0 q 634 0 689 0 q 513 0 579 0 q 381 0 447 0 q 259 0 315 0 q 167 0 203 0 q 128 0 132 0 q 122 1 125 0 q 117 4 119 3 q 114 10 115 7 q 113 15 113 13 q 113 35 113 19 q 113 74 113 51 q 113 119 113 97 q 113 158 113 142 q 113 178 113 174 z "},"2":{"ha":833,"x_min":85,"x_max":760,"o":"m 411 1000 q 555 983 493 1000 q 658 932 617 965 q 718 853 699 899 q 738 751 738 807 l 738 715 q 727 628 738 669 q 688 549 717 588 q 610 472 660 511 q 481 388 560 433 q 370 315 411 347 q 308 255 329 283 q 281 197 288 226 q 275 133 275 168 l 240 144 l 339 144 l 264 128 q 333 158 300 147 q 406 173 365 168 q 504 178 446 178 l 744 178 q 756 174 751 178 q 760 163 760 169 q 760 142 760 158 q 760 104 760 126 q 760 59 760 82 q 760 20 760 36 q 760 0 760 4 q 720 0 757 0 q 626 0 683 0 q 499 0 568 0 q 361 0 431 0 q 234 0 292 0 q 140 0 176 0 q 100 0 104 0 q 92 2 96 0 q 87 7 89 4 q 85 15 85 10 l 85 136 q 111 281 85 217 q 200 406 138 346 q 372 531 263 465 q 467 592 432 565 q 520 640 503 618 q 544 681 538 661 q 550 719 550 700 l 550 729 q 545 764 550 749 q 528 792 540 779 q 485 813 515 804 q 403 821 456 821 q 261 799 325 821 q 140 733 197 776 l 114 733 q 114 753 114 738 q 114 792 114 769 q 114 838 114 815 q 114 876 114 860 q 114 897 114 893 q 116 907 114 903 q 121 915 118 911 q 233 973 154 946 q 411 1000 311 1000 z "},"3":{"ha":833,"x_min":79,"x_max":758,"o":"m 392 1000 q 578 972 499 1000 q 701 892 657 944 q 744 768 744 839 l 744 740 q 718 628 744 675 q 635 553 692 582 q 483 506 578 524 l 524 546 l 524 456 l 483 494 q 644 448 583 479 q 731 374 704 417 q 758 278 758 331 l 758 235 q 713 92 758 151 q 586 3 668 33 q 390 -28 504 -28 q 256 -20 318 -28 q 149 -1 193 -12 q 89 19 106 10 q 81 28 83 22 q 79 40 79 33 q 79 61 79 44 q 79 101 79 78 q 79 147 79 124 q 79 188 79 171 q 79 210 79 206 l 104 210 q 189 179 149 190 q 276 164 229 168 q 383 160 322 160 q 493 174 453 160 q 551 214 533 189 q 569 271 569 239 l 569 281 q 554 335 569 311 q 501 376 539 360 q 397 400 463 392 q 228 408 331 408 q 217 413 221 408 q 213 424 213 417 q 213 453 213 431 q 213 504 213 475 q 213 556 213 533 q 213 585 213 579 q 394 593 325 585 q 497 617 463 601 q 544 656 532 633 q 556 707 556 679 l 556 713 q 540 763 556 740 q 487 799 524 786 q 385 813 450 813 q 246 802 300 813 q 131 768 192 792 l 104 768 q 104 790 104 774 q 104 828 104 806 q 104 874 104 851 q 104 912 104 896 q 104 932 104 928 q 107 946 104 942 q 117 953 110 950 q 216 983 142 967 q 392 1000 290 1000 z "},"4":{"ha":833,"x_min":58,"x_max":778,"o":"m 425 972 q 449 972 431 972 q 494 972 468 972 q 544 972 519 972 q 588 972 569 972 q 611 972 607 972 l 611 946 q 539 832 576 890 q 463 714 501 774 q 385 593 425 654 q 303 468 344 532 q 221 339 263 404 l 249 432 l 249 318 l 214 340 q 295 370 256 361 q 381 383 335 379 q 483 388 426 388 l 763 388 q 771 385 768 388 q 776 381 774 383 q 778 372 778 378 q 778 351 778 367 q 778 315 778 336 q 778 274 778 294 q 778 238 778 253 q 778 218 778 222 l 74 218 q 66 220 69 218 q 60 226 63 222 q 58 233 58 229 l 58 388 q 75 415 58 388 q 119 490 92 443 q 180 593 146 536 q 249 708 214 650 q 314 819 283 767 q 367 908 344 871 q 397 958 390 946 q 406 967 401 964 q 415 971 410 969 q 425 972 419 972 m 539 565 q 564 565 544 565 q 606 565 583 565 q 648 565 629 565 q 674 565 667 565 q 682 563 679 565 q 687 558 685 561 q 689 550 689 556 l 689 136 q 689 110 689 129 q 689 67 689 90 q 689 24 689 43 q 689 0 689 6 q 666 0 683 0 q 626 0 649 0 q 578 0 603 0 q 537 0 554 0 q 515 0 519 0 q 504 4 508 0 q 500 15 500 8 q 500 56 500 22 q 500 138 500 90 q 500 231 500 185 q 500 312 500 278 q 500 354 500 346 q 511 410 506 378 q 523 474 517 443 q 533 531 529 506 q 539 565 538 556 z "},"5":{"ha":833,"x_min":103,"x_max":758,"o":"m 167 972 q 200 972 169 972 q 278 972 231 972 q 381 972 325 972 q 492 972 436 972 q 594 972 547 972 q 671 972 642 972 q 703 972 700 972 q 714 968 710 972 q 718 957 718 964 q 718 938 718 953 q 718 902 718 922 q 718 861 718 882 q 718 826 718 840 q 718 807 718 811 q 685 807 715 807 q 610 807 656 807 q 513 807 564 807 q 415 807 463 807 q 334 807 367 807 q 293 807 301 807 q 224 822 253 807 q 181 865 196 838 q 167 925 167 892 q 167 948 167 936 q 167 972 167 960 m 167 972 l 361 972 l 347 911 q 341 858 344 888 q 333 783 338 828 q 323 693 328 740 q 313 602 318 646 q 304 522 308 558 l 275 557 l 368 557 l 292 513 q 380 581 328 561 q 507 601 432 601 q 614 585 567 601 q 694 535 661 568 q 742 452 726 501 q 758 339 758 403 l 758 271 q 735 147 758 201 q 667 53 713 92 q 556 -7 622 14 q 399 -28 489 -28 q 265 -20 324 -28 q 167 -1 207 -12 q 111 21 128 11 q 103 29 104 25 q 103 39 103 33 q 103 61 103 44 q 103 101 103 78 q 103 149 103 125 q 103 189 103 172 q 103 210 103 206 l 128 210 q 253 172 189 185 q 400 160 318 160 q 529 193 488 160 q 571 279 571 226 l 571 329 q 558 391 571 364 q 515 433 544 418 q 436 449 486 449 q 360 440 397 449 q 294 414 324 431 l 128 414 q 115 418 119 414 q 113 432 111 422 q 118 490 114 447 q 128 592 122 532 q 142 720 135 653 q 155 853 149 788 q 167 972 161 919 z "},"6":{"ha":833,"x_min":75,"x_max":764,"o":"m 389 972 q 418 972 396 972 q 471 972 440 972 q 532 972 501 972 q 585 972 563 972 q 611 972 607 972 l 611 946 q 449 848 515 897 q 343 749 383 799 q 285 649 303 699 q 267 547 267 599 l 267 350 q 272 271 267 304 q 287 215 276 238 q 311 178 297 193 q 360 147 332 157 q 426 138 389 138 q 541 179 501 138 q 581 289 581 221 l 581 304 q 572 367 581 340 q 550 407 564 393 q 507 433 535 422 q 435 444 479 444 q 335 426 382 444 q 244 372 289 408 l 240 529 l 319 529 l 276 504 q 359 584 308 556 q 493 613 410 613 q 635 581 574 613 q 730 490 696 549 q 764 347 764 431 l 764 268 q 721 117 764 183 q 602 11 678 50 q 428 -28 526 -28 q 278 -3 343 -28 q 167 72 214 22 q 98 194 121 121 q 75 363 75 267 l 75 506 q 106 691 75 610 q 197 837 138 772 q 336 951 257 901 q 367 967 356 963 q 389 972 379 972 z "},"7":{"ha":833,"x_min":75,"x_max":763,"o":"m 75 972 q 119 968 94 972 q 169 954 144 964 q 216 931 194 944 q 251 900 238 918 q 264 860 264 882 q 264 832 264 853 q 264 783 264 811 q 264 728 264 756 q 264 682 264 701 q 264 658 264 663 q 242 658 260 658 q 201 658 225 658 q 154 658 178 658 q 113 658 131 658 q 90 658 96 658 q 79 663 83 658 q 75 674 75 667 q 75 706 75 679 q 75 772 75 733 q 75 851 75 810 q 75 924 75 892 q 75 972 75 957 m 440 0 q 418 0 436 0 q 375 0 400 0 q 324 0 350 0 q 280 0 299 0 q 257 0 261 0 q 246 4 250 0 q 242 15 242 8 q 256 56 242 21 q 298 159 271 92 q 365 323 325 226 q 457 546 406 419 q 494 630 476 593 q 532 698 513 667 q 575 758 551 729 q 628 817 599 788 l 579 740 l 579 838 l 642 796 q 526 795 582 796 q 420 794 471 794 q 324 794 369 794 l 224 794 q 183 804 204 794 q 142 830 161 814 q 108 869 124 846 q 84 917 93 892 q 75 972 75 943 l 747 972 q 756 970 753 972 q 760 965 758 968 q 763 957 763 963 l 763 814 q 751 783 763 811 q 724 711 740 756 q 685 613 707 667 q 642 505 664 560 q 603 404 621 450 q 562 304 582 353 q 522 206 542 256 q 483 106 503 157 q 440 0 463 56 z "},"8":{"ha":833,"x_min":72,"x_max":761,"o":"m 417 988 q 589 960 518 989 q 697 878 660 931 q 733 753 733 825 l 733 725 q 710 634 733 674 q 644 569 688 594 q 539 533 600 544 l 581 561 l 581 479 l 397 557 q 519 615 479 578 q 560 699 560 651 l 560 718 q 554 759 560 740 q 535 792 549 778 q 490 817 518 807 q 419 826 461 828 q 340 814 371 826 q 293 779 308 801 q 278 726 278 757 l 278 703 q 286 657 278 675 q 314 626 294 639 q 368 600 333 613 l 572 524 q 658 483 622 506 q 716 429 693 460 q 750 359 739 399 q 761 268 761 319 l 761 238 q 722 108 761 167 q 607 17 683 50 q 415 -15 531 -15 q 225 13 301 -15 q 110 93 149 42 q 72 215 72 144 l 72 244 q 94 343 72 300 q 167 417 117 386 q 301 458 218 447 l 260 438 l 260 508 l 444 431 q 328 391 372 413 q 265 341 285 369 q 246 276 246 313 l 246 250 q 265 191 246 214 q 320 157 283 168 q 413 146 357 146 q 540 172 499 146 q 582 254 582 197 l 582 278 q 573 326 582 306 q 543 361 564 346 q 485 390 522 376 l 282 465 q 177 520 217 489 q 118 597 138 551 q 99 711 99 643 l 99 739 q 136 865 99 808 q 245 955 174 922 q 417 988 317 988 z "},"9":{"ha":833,"x_min":69,"x_max":760,"o":"m 404 1000 q 556 974 490 1000 q 667 899 622 949 q 736 777 713 849 q 760 613 760 706 l 760 468 q 738 324 760 390 q 678 202 717 258 q 589 101 640 146 q 475 21 538 56 q 440 4 451 8 q 417 0 428 0 q 387 0 411 0 q 331 0 363 0 q 265 0 299 0 q 209 0 232 0 q 181 0 186 0 l 181 26 q 361 128 288 79 q 480 226 435 178 q 546 324 525 275 q 567 426 567 374 l 567 619 q 556 722 567 679 q 521 786 544 765 q 474 815 501 806 q 404 825 447 825 q 293 788 333 825 q 253 689 253 750 l 253 636 q 260 580 253 603 q 282 542 267 557 q 324 517 299 525 q 386 510 350 510 q 495 526 444 510 q 589 579 546 542 l 589 426 l 517 426 l 556 451 q 472 367 528 394 q 342 340 417 340 q 199 374 260 340 q 103 467 138 407 q 69 610 69 528 l 69 701 q 113 856 69 789 q 233 962 157 924 q 404 1000 308 1000 z "}," ":{"ha":833,"x_min":0,"x_max":0,"o":""}," ":{"ha":833,"x_min":0,"x_max":0,"o":"z "}," ":{"ha":833,"x_min":0,"x_max":0,"o":""}," ":{"ha":833,"x_min":0,"x_max":0,"o":""}," ":{"ha":833,"x_min":0,"x_max":0,"o":""}," ":{"ha":833,"x_min":0,"x_max":0,"o":""},"A":{"ha":833,"x_min":35,"x_max":803,"o":"m 204 389 l 439 389 q 483 389 461 389 q 524 389 504 389 l 572 401 l 592 314 l 611 225 l 217 225 q 209 227 213 225 q 203 233 206 229 q 201 240 201 236 l 204 389 m 222 0 q 135 0 179 0 q 47 0 92 0 q 40 2 43 0 q 35 8 36 4 q 36 18 35 11 q 57 108 43 50 q 89 242 71 167 q 128 403 107 318 q 169 573 149 488 q 208 737 189 658 q 241 876 226 815 q 265 974 256 938 q 416 974 344 974 q 554 974 488 974 q 563 972 560 974 q 567 967 565 969 q 569 958 569 964 q 612 792 590 881 q 656 608 633 704 q 704 408 679 511 q 756 193 729 304 q 780 99 768 147 q 803 0 792 50 q 715 0 758 0 q 632 0 672 0 q 617 3 624 0 q 608 15 611 6 q 599 46 604 25 q 547 265 571 165 q 506 445 524 364 q 473 594 488 526 q 447 722 458 663 q 428 836 436 782 l 469 804 l 365 804 l 407 836 q 388 723 399 782 q 362 595 376 664 q 326 441 347 526 q 280 247 306 356 q 222 0 254 138 z "},"À":{"ha":833,"x_min":35,"x_max":803,"o":"m 204 389 l 439 389 q 483 389 461 389 q 524 389 504 389 l 572 401 l 592 314 l 611 225 l 217 225 q 209 227 213 225 q 203 233 206 229 q 201 240 201 236 l 204 389 m 222 0 q 135 0 179 0 q 47 0 92 0 q 40 2 43 0 q 35 8 36 4 q 36 18 35 11 q 57 108 43 50 q 89 242 71 167 q 128 403 107 318 q 169 573 149 488 q 208 737 189 658 q 241 876 226 815 q 265 974 256 938 q 416 974 344 974 q 554 974 488 974 q 563 972 560 974 q 567 967 565 969 q 569 958 569 964 q 612 792 590 881 q 656 608 633 704 q 704 408 679 511 q 756 193 729 304 q 780 99 768 147 q 803 0 792 50 q 715 0 758 0 q 632 0 672 0 q 617 3 624 0 q 608 15 611 6 q 599 46 604 25 q 547 265 571 165 q 506 445 524 364 q 473 594 488 526 q 447 722 458 663 q 428 836 436 782 l 469 804 l 365 804 l 407 836 q 388 723 399 782 q 362 595 376 664 q 326 441 347 526 q 280 247 306 356 q 222 0 254 138 m 358 1314 q 406 1233 383 1272 q 452 1157 429 1194 q 499 1076 475 1119 q 456 1076 475 1076 q 412 1076 436 1076 q 349 1076 388 1076 q 335 1079 340 1076 q 326 1085 329 1082 q 266 1151 290 1125 q 223 1199 242 1178 q 184 1243 204 1221 q 138 1294 164 1265 q 135 1308 132 1301 q 147 1314 139 1314 q 219 1314 192 1314 q 276 1314 246 1314 q 358 1314 307 1314 z "},"Á":{"ha":833,"x_min":35,"x_max":803,"o":"m 204 389 l 439 389 q 483 389 461 389 q 524 389 504 389 l 572 401 l 592 314 l 611 225 l 217 225 q 209 227 213 225 q 203 233 206 229 q 201 240 201 236 l 204 389 m 222 0 q 135 0 179 0 q 47 0 92 0 q 40 2 43 0 q 35 8 36 4 q 36 18 35 11 q 57 108 43 50 q 89 242 71 167 q 128 403 107 318 q 169 573 149 488 q 208 737 189 658 q 241 876 226 815 q 265 974 256 938 q 416 974 344 974 q 554 974 488 974 q 563 972 560 974 q 567 967 565 969 q 569 958 569 964 q 612 792 590 881 q 656 608 633 704 q 704 408 679 511 q 756 193 729 304 q 780 99 768 147 q 803 0 792 50 q 715 0 758 0 q 632 0 672 0 q 617 3 624 0 q 608 15 611 6 q 599 46 604 25 q 547 265 571 165 q 506 445 524 364 q 473 594 488 526 q 447 722 458 663 q 428 836 436 782 l 469 804 l 365 804 l 407 836 q 388 723 399 782 q 362 595 376 664 q 326 441 347 526 q 280 247 306 356 q 222 0 254 138 m 476 1314 q 559 1314 529 1314 q 616 1314 589 1314 q 686 1314 643 1314 q 697 1308 694 1314 q 694 1294 700 1301 q 649 1243 668 1265 q 610 1199 629 1221 q 567 1151 592 1178 q 507 1085 543 1125 q 499 1079 504 1082 q 485 1076 493 1076 q 422 1076 446 1076 q 378 1076 397 1076 q 335 1076 358 1076 q 383 1157 360 1119 q 429 1233 406 1194 q 476 1314 453 1272 z "},"Â":{"ha":833,"x_min":35,"x_max":803,"o":"m 204 389 l 439 389 q 483 389 461 389 q 524 389 504 389 l 572 401 l 592 314 l 611 225 l 217 225 q 209 227 213 225 q 203 233 206 229 q 201 240 201 236 l 204 389 m 222 0 q 135 0 179 0 q 47 0 92 0 q 40 2 43 0 q 35 8 36 4 q 36 18 35 11 q 57 108 43 50 q 89 242 71 167 q 128 403 107 318 q 169 573 149 488 q 208 737 189 658 q 241 876 226 815 q 265 974 256 938 q 416 974 344 974 q 554 974 488 974 q 563 972 560 974 q 567 967 565 969 q 569 958 569 964 q 612 792 590 881 q 656 608 633 704 q 704 408 679 511 q 756 193 729 304 q 780 99 768 147 q 803 0 792 50 q 715 0 758 0 q 632 0 672 0 q 617 3 624 0 q 608 15 611 6 q 599 46 604 25 q 547 265 571 165 q 506 445 524 364 q 473 594 488 526 q 447 722 458 663 q 428 836 436 782 l 469 804 l 365 804 l 407 836 q 388 723 399 782 q 362 595 376 664 q 326 441 347 526 q 280 247 306 356 q 222 0 254 138 m 314 1314 q 372 1314 335 1314 q 447 1314 410 1314 q 503 1314 483 1314 q 520 1310 513 1314 q 547 1288 528 1306 q 581 1253 558 1276 q 634 1201 604 1231 q 695 1138 664 1171 q 756 1076 726 1106 q 672 1076 719 1076 q 589 1076 625 1076 q 567 1079 574 1076 q 550 1090 561 1082 q 489 1140 528 1107 q 393 1228 450 1174 l 465 1199 q 420 1199 443 1199 q 374 1199 397 1199 l 444 1229 q 347 1142 390 1179 q 269 1076 304 1106 l 111 1076 q 102 1077 106 1076 q 97 1081 99 1078 q 96 1086 96 1083 q 101 1097 96 1092 q 125 1122 106 1103 q 167 1166 143 1142 q 219 1217 192 1190 q 270 1270 246 1244 q 314 1314 294 1296 z "},"Ã":{"ha":833,"x_min":35,"x_max":803,"o":"m 204 389 l 439 389 q 483 389 461 389 q 524 389 504 389 l 572 401 l 592 314 l 611 225 l 217 225 q 209 227 213 225 q 203 233 206 229 q 201 240 201 236 l 204 389 m 222 0 q 135 0 179 0 q 47 0 92 0 q 40 2 43 0 q 35 8 36 4 q 36 18 35 11 q 57 108 43 50 q 89 242 71 167 q 128 403 107 318 q 169 573 149 488 q 208 737 189 658 q 241 876 226 815 q 265 974 256 938 q 416 974 344 974 q 554 974 488 974 q 563 972 560 974 q 567 967 565 969 q 569 958 569 964 q 612 792 590 881 q 656 608 633 704 q 704 408 679 511 q 756 193 729 304 q 780 99 768 147 q 803 0 792 50 q 715 0 758 0 q 632 0 672 0 q 617 3 624 0 q 608 15 611 6 q 599 46 604 25 q 547 265 571 165 q 506 445 524 364 q 473 594 488 526 q 447 722 458 663 q 428 836 436 782 l 469 804 l 365 804 l 407 836 q 388 723 399 782 q 362 595 376 664 q 326 441 347 526 q 280 247 306 356 q 222 0 254 138 m 564 1229 q 624 1242 597 1229 q 672 1286 650 1256 l 699 1286 q 699 1218 699 1251 q 699 1157 699 1185 q 697 1140 699 1146 q 689 1128 696 1135 q 635 1090 667 1104 q 557 1076 604 1076 q 475 1088 513 1076 q 404 1115 438 1100 q 338 1142 371 1131 q 269 1154 306 1154 q 210 1140 236 1154 q 161 1097 183 1126 l 135 1097 q 135 1165 135 1132 q 135 1226 135 1199 q 136 1242 135 1236 q 144 1257 138 1249 q 198 1294 167 1281 q 276 1308 229 1308 q 358 1296 321 1308 q 429 1269 396 1283 q 495 1242 463 1254 q 564 1229 528 1229 z "},"Ä":{"ha":833,"x_min":35,"x_max":803,"o":"m 204 389 l 439 389 q 483 389 461 389 q 524 389 504 389 l 572 401 l 592 314 l 611 225 l 217 225 q 209 227 213 225 q 203 233 206 229 q 201 240 201 236 l 204 389 m 222 0 q 135 0 179 0 q 47 0 92 0 q 40 2 43 0 q 35 8 36 4 q 36 18 35 11 q 57 108 43 50 q 89 242 71 167 q 128 403 107 318 q 169 573 149 488 q 208 737 189 658 q 241 876 226 815 q 265 974 256 938 q 416 974 344 974 q 554 974 488 974 q 563 972 560 974 q 567 967 565 969 q 569 958 569 964 q 612 792 590 881 q 656 608 633 704 q 704 408 679 511 q 756 193 729 304 q 780 99 768 147 q 803 0 792 50 q 715 0 758 0 q 632 0 672 0 q 617 3 624 0 q 608 15 611 6 q 599 46 604 25 q 547 265 571 165 q 506 445 524 364 q 473 594 488 526 q 447 722 458 663 q 428 836 436 782 l 469 804 l 365 804 l 407 836 q 388 723 399 782 q 362 595 376 664 q 326 441 347 526 q 280 247 306 356 q 222 0 254 138 m 165 1289 q 258 1289 211 1289 q 351 1289 306 1289 q 360 1287 357 1289 q 365 1282 363 1285 q 367 1274 367 1279 l 367 1099 q 274 1099 321 1099 q 181 1099 226 1099 q 173 1101 176 1099 q 167 1106 169 1103 q 165 1114 165 1110 l 165 1289 m 467 1289 q 560 1289 513 1289 q 653 1289 607 1289 q 661 1287 658 1289 q 666 1282 664 1285 q 668 1274 668 1279 l 668 1099 q 575 1099 622 1099 q 482 1099 528 1099 q 474 1101 478 1099 q 469 1106 471 1103 q 467 1114 467 1110 l 467 1289 z "},"Å":{"ha":833,"x_min":35,"x_max":803,"o":"m 204 389 l 439 389 q 483 389 461 389 q 524 389 504 389 l 572 401 l 592 314 l 611 225 l 217 225 q 209 227 213 225 q 203 233 206 229 q 201 240 201 236 l 204 389 m 222 0 q 135 0 179 0 q 47 0 92 0 q 40 2 43 0 q 35 8 36 4 q 36 18 35 11 q 57 108 43 50 q 89 242 71 167 q 128 403 107 318 q 169 573 149 488 q 208 737 189 658 q 241 876 226 815 q 265 974 256 938 q 416 974 344 974 q 554 974 488 974 q 563 972 560 974 q 567 967 565 969 q 569 958 569 964 q 612 792 590 881 q 656 608 633 704 q 704 408 679 511 q 756 193 729 304 q 780 99 768 147 q 803 0 792 50 q 715 0 758 0 q 632 0 672 0 q 617 3 624 0 q 608 15 611 6 q 599 46 604 25 q 547 265 571 165 q 506 445 524 364 q 473 594 488 526 q 447 722 458 663 q 428 836 436 782 l 469 804 l 365 804 l 407 836 q 388 723 399 782 q 362 595 376 664 q 326 441 347 526 q 280 247 306 356 q 222 0 254 138 m 418 1249 q 544 1226 492 1249 q 623 1165 596 1204 q 650 1074 650 1126 l 650 1038 q 622 945 650 985 q 542 884 594 906 q 417 863 490 863 q 291 884 343 863 q 211 945 239 906 q 183 1038 183 985 l 183 1074 q 211 1166 183 1126 q 292 1227 239 1206 q 418 1249 344 1249 m 417 1132 q 356 1115 378 1132 q 335 1065 335 1099 l 335 1044 q 340 1017 335 1029 q 357 994 346 1004 q 383 982 368 986 q 417 978 397 978 q 477 995 456 978 q 499 1044 499 1013 l 499 1065 q 494 1094 499 1081 q 478 1115 489 1107 q 452 1128 468 1124 q 417 1132 436 1132 z "},"Ā":{"ha":833,"x_min":35,"x_max":803,"o":"m 204 389 l 439 389 q 483 389 461 389 q 524 389 504 389 l 572 401 l 592 314 l 611 225 l 217 225 q 209 227 213 225 q 203 233 206 229 q 201 240 201 236 l 204 389 m 222 0 q 135 0 179 0 q 47 0 92 0 q 40 2 43 0 q 35 8 36 4 q 36 18 35 11 q 57 108 43 50 q 89 242 71 167 q 128 403 107 318 q 169 573 149 488 q 208 737 189 658 q 241 876 226 815 q 265 974 256 938 q 416 974 344 974 q 554 974 488 974 q 563 972 560 974 q 567 967 565 969 q 569 958 569 964 q 612 792 590 881 q 656 608 633 704 q 704 408 679 511 q 756 193 729 304 q 780 99 768 147 q 803 0 792 50 q 715 0 758 0 q 632 0 672 0 q 617 3 624 0 q 608 15 611 6 q 599 46 604 25 q 547 265 571 165 q 506 445 524 364 q 473 594 488 526 q 447 722 458 663 q 428 836 436 782 l 469 804 l 365 804 l 407 836 q 388 723 399 782 q 362 595 376 664 q 326 441 347 526 q 280 247 306 356 q 222 0 254 138 m 168 1268 l 650 1268 q 661 1264 657 1268 q 665 1253 665 1260 q 665 1183 665 1217 q 665 1113 665 1149 l 183 1113 q 176 1115 179 1113 q 170 1120 172 1117 q 168 1128 168 1124 q 168 1198 168 1164 q 168 1268 168 1232 z "},"Ă":{"ha":833,"x_min":35,"x_max":803,"o":"m 204 389 l 439 389 q 483 389 461 389 q 524 389 504 389 l 572 401 l 592 314 l 611 225 l 217 225 q 209 227 213 225 q 203 233 206 229 q 201 240 201 236 l 204 389 m 222 0 q 135 0 179 0 q 47 0 92 0 q 40 2 43 0 q 35 8 36 4 q 36 18 35 11 q 57 108 43 50 q 89 242 71 167 q 128 403 107 318 q 169 573 149 488 q 208 737 189 658 q 241 876 226 815 q 265 974 256 938 q 416 974 344 974 q 554 974 488 974 q 563 972 560 974 q 567 967 565 969 q 569 958 569 964 q 612 792 590 881 q 656 608 633 704 q 704 408 679 511 q 756 193 729 304 q 780 99 768 147 q 803 0 792 50 q 715 0 758 0 q 632 0 672 0 q 617 3 624 0 q 608 15 611 6 q 599 46 604 25 q 547 265 571 165 q 506 445 524 364 q 473 594 488 526 q 447 722 458 663 q 428 836 436 782 l 469 804 l 365 804 l 407 836 q 388 723 399 782 q 362 595 376 664 q 326 441 347 526 q 280 247 306 356 q 222 0 254 138 m 546 1315 q 604 1315 575 1315 q 663 1315 633 1315 q 681 1310 676 1315 q 682 1288 685 1304 q 642 1190 674 1236 q 560 1115 610 1143 q 450 1086 511 1086 l 383 1086 q 273 1115 322 1086 q 192 1190 224 1143 q 151 1288 160 1236 q 153 1310 150 1304 q 171 1315 157 1315 q 229 1315 200 1315 q 288 1315 258 1315 q 336 1251 306 1269 q 417 1233 367 1233 q 497 1251 467 1233 q 546 1315 528 1269 z "},"Ą":{"ha":833,"x_min":35,"x_max":803,"o":"m 204 389 l 439 389 q 483 389 461 389 q 524 389 504 389 l 572 401 l 592 314 l 611 225 l 217 225 q 209 227 213 225 q 203 233 206 229 q 201 240 201 236 l 204 389 m 222 0 q 135 0 179 0 q 47 0 92 0 q 40 2 43 0 q 35 8 36 4 q 36 18 35 11 q 57 108 43 50 q 89 242 71 167 q 128 403 107 318 q 169 573 149 488 q 208 737 189 658 q 241 876 226 815 q 265 974 256 938 q 416 974 344 974 q 554 974 488 974 q 563 972 560 974 q 567 967 565 969 q 569 958 569 964 q 612 792 590 881 q 656 608 633 704 q 704 408 679 511 q 756 193 729 304 q 780 99 768 147 q 803 0 792 50 q 715 0 758 0 q 632 0 672 0 q 617 3 624 0 q 608 15 611 6 q 599 46 604 25 q 547 265 571 165 q 506 445 524 364 q 473 594 488 526 q 447 722 458 663 q 428 836 436 782 l 469 804 l 365 804 l 407 836 q 388 723 399 782 q 362 595 376 664 q 326 441 347 526 q 280 247 306 356 q 222 0 254 138 m 717 57 q 753 45 735 57 q 803 0 772 33 q 800 -8 803 -4 q 785 -15 797 -12 q 678 -56 713 -28 q 644 -118 644 -83 q 660 -155 644 -143 q 703 -167 675 -167 q 738 -162 722 -167 q 769 -147 754 -157 l 796 -147 q 796 -176 796 -160 q 796 -219 796 -192 q 796 -299 796 -247 q 763 -333 796 -319 q 682 -347 729 -347 q 533 -301 588 -347 q 478 -172 478 -256 q 515 -49 478 -100 q 608 28 553 1 q 717 57 663 56 z "},"Ǻ":{"ha":833,"x_min":35,"x_max":803,"o":"m 418 1249 q 544 1226 492 1249 q 623 1165 596 1204 q 650 1074 650 1126 l 650 1038 q 622 945 650 985 q 542 884 594 906 q 417 863 490 863 q 291 884 343 863 q 211 945 239 906 q 183 1038 183 985 l 183 1074 q 211 1166 183 1126 q 292 1227 239 1206 q 418 1249 344 1249 m 417 1132 q 356 1115 378 1132 q 335 1065 335 1099 l 335 1044 q 340 1017 335 1029 q 357 994 346 1004 q 383 982 368 986 q 417 978 397 978 q 477 995 456 978 q 499 1044 499 1013 l 499 1065 q 494 1094 499 1081 q 478 1115 489 1107 q 452 1128 468 1124 q 417 1132 436 1132 m 489 1426 q 570 1426 540 1426 q 628 1426 600 1426 q 699 1426 656 1426 q 710 1420 707 1426 q 707 1407 713 1414 q 660 1356 681 1378 q 622 1312 640 1333 q 578 1264 603 1290 q 518 1197 554 1238 q 510 1192 515 1194 q 496 1189 504 1189 q 434 1189 458 1189 q 390 1189 410 1189 q 347 1189 371 1189 q 395 1269 372 1232 q 441 1346 418 1307 q 489 1426 464 1385 m 204 389 l 439 389 q 483 389 461 389 q 524 389 504 389 l 572 401 l 592 314 l 611 225 l 217 225 q 209 227 213 225 q 203 233 206 229 q 201 240 201 236 l 204 389 m 222 0 q 135 0 179 0 q 47 0 92 0 q 40 2 43 0 q 35 8 36 4 q 36 18 35 11 q 57 108 43 50 q 89 242 71 167 q 128 403 107 318 q 169 573 149 488 q 208 737 189 658 q 241 876 226 815 q 265 974 256 938 q 416 974 344 974 q 554 974 488 974 q 563 972 560 974 q 567 967 565 969 q 569 958 569 964 q 612 792 590 881 q 656 608 633 704 q 704 408 679 511 q 756 193 729 304 q 780 99 768 147 q 803 0 792 50 q 715 0 758 0 q 632 0 672 0 q 617 3 624 0 q 608 15 611 6 q 599 46 604 25 q 547 265 571 165 q 506 445 524 364 q 473 594 488 526 q 447 722 458 663 q 428 836 436 782 l 469 804 l 365 804 l 407 836 q 388 723 399 782 q 362 595 376 664 q 326 441 347 526 q 280 247 306 356 q 222 0 254 138 z "},"Ȁ":{"ha":833,"x_min":0,"x_max":803,"o":"m 225 1315 q 274 1235 251 1274 q 319 1158 296 1196 q 367 1078 343 1121 q 323 1078 343 1078 q 279 1078 303 1078 q 217 1078 256 1078 q 202 1081 208 1078 q 193 1086 196 1083 q 133 1153 157 1126 q 90 1201 108 1179 q 51 1244 71 1222 q 6 1296 32 1267 q 3 1309 0 1303 q 14 1315 6 1315 q 85 1315 58 1315 q 143 1315 113 1315 q 225 1315 174 1315 m 521 1315 q 569 1235 546 1274 q 615 1158 592 1196 q 663 1078 638 1121 q 618 1078 638 1078 q 575 1078 599 1078 q 511 1078 551 1078 q 497 1081 503 1078 q 489 1086 492 1083 q 428 1153 453 1126 q 385 1201 404 1179 q 347 1244 367 1222 q 300 1296 326 1267 q 298 1309 294 1303 q 310 1315 301 1315 q 382 1315 354 1315 q 440 1315 410 1315 q 521 1315 469 1315 m 204 389 l 439 389 q 483 389 461 389 q 524 389 504 389 l 572 401 l 592 314 l 611 225 l 217 225 q 209 227 213 225 q 203 233 206 229 q 201 240 201 236 l 204 389 m 222 0 q 135 0 179 0 q 47 0 92 0 q 40 2 43 0 q 35 8 36 4 q 36 18 35 11 q 57 108 43 50 q 89 242 71 167 q 128 403 107 318 q 169 573 149 488 q 208 737 189 658 q 241 876 226 815 q 265 974 256 938 q 416 974 344 974 q 554 974 488 974 q 563 972 560 974 q 567 967 565 969 q 569 958 569 964 q 612 792 590 881 q 656 608 633 704 q 704 408 679 511 q 756 193 729 304 q 780 99 768 147 q 803 0 792 50 q 715 0 758 0 q 632 0 672 0 q 617 3 624 0 q 608 15 611 6 q 599 46 604 25 q 547 265 571 165 q 506 445 524 364 q 473 594 488 526 q 447 722 458 663 q 428 836 436 782 l 469 804 l 365 804 l 407 836 q 388 723 399 782 q 362 595 376 664 q 326 441 347 526 q 280 247 306 356 q 222 0 254 138 z "},"Ȃ":{"ha":833,"x_min":35,"x_max":803,"o":"m 204 389 l 439 389 q 483 389 461 389 q 524 389 504 389 l 572 401 l 592 314 l 611 225 l 217 225 q 209 227 213 225 q 203 233 206 229 q 201 240 201 236 l 204 389 m 222 0 q 135 0 179 0 q 47 0 92 0 q 40 2 43 0 q 35 8 36 4 q 36 18 35 11 q 57 108 43 50 q 89 242 71 167 q 128 403 107 318 q 169 573 149 488 q 208 737 189 658 q 241 876 226 815 q 265 974 256 938 q 416 974 344 974 q 554 974 488 974 q 563 972 560 974 q 567 967 565 969 q 569 958 569 964 q 612 792 590 881 q 656 608 633 704 q 704 408 679 511 q 756 193 729 304 q 780 99 768 147 q 803 0 792 50 q 715 0 758 0 q 632 0 672 0 q 617 3 624 0 q 608 15 611 6 q 599 46 604 25 q 547 265 571 165 q 506 445 524 364 q 473 594 488 526 q 447 722 458 663 q 428 836 436 782 l 469 804 l 365 804 l 407 836 q 388 723 399 782 q 362 595 376 664 q 326 441 347 526 q 280 247 306 356 q 222 0 254 138 m 288 1083 q 229 1083 258 1083 q 171 1083 200 1083 q 153 1088 157 1083 q 151 1110 150 1093 q 192 1208 160 1163 q 273 1283 224 1254 q 383 1313 322 1313 l 450 1313 q 560 1283 511 1313 q 642 1208 610 1254 q 682 1110 674 1163 q 681 1088 685 1093 q 663 1083 676 1083 q 604 1083 633 1083 q 546 1083 575 1083 q 497 1146 528 1128 q 417 1164 467 1164 q 336 1146 367 1164 q 288 1083 306 1128 z "},"Ạ":{"ha":833,"x_min":35,"x_max":803,"o":"m 204 389 l 439 389 q 483 389 461 389 q 524 389 504 389 l 572 401 l 592 314 l 611 225 l 217 225 q 209 227 213 225 q 203 233 206 229 q 201 240 201 236 l 204 389 m 222 0 q 135 0 179 0 q 47 0 92 0 q 40 2 43 0 q 35 8 36 4 q 36 18 35 11 q 57 108 43 50 q 89 242 71 167 q 128 403 107 318 q 169 573 149 488 q 208 737 189 658 q 241 876 226 815 q 265 974 256 938 q 416 974 344 974 q 554 974 488 974 q 563 972 560 974 q 567 967 565 969 q 569 958 569 964 q 612 792 590 881 q 656 608 633 704 q 704 408 679 511 q 756 193 729 304 q 780 99 768 147 q 803 0 792 50 q 715 0 758 0 q 632 0 672 0 q 617 3 624 0 q 608 15 611 6 q 599 46 604 25 q 547 265 571 165 q 506 445 524 364 q 473 594 488 526 q 447 722 458 663 q 428 836 436 782 l 469 804 l 365 804 l 407 836 q 388 723 399 782 q 362 595 376 664 q 326 441 347 526 q 280 247 306 356 q 222 0 254 138 m 301 -139 q 356 -139 329 -139 q 409 -139 382 -139 q 463 -139 436 -139 q 517 -139 489 -139 q 528 -143 524 -139 q 532 -154 532 -147 l 532 -333 q 478 -333 504 -333 q 424 -333 451 -333 q 371 -333 397 -333 q 317 -333 344 -333 q 306 -329 310 -333 q 301 -318 301 -325 l 301 -139 z "},"Ả":{"ha":833,"x_min":35,"x_max":803,"o":"m 204 389 l 439 389 q 483 389 461 389 q 524 389 504 389 l 572 401 l 592 314 l 611 225 l 217 225 q 209 227 213 225 q 203 233 206 229 q 201 240 201 236 l 204 389 m 222 0 q 135 0 179 0 q 47 0 92 0 q 40 2 43 0 q 35 8 36 4 q 36 18 35 11 q 57 108 43 50 q 89 242 71 167 q 128 403 107 318 q 169 573 149 488 q 208 737 189 658 q 241 876 226 815 q 265 974 256 938 q 416 974 344 974 q 554 974 488 974 q 563 972 560 974 q 567 967 565 969 q 569 958 569 964 q 612 792 590 881 q 656 608 633 704 q 704 408 679 511 q 756 193 729 304 q 780 99 768 147 q 803 0 792 50 q 715 0 758 0 q 632 0 672 0 q 617 3 624 0 q 608 15 611 6 q 599 46 604 25 q 547 265 571 165 q 506 445 524 364 q 473 594 488 526 q 447 722 458 663 q 428 836 436 782 l 469 804 l 365 804 l 407 836 q 388 723 399 782 q 362 595 376 664 q 326 441 347 526 q 280 247 306 356 q 222 0 254 138 m 333 1071 q 353 1095 343 1083 q 372 1122 363 1107 q 390 1146 382 1133 q 408 1172 399 1158 q 408 1179 408 1175 q 408 1189 408 1183 q 384 1189 399 1189 q 357 1189 369 1189 q 319 1189 344 1189 q 275 1189 293 1189 l 244 1189 q 244 1250 244 1224 q 244 1299 244 1276 q 249 1310 244 1306 q 260 1314 253 1314 q 317 1314 279 1314 q 400 1314 356 1314 q 486 1314 444 1314 q 556 1314 528 1314 q 565 1313 561 1314 q 570 1308 568 1311 q 572 1299 572 1304 l 572 1190 q 556 1167 572 1189 q 517 1118 539 1146 q 488 1084 503 1101 q 461 1053 474 1067 q 419 1053 443 1053 q 374 1053 396 1053 q 338 1053 351 1053 q 328 1058 328 1053 q 333 1071 328 1064 z "},"Ấ":{"ha":833,"x_min":35,"x_max":974,"o":"m 204 389 l 439 389 q 483 389 461 389 q 524 389 504 389 l 572 401 l 592 314 l 611 225 l 217 225 q 209 227 213 225 q 203 233 206 229 q 201 240 201 236 l 204 389 m 222 0 q 135 0 179 0 q 47 0 92 0 q 40 2 43 0 q 35 8 36 4 q 36 18 35 11 q 57 108 43 50 q 89 242 71 167 q 128 403 107 318 q 169 573 149 488 q 208 737 189 658 q 241 876 226 815 q 265 974 256 938 q 416 974 344 974 q 554 974 488 974 q 563 972 560 974 q 567 967 565 969 q 569 958 569 964 q 612 792 590 881 q 656 608 633 704 q 704 408 679 511 q 756 193 729 304 q 780 99 768 147 q 803 0 792 50 q 715 0 758 0 q 632 0 672 0 q 617 3 624 0 q 608 15 611 6 q 599 46 604 25 q 547 265 571 165 q 506 445 524 364 q 473 594 488 526 q 447 722 458 663 q 428 836 436 782 l 469 804 l 365 804 l 407 836 q 388 723 399 782 q 362 595 376 664 q 326 441 347 526 q 280 247 306 356 q 222 0 254 138 m 314 1314 q 372 1314 335 1314 q 447 1314 410 1314 q 503 1314 483 1314 q 520 1310 513 1314 q 547 1288 528 1306 q 581 1253 558 1276 q 634 1201 604 1231 q 695 1138 664 1171 q 756 1076 726 1106 q 672 1076 719 1076 q 589 1076 625 1076 q 567 1079 574 1076 q 550 1090 561 1082 q 489 1140 528 1107 q 393 1228 450 1174 l 465 1199 q 420 1199 443 1199 q 374 1199 397 1199 l 444 1229 q 347 1142 390 1179 q 269 1076 304 1106 l 111 1076 q 102 1077 106 1076 q 97 1081 99 1078 q 96 1086 96 1083 q 101 1097 96 1092 q 125 1122 106 1103 q 167 1166 143 1142 q 219 1217 192 1190 q 270 1270 246 1244 q 314 1314 294 1296 m 782 1471 q 842 1471 811 1471 q 903 1471 872 1471 q 960 1471 933 1471 q 971 1465 968 1471 q 968 1451 974 1458 q 910 1374 939 1413 q 855 1302 882 1336 q 806 1239 828 1268 q 794 1228 800 1231 q 779 1225 788 1225 q 720 1225 742 1225 q 682 1225 699 1225 q 642 1225 665 1225 q 690 1308 667 1268 q 735 1388 713 1347 q 782 1471 758 1429 z "},"Ầ":{"ha":833,"x_min":35,"x_max":806,"o":"m 204 389 l 439 389 q 483 389 461 389 q 524 389 504 389 l 572 401 l 592 314 l 611 225 l 217 225 q 209 227 213 225 q 203 233 206 229 q 201 240 201 236 l 204 389 m 222 0 q 135 0 179 0 q 47 0 92 0 q 40 2 43 0 q 35 8 36 4 q 36 18 35 11 q 57 108 43 50 q 89 242 71 167 q 128 403 107 318 q 169 573 149 488 q 208 737 189 658 q 241 876 226 815 q 265 974 256 938 q 416 974 344 974 q 554 974 488 974 q 563 972 560 974 q 567 967 565 969 q 569 958 569 964 q 612 792 590 881 q 656 608 633 704 q 704 408 679 511 q 756 193 729 304 q 780 99 768 147 q 803 0 792 50 q 715 0 758 0 q 632 0 672 0 q 617 3 624 0 q 608 15 611 6 q 599 46 604 25 q 547 265 571 165 q 506 445 524 364 q 473 594 488 526 q 447 722 458 663 q 428 836 436 782 l 469 804 l 365 804 l 407 836 q 388 723 399 782 q 362 595 376 664 q 326 441 347 526 q 280 247 306 356 q 222 0 254 138 m 314 1314 q 372 1314 335 1314 q 447 1314 410 1314 q 503 1314 483 1314 q 520 1310 513 1314 q 547 1288 528 1306 q 581 1253 558 1276 q 634 1201 604 1231 q 695 1138 664 1171 q 756 1076 726 1106 q 672 1076 719 1076 q 589 1076 625 1076 q 567 1079 574 1076 q 550 1090 561 1082 q 489 1140 528 1107 q 393 1228 450 1174 l 465 1199 q 420 1199 443 1199 q 374 1199 397 1199 l 444 1229 q 347 1142 390 1179 q 269 1076 304 1106 l 111 1076 q 102 1077 106 1076 q 97 1081 99 1078 q 96 1086 96 1083 q 101 1097 96 1092 q 125 1122 106 1103 q 167 1166 143 1142 q 219 1217 192 1190 q 270 1270 246 1244 q 314 1314 294 1296 m 665 1471 q 713 1388 690 1429 q 758 1308 735 1347 q 806 1225 782 1268 q 765 1225 782 1225 q 728 1225 749 1225 q 668 1225 707 1225 q 654 1228 660 1225 q 642 1239 649 1231 q 593 1302 621 1268 q 537 1374 565 1336 q 479 1451 508 1413 q 476 1465 474 1458 q 488 1471 479 1471 q 544 1471 514 1471 q 606 1471 575 1471 q 665 1471 636 1471 z "},"Ẩ":{"ha":833,"x_min":35,"x_max":879,"o":"m 204 389 l 439 389 q 483 389 461 389 q 524 389 504 389 l 572 401 l 592 314 l 611 225 l 217 225 q 209 227 213 225 q 203 233 206 229 q 201 240 201 236 l 204 389 m 222 0 q 135 0 179 0 q 47 0 92 0 q 40 2 43 0 q 35 8 36 4 q 36 18 35 11 q 57 108 43 50 q 89 242 71 167 q 128 403 107 318 q 169 573 149 488 q 208 737 189 658 q 241 876 226 815 q 265 974 256 938 q 416 974 344 974 q 554 974 488 974 q 563 972 560 974 q 567 967 565 969 q 569 958 569 964 q 612 792 590 881 q 656 608 633 704 q 704 408 679 511 q 756 193 729 304 q 780 99 768 147 q 803 0 792 50 q 715 0 758 0 q 632 0 672 0 q 617 3 624 0 q 608 15 611 6 q 599 46 604 25 q 547 265 571 165 q 506 445 524 364 q 473 594 488 526 q 447 722 458 663 q 428 836 436 782 l 469 804 l 365 804 l 407 836 q 388 723 399 782 q 362 595 376 664 q 326 441 347 526 q 280 247 306 356 q 222 0 254 138 m 314 1314 q 372 1314 335 1314 q 447 1314 410 1314 q 503 1314 483 1314 q 520 1310 513 1314 q 547 1288 528 1306 q 581 1253 558 1276 q 634 1201 604 1231 q 695 1138 664 1171 q 756 1076 726 1106 q 672 1076 719 1076 q 589 1076 625 1076 q 567 1079 574 1076 q 550 1090 561 1082 q 489 1140 528 1107 q 393 1228 450 1174 l 465 1199 q 420 1199 443 1199 q 374 1199 397 1199 l 444 1229 q 347 1142 390 1179 q 269 1076 304 1106 l 111 1076 q 102 1077 106 1076 q 97 1081 99 1078 q 96 1086 96 1083 q 101 1097 96 1092 q 125 1122 106 1103 q 167 1166 143 1142 q 219 1217 192 1190 q 270 1270 246 1244 q 314 1314 294 1296 m 640 1229 q 660 1253 650 1242 q 679 1281 669 1265 q 697 1304 689 1292 q 715 1331 706 1317 q 715 1338 715 1333 q 715 1347 715 1342 q 691 1347 706 1347 q 664 1347 676 1347 q 626 1347 651 1347 q 582 1347 600 1347 l 551 1347 q 551 1408 551 1382 q 551 1457 551 1435 q 556 1468 551 1464 q 567 1472 560 1472 q 624 1472 586 1472 q 707 1472 663 1472 q 793 1472 751 1472 q 863 1472 835 1472 q 872 1471 868 1472 q 877 1466 875 1469 q 879 1457 879 1463 l 879 1349 q 863 1326 879 1347 q 824 1276 846 1304 q 795 1242 810 1260 q 768 1211 781 1225 q 726 1211 750 1211 q 681 1211 703 1211 q 644 1211 658 1211 q 635 1217 635 1211 q 640 1229 635 1222 z "},"Ẫ":{"ha":833,"x_min":35,"x_max":803,"o":"m 204 389 l 439 389 q 483 389 461 389 q 524 389 504 389 l 572 401 l 592 314 l 611 225 l 217 225 q 209 227 213 225 q 203 233 206 229 q 201 240 201 236 l 204 389 m 222 0 q 135 0 179 0 q 47 0 92 0 q 40 2 43 0 q 35 8 36 4 q 36 18 35 11 q 57 108 43 50 q 89 242 71 167 q 128 403 107 318 q 169 573 149 488 q 208 737 189 658 q 241 876 226 815 q 265 974 256 938 q 416 974 344 974 q 554 974 488 974 q 563 972 560 974 q 567 967 565 969 q 569 958 569 964 q 612 792 590 881 q 656 608 633 704 q 704 408 679 511 q 756 193 729 304 q 780 99 768 147 q 803 0 792 50 q 715 0 758 0 q 632 0 672 0 q 617 3 624 0 q 608 15 611 6 q 599 46 604 25 q 547 265 571 165 q 506 445 524 364 q 473 594 488 526 q 447 722 458 663 q 428 836 436 782 l 469 804 l 365 804 l 407 836 q 388 723 399 782 q 362 595 376 664 q 326 441 347 526 q 280 247 306 356 q 222 0 254 138 m 314 1314 q 372 1314 335 1314 q 447 1314 410 1314 q 503 1314 483 1314 q 520 1310 513 1314 q 547 1288 528 1306 q 581 1253 558 1276 q 634 1201 604 1231 q 695 1138 664 1171 q 756 1076 726 1106 q 672 1076 719 1076 q 589 1076 625 1076 q 567 1079 574 1076 q 550 1090 561 1082 q 489 1140 528 1107 q 393 1228 450 1174 l 465 1199 q 420 1199 443 1199 q 374 1199 397 1199 l 444 1229 q 347 1142 390 1179 q 269 1076 304 1106 l 111 1076 q 102 1077 106 1076 q 97 1081 99 1078 q 96 1086 96 1083 q 101 1097 96 1092 q 125 1122 106 1103 q 167 1166 143 1142 q 219 1217 192 1190 q 270 1270 246 1244 q 314 1314 294 1296 m 535 1479 q 576 1488 560 1479 q 611 1526 592 1497 l 636 1526 q 636 1460 636 1493 q 636 1401 636 1428 q 635 1385 636 1392 q 626 1372 633 1379 q 585 1340 610 1350 q 529 1331 560 1331 q 460 1340 490 1331 q 406 1363 431 1350 q 358 1386 382 1376 q 303 1396 333 1396 q 257 1384 274 1396 q 221 1350 240 1372 l 196 1350 q 196 1415 196 1383 q 196 1474 196 1447 q 197 1489 196 1483 q 206 1503 197 1494 q 247 1533 225 1524 q 304 1543 268 1543 q 364 1533 336 1543 q 417 1511 392 1524 q 472 1489 443 1499 q 535 1479 500 1479 z "},"Ậ":{"ha":833,"x_min":35,"x_max":803,"o":"m 301 -139 q 356 -139 329 -139 q 409 -139 382 -139 q 463 -139 436 -139 q 517 -139 489 -139 q 528 -143 524 -139 q 532 -154 532 -147 l 532 -333 q 478 -333 504 -333 q 424 -333 451 -333 q 371 -333 397 -333 q 317 -333 344 -333 q 306 -329 310 -333 q 301 -318 301 -325 l 301 -139 m 204 389 l 439 389 q 483 389 461 389 q 524 389 504 389 l 572 401 l 592 314 l 611 225 l 217 225 q 209 227 213 225 q 203 233 206 229 q 201 240 201 236 l 204 389 m 222 0 q 135 0 179 0 q 47 0 92 0 q 40 2 43 0 q 35 8 36 4 q 36 18 35 11 q 57 108 43 50 q 89 242 71 167 q 128 403 107 318 q 169 573 149 488 q 208 737 189 658 q 241 876 226 815 q 265 974 256 938 q 416 974 344 974 q 554 974 488 974 q 563 972 560 974 q 567 967 565 969 q 569 958 569 964 q 612 792 590 881 q 656 608 633 704 q 704 408 679 511 q 756 193 729 304 q 780 99 768 147 q 803 0 792 50 q 715 0 758 0 q 632 0 672 0 q 617 3 624 0 q 608 15 611 6 q 599 46 604 25 q 547 265 571 165 q 506 445 524 364 q 473 594 488 526 q 447 722 458 663 q 428 836 436 782 l 469 804 l 365 804 l 407 836 q 388 723 399 782 q 362 595 376 664 q 326 441 347 526 q 280 247 306 356 q 222 0 254 138 m 314 1315 q 372 1315 335 1315 q 447 1315 410 1315 q 503 1315 483 1315 q 520 1310 513 1315 q 547 1288 528 1306 q 581 1253 558 1276 q 634 1201 604 1231 q 695 1139 664 1171 q 756 1076 726 1107 q 672 1076 719 1076 q 589 1076 625 1076 q 567 1079 574 1076 q 550 1090 561 1082 q 489 1140 528 1107 q 393 1228 450 1174 l 465 1199 q 420 1199 443 1199 q 374 1199 397 1199 l 444 1229 q 347 1142 390 1179 q 269 1076 304 1106 l 111 1076 q 102 1077 106 1076 q 97 1081 99 1078 q 96 1086 96 1083 q 101 1097 96 1092 q 125 1122 106 1103 q 167 1166 143 1142 q 219 1217 192 1190 q 270 1270 246 1244 q 314 1315 294 1296 z "},"Ắ":{"ha":833,"x_min":35,"x_max":803,"o":"m 204 389 l 439 389 q 483 389 461 389 q 524 389 504 389 l 572 401 l 592 314 l 611 225 l 217 225 q 209 227 213 225 q 203 233 206 229 q 201 240 201 236 l 204 389 m 222 0 q 135 0 179 0 q 47 0 92 0 q 40 2 43 0 q 35 8 36 4 q 36 18 35 11 q 57 108 43 50 q 89 242 71 167 q 128 403 107 318 q 169 573 149 488 q 208 737 189 658 q 241 876 226 815 q 265 974 256 938 q 416 974 344 974 q 554 974 488 974 q 563 972 560 974 q 567 967 565 969 q 569 958 569 964 q 612 792 590 881 q 656 608 633 704 q 704 408 679 511 q 756 193 729 304 q 780 99 768 147 q 803 0 792 50 q 715 0 758 0 q 632 0 672 0 q 617 3 624 0 q 608 15 611 6 q 599 46 604 25 q 547 265 571 165 q 506 445 524 364 q 473 594 488 526 q 447 722 458 663 q 428 836 436 782 l 469 804 l 365 804 l 407 836 q 388 723 399 782 q 362 595 376 664 q 326 441 347 526 q 280 247 306 356 q 222 0 254 138 m 546 1315 q 604 1315 575 1315 q 663 1315 633 1315 q 681 1310 676 1315 q 682 1288 685 1304 q 642 1190 674 1236 q 560 1115 610 1143 q 450 1086 511 1086 l 383 1086 q 273 1115 322 1086 q 192 1190 224 1143 q 151 1288 160 1236 q 153 1310 150 1304 q 171 1315 157 1315 q 229 1315 200 1315 q 288 1315 258 1315 q 336 1251 306 1269 q 417 1233 367 1233 q 497 1251 467 1233 q 546 1315 528 1269 m 475 1585 q 535 1585 504 1585 q 596 1585 565 1585 q 653 1585 626 1585 q 664 1578 661 1585 q 661 1565 667 1572 q 603 1488 632 1526 q 548 1416 575 1450 q 499 1353 521 1382 q 487 1342 493 1344 q 472 1339 481 1339 q 413 1339 435 1339 q 375 1339 392 1339 q 335 1339 358 1339 q 383 1422 360 1382 q 428 1502 406 1461 q 475 1585 451 1543 z "},"Ằ":{"ha":833,"x_min":35,"x_max":803,"o":"m 204 389 l 439 389 q 483 389 461 389 q 524 389 504 389 l 572 401 l 592 314 l 611 225 l 217 225 q 209 227 213 225 q 203 233 206 229 q 201 240 201 236 l 204 389 m 222 0 q 135 0 179 0 q 47 0 92 0 q 40 2 43 0 q 35 8 36 4 q 36 18 35 11 q 57 108 43 50 q 89 242 71 167 q 128 403 107 318 q 169 573 149 488 q 208 737 189 658 q 241 876 226 815 q 265 974 256 938 q 416 974 344 974 q 554 974 488 974 q 563 972 560 974 q 567 967 565 969 q 569 958 569 964 q 612 792 590 881 q 656 608 633 704 q 704 408 679 511 q 756 193 729 304 q 780 99 768 147 q 803 0 792 50 q 715 0 758 0 q 632 0 672 0 q 617 3 624 0 q 608 15 611 6 q 599 46 604 25 q 547 265 571 165 q 506 445 524 364 q 473 594 488 526 q 447 722 458 663 q 428 836 436 782 l 469 804 l 365 804 l 407 836 q 388 723 399 782 q 362 595 376 664 q 326 441 347 526 q 280 247 306 356 q 222 0 254 138 m 546 1315 q 604 1315 575 1315 q 663 1315 633 1315 q 681 1310 676 1315 q 682 1288 685 1304 q 642 1190 674 1236 q 560 1115 610 1143 q 450 1086 511 1086 l 383 1086 q 273 1115 322 1086 q 192 1190 224 1143 q 151 1288 160 1236 q 153 1310 150 1304 q 171 1315 157 1315 q 229 1315 200 1315 q 288 1315 258 1315 q 336 1251 306 1269 q 417 1233 367 1233 q 497 1251 467 1233 q 546 1315 528 1269 m 358 1585 q 406 1502 383 1543 q 451 1422 428 1461 q 499 1339 475 1382 q 458 1339 475 1339 q 421 1339 442 1339 q 361 1339 400 1339 q 347 1342 353 1339 q 335 1353 342 1344 q 286 1416 314 1382 q 230 1488 258 1450 q 172 1565 201 1526 q 169 1578 167 1572 q 181 1585 172 1585 q 238 1585 207 1585 q 299 1585 268 1585 q 358 1585 329 1585 z "},"Ẳ":{"ha":833,"x_min":35,"x_max":803,"o":"m 204 389 l 439 389 q 483 389 461 389 q 524 389 504 389 l 572 401 l 592 314 l 611 225 l 217 225 q 209 227 213 225 q 203 233 206 229 q 201 240 201 236 l 204 389 m 222 0 q 135 0 179 0 q 47 0 92 0 q 40 2 43 0 q 35 8 36 4 q 36 18 35 11 q 57 108 43 50 q 89 242 71 167 q 128 403 107 318 q 169 573 149 488 q 208 737 189 658 q 241 876 226 815 q 265 974 256 938 q 416 974 344 974 q 554 974 488 974 q 563 972 560 974 q 567 967 565 969 q 569 958 569 964 q 612 792 590 881 q 656 608 633 704 q 704 408 679 511 q 756 193 729 304 q 780 99 768 147 q 803 0 792 50 q 715 0 758 0 q 632 0 672 0 q 617 3 624 0 q 608 15 611 6 q 599 46 604 25 q 547 265 571 165 q 506 445 524 364 q 473 594 488 526 q 447 722 458 663 q 428 836 436 782 l 469 804 l 365 804 l 407 836 q 388 723 399 782 q 362 595 376 664 q 326 441 347 526 q 280 247 306 356 q 222 0 254 138 m 546 1315 q 604 1315 575 1315 q 663 1315 633 1315 q 681 1310 676 1315 q 682 1288 685 1304 q 642 1190 674 1236 q 560 1115 610 1143 q 450 1086 511 1086 l 383 1086 q 273 1115 322 1086 q 192 1190 224 1143 q 151 1288 160 1236 q 153 1310 150 1304 q 171 1315 157 1315 q 229 1315 200 1315 q 288 1315 258 1315 q 336 1251 306 1269 q 417 1233 367 1233 q 497 1251 467 1233 q 546 1315 528 1269 m 333 1331 q 353 1355 343 1343 q 372 1382 363 1367 q 390 1406 382 1393 q 408 1432 399 1418 q 408 1439 408 1435 q 408 1449 408 1443 q 384 1449 399 1449 q 357 1449 369 1449 q 319 1449 344 1449 q 275 1449 293 1449 l 244 1449 q 244 1510 244 1483 q 244 1558 244 1536 q 249 1569 244 1565 q 260 1574 253 1574 q 317 1574 279 1574 q 400 1574 356 1574 q 486 1574 444 1574 q 556 1574 528 1574 q 565 1572 561 1574 q 570 1567 568 1571 q 572 1558 572 1564 l 572 1450 q 556 1427 572 1449 q 517 1378 539 1406 q 488 1344 503 1361 q 461 1313 474 1326 q 419 1313 443 1313 q 374 1313 396 1313 q 338 1313 351 1313 q 328 1318 328 1313 q 333 1331 328 1324 z "},"Ẵ":{"ha":833,"x_min":35,"x_max":803,"o":"m 204 389 l 439 389 q 483 389 461 389 q 524 389 504 389 l 572 401 l 592 314 l 611 225 l 217 225 q 209 227 213 225 q 203 233 206 229 q 201 240 201 236 l 204 389 m 222 0 q 135 0 179 0 q 47 0 92 0 q 40 2 43 0 q 35 8 36 4 q 36 18 35 11 q 57 108 43 50 q 89 242 71 167 q 128 403 107 318 q 169 573 149 488 q 208 737 189 658 q 241 876 226 815 q 265 974 256 938 q 416 974 344 974 q 554 974 488 974 q 563 972 560 974 q 567 967 565 969 q 569 958 569 964 q 612 792 590 881 q 656 608 633 704 q 704 408 679 511 q 756 193 729 304 q 780 99 768 147 q 803 0 792 50 q 715 0 758 0 q 632 0 672 0 q 617 3 624 0 q 608 15 611 6 q 599 46 604 25 q 547 265 571 165 q 506 445 524 364 q 473 594 488 526 q 447 722 458 663 q 428 836 436 782 l 469 804 l 365 804 l 407 836 q 388 723 399 782 q 362 595 376 664 q 326 441 347 526 q 280 247 306 356 q 222 0 254 138 m 546 1315 q 604 1315 575 1315 q 663 1315 633 1315 q 681 1310 676 1315 q 682 1288 685 1304 q 642 1190 674 1236 q 560 1115 610 1143 q 450 1086 511 1086 l 383 1086 q 273 1115 322 1086 q 192 1190 224 1143 q 151 1288 160 1236 q 153 1310 150 1304 q 171 1315 157 1315 q 229 1315 200 1315 q 288 1315 258 1315 q 336 1251 306 1269 q 417 1233 367 1233 q 497 1251 467 1233 q 546 1315 528 1269 m 535 1496 q 576 1505 560 1496 q 611 1543 592 1514 l 636 1543 q 636 1477 636 1510 q 636 1418 636 1444 q 635 1402 636 1408 q 626 1389 633 1396 q 585 1357 610 1367 q 529 1347 560 1347 q 460 1357 490 1347 q 406 1380 431 1367 q 358 1403 382 1393 q 303 1413 333 1413 q 257 1401 274 1413 q 221 1367 240 1389 l 196 1367 q 196 1432 196 1400 q 196 1490 196 1464 q 197 1506 196 1500 q 206 1519 197 1511 q 247 1550 225 1540 q 304 1560 268 1560 q 364 1550 336 1560 q 417 1528 392 1540 q 472 1506 443 1515 q 535 1496 500 1496 z "},"Ặ":{"ha":833,"x_min":35,"x_max":803,"o":"m 301 -139 q 356 -139 329 -139 q 409 -139 382 -139 q 463 -139 436 -139 q 517 -139 489 -139 q 528 -143 524 -139 q 532 -154 532 -147 l 532 -333 q 478 -333 504 -333 q 424 -333 451 -333 q 371 -333 397 -333 q 317 -333 344 -333 q 306 -329 310 -333 q 301 -318 301 -325 l 301 -139 m 204 389 l 439 389 q 483 389 461 389 q 524 389 504 389 l 572 401 l 592 314 l 611 225 l 217 225 q 209 227 213 225 q 203 233 206 229 q 201 240 201 236 l 204 389 m 222 0 q 135 0 179 0 q 47 0 92 0 q 40 2 43 0 q 35 8 36 4 q 36 18 35 11 q 57 108 43 50 q 89 242 71 167 q 128 403 107 318 q 169 573 149 488 q 208 737 189 658 q 241 876 226 815 q 265 974 256 938 q 416 974 344 974 q 554 974 488 974 q 563 972 560 974 q 567 967 565 969 q 569 958 569 964 q 612 792 590 881 q 656 608 633 704 q 704 408 679 511 q 756 193 729 304 q 780 99 768 147 q 803 0 792 50 q 715 0 758 0 q 632 0 672 0 q 617 3 624 0 q 608 15 611 6 q 599 46 604 25 q 547 265 571 165 q 506 445 524 364 q 473 594 488 526 q 447 722 458 663 q 428 836 436 782 l 469 804 l 365 804 l 407 836 q 388 723 399 782 q 362 595 376 664 q 326 441 347 526 q 280 247 306 356 q 222 0 254 138 m 546 1315 q 604 1315 575 1315 q 663 1315 633 1315 q 681 1310 676 1315 q 682 1288 685 1304 q 642 1190 674 1236 q 560 1115 610 1143 q 450 1086 511 1086 l 383 1086 q 273 1115 322 1086 q 192 1190 224 1143 q 151 1288 160 1236 q 153 1310 150 1304 q 171 1315 157 1315 q 229 1315 200 1315 q 288 1315 258 1315 q 336 1253 306 1271 q 417 1235 367 1235 q 497 1253 467 1235 q 546 1315 528 1271 z "},"B":{"ha":833,"x_min":42,"x_max":747,"o":"m 460 0 q 363 0 418 0 q 257 0 308 0 q 168 0 206 0 q 125 0 131 0 q 114 4 118 0 q 110 15 110 8 q 110 234 110 129 q 110 441 110 339 q 110 648 110 543 q 110 867 110 753 l 313 867 l 303 839 q 303 751 303 793 q 303 669 303 710 q 303 547 303 607 q 303 425 303 486 q 303 299 303 364 q 303 167 303 235 q 348 167 326 167 q 392 167 369 167 q 436 167 414 167 q 502 178 476 167 q 540 213 528 190 q 553 268 553 236 l 553 311 q 540 367 553 344 q 501 400 528 389 q 428 411 474 411 l 204 411 l 211 529 l 574 529 l 574 479 q 702 416 657 467 q 747 276 747 365 l 747 238 q 711 101 747 153 q 611 24 675 49 q 460 0 547 0 m 42 972 q 239 972 140 972 q 435 972 338 972 q 581 953 522 972 q 676 903 640 935 q 728 829 711 871 q 744 744 744 788 l 744 713 q 725 620 744 660 q 670 554 706 581 q 585 515 635 528 q 474 501 535 501 q 337 501 393 501 q 235 501 281 501 l 211 483 l 204 572 q 318 572 261 572 q 431 572 375 572 q 500 584 474 572 q 538 620 526 596 q 550 678 550 644 l 550 713 q 544 751 550 733 q 526 779 539 768 q 490 799 513 793 q 436 806 468 806 q 310 806 374 806 q 184 806 247 806 q 57 806 121 806 q 46 810 50 806 q 42 821 42 814 q 42 897 42 863 q 42 972 42 932 z "},"C":{"ha":833,"x_min":75,"x_max":758,"o":"m 474 -28 q 299 -2 374 -28 q 174 72 224 24 q 99 192 124 121 q 75 353 75 263 l 75 633 q 100 783 75 715 q 174 899 125 850 q 295 974 224 947 q 458 1000 367 1000 q 585 987 529 1000 q 681 953 642 974 q 743 911 721 933 q 747 904 746 908 q 749 896 749 900 q 750 888 750 892 q 750 770 750 836 q 750 644 750 704 q 669 644 710 644 q 589 644 629 644 q 578 649 582 644 q 574 660 574 653 q 574 710 574 685 q 574 766 574 735 q 574 839 574 797 l 613 781 q 540 812 578 803 q 456 821 503 821 q 359 801 400 821 q 297 738 318 781 q 275 628 275 694 l 275 368 q 287 263 275 306 q 326 193 299 221 q 390 158 351 168 q 475 147 428 147 q 610 165 551 147 q 732 224 668 183 l 758 224 q 758 185 758 204 q 758 148 758 167 q 758 110 758 129 q 758 71 758 92 q 756 58 758 64 q 750 50 754 53 q 690 12 731 29 q 594 -17 650 -6 q 474 -28 539 -28 z "},"Ç":{"ha":833,"x_min":75,"x_max":758,"o":"m 474 -28 q 299 -2 374 -28 q 174 72 224 24 q 99 192 124 121 q 75 353 75 263 l 75 633 q 100 783 75 715 q 174 899 125 850 q 295 974 224 947 q 458 1000 367 1000 q 585 987 529 1000 q 681 953 642 974 q 743 911 721 933 q 747 904 746 908 q 749 896 749 900 q 750 888 750 892 q 750 770 750 836 q 750 644 750 704 q 669 644 710 644 q 589 644 629 644 q 578 649 582 644 q 574 660 574 653 q 574 710 574 685 q 574 766 574 735 q 574 839 574 797 l 613 781 q 540 812 578 803 q 456 821 503 821 q 359 801 400 821 q 297 738 318 781 q 275 628 275 694 l 275 368 q 287 263 275 306 q 326 193 299 221 q 390 158 351 168 q 475 147 428 147 q 610 165 551 147 q 732 224 668 183 l 758 224 q 758 185 758 204 q 758 148 758 167 q 758 110 758 129 q 758 71 758 92 q 756 58 758 64 q 750 50 754 53 q 690 12 731 29 q 594 -17 650 -6 q 474 -28 539 -28 m 607 -176 q 556 -299 607 -257 q 403 -342 506 -342 q 323 -336 351 -342 q 283 -320 294 -331 q 271 -297 271 -310 q 271 -256 271 -276 q 271 -217 271 -236 q 271 -183 271 -199 l 288 -183 q 326 -197 306 -192 q 375 -203 347 -203 q 423 -191 403 -203 q 443 -151 443 -179 q 424 -112 443 -125 q 369 -99 406 -99 q 358 -93 363 -99 q 357 -79 354 -87 q 372 -43 365 -60 q 384 -10 378 -26 q 397 20 390 6 q 408 50 403 35 q 419 63 413 58 q 442 69 425 67 q 496 71 460 71 q 488 44 492 58 q 482 16 485 29 q 476 -9 479 3 q 469 -31 472 -21 l 467 -44 q 569 -81 531 -46 q 607 -176 607 -115 z "},"Ć":{"ha":833,"x_min":75,"x_max":758,"o":"m 474 -28 q 299 -2 374 -28 q 174 72 224 24 q 99 192 124 121 q 75 353 75 263 l 75 633 q 100 783 75 715 q 174 899 125 850 q 295 974 224 947 q 458 1000 367 1000 q 585 987 529 1000 q 681 953 642 974 q 743 911 721 933 q 747 904 746 908 q 749 896 749 900 q 750 888 750 892 q 750 770 750 836 q 750 644 750 704 q 669 644 710 644 q 589 644 629 644 q 578 649 582 644 q 574 660 574 653 q 574 710 574 685 q 574 766 574 735 q 574 839 574 797 l 613 781 q 540 812 578 803 q 456 821 503 821 q 359 801 400 821 q 297 738 318 781 q 275 628 275 694 l 275 368 q 287 263 275 306 q 326 193 299 221 q 390 158 351 168 q 475 147 428 147 q 610 165 551 147 q 732 224 668 183 l 758 224 q 758 185 758 204 q 758 148 758 167 q 758 110 758 129 q 758 71 758 92 q 756 58 758 64 q 750 50 754 53 q 690 12 731 29 q 594 -17 650 -6 q 474 -28 539 -28 m 513 1314 q 595 1314 565 1314 q 652 1314 625 1314 q 722 1314 679 1314 q 733 1308 731 1314 q 731 1294 736 1301 q 685 1243 704 1265 q 647 1199 665 1221 q 603 1151 628 1178 q 543 1085 579 1125 q 535 1079 540 1082 q 521 1076 529 1076 q 458 1076 482 1076 q 414 1076 433 1076 q 371 1076 394 1076 q 419 1157 396 1119 q 465 1233 442 1194 q 513 1314 489 1272 z "},"Ĉ":{"ha":833,"x_min":75,"x_max":792,"o":"m 474 -28 q 299 -2 374 -28 q 174 72 224 24 q 99 192 124 121 q 75 353 75 263 l 75 633 q 100 783 75 715 q 174 899 125 850 q 295 974 224 947 q 458 1000 367 1000 q 585 987 529 1000 q 681 953 642 974 q 743 911 721 933 q 747 904 746 908 q 749 896 749 900 q 750 888 750 892 q 750 770 750 836 q 750 644 750 704 q 669 644 710 644 q 589 644 629 644 q 578 649 582 644 q 574 660 574 653 q 574 710 574 685 q 574 766 574 735 q 574 839 574 797 l 613 781 q 540 812 578 803 q 456 821 503 821 q 359 801 400 821 q 297 738 318 781 q 275 628 275 694 l 275 368 q 287 263 275 306 q 326 193 299 221 q 390 158 351 168 q 475 147 428 147 q 610 165 551 147 q 732 224 668 183 l 758 224 q 758 185 758 204 q 758 148 758 167 q 758 110 758 129 q 758 71 758 92 q 756 58 758 64 q 750 50 754 53 q 690 12 731 29 q 594 -17 650 -6 q 474 -28 539 -28 m 350 1314 q 408 1314 371 1314 q 483 1314 446 1314 q 539 1314 519 1314 q 556 1310 549 1314 q 583 1288 564 1306 q 617 1253 594 1276 q 670 1201 640 1231 q 731 1138 700 1171 q 792 1076 763 1106 q 708 1076 756 1076 q 625 1076 661 1076 q 603 1079 610 1076 q 586 1090 597 1082 q 525 1140 564 1107 q 429 1228 486 1174 l 501 1199 q 456 1199 479 1199 q 410 1199 433 1199 l 481 1229 q 383 1142 426 1179 q 306 1076 340 1106 l 147 1076 q 138 1077 142 1076 q 133 1081 135 1078 q 132 1086 132 1083 q 137 1097 132 1092 q 161 1122 142 1103 q 203 1166 179 1142 q 255 1217 228 1190 q 306 1270 282 1244 q 350 1314 331 1296 z "},"Ċ":{"ha":833,"x_min":75,"x_max":758,"o":"m 333 1292 q 388 1292 360 1292 q 446 1292 417 1292 q 503 1292 475 1292 q 558 1292 532 1292 q 569 1288 565 1292 q 574 1276 574 1283 l 574 1097 q 519 1097 547 1097 q 461 1097 490 1097 q 403 1097 432 1097 q 349 1097 375 1097 q 338 1101 342 1097 q 333 1113 333 1106 l 333 1292 m 474 -28 q 299 -2 374 -28 q 174 72 224 24 q 99 192 124 121 q 75 353 75 263 l 75 633 q 100 783 75 715 q 174 899 125 850 q 295 974 224 947 q 458 1000 367 1000 q 585 987 529 1000 q 681 953 642 974 q 743 911 721 933 q 747 904 746 908 q 749 896 749 900 q 750 888 750 892 q 750 770 750 836 q 750 644 750 704 q 669 644 710 644 q 589 644 629 644 q 578 649 582 644 q 574 660 574 653 q 574 710 574 685 q 574 766 574 735 q 574 839 574 797 l 613 781 q 540 812 578 803 q 456 821 503 821 q 359 801 400 821 q 297 738 318 781 q 275 628 275 694 l 275 368 q 287 263 275 306 q 326 193 299 221 q 390 158 351 168 q 475 147 428 147 q 610 165 551 147 q 732 224 668 183 l 758 224 q 758 185 758 204 q 758 148 758 167 q 758 110 758 129 q 758 71 758 92 q 756 58 758 64 q 750 50 754 53 q 690 12 731 29 q 594 -17 650 -6 q 474 -28 539 -28 z "},"Č":{"ha":833,"x_min":75,"x_max":775,"o":"m 557 1076 q 500 1076 538 1076 q 425 1076 463 1076 q 368 1076 388 1076 q 351 1081 358 1076 q 324 1103 343 1085 q 290 1138 313 1114 q 237 1191 267 1161 q 176 1253 207 1221 q 115 1315 144 1285 q 199 1315 151 1314 q 282 1315 247 1315 q 303 1313 297 1315 q 321 1301 310 1310 q 382 1251 343 1283 q 478 1164 421 1218 l 406 1193 q 452 1193 429 1193 q 497 1193 475 1193 l 426 1161 q 524 1249 481 1213 q 601 1315 568 1286 l 760 1315 q 769 1314 765 1315 q 774 1310 772 1313 q 775 1306 775 1308 q 771 1294 775 1300 q 746 1268 767 1288 q 703 1226 728 1251 q 653 1174 679 1201 q 601 1121 626 1146 q 557 1076 576 1096 m 474 -28 q 299 -2 374 -28 q 174 72 224 24 q 99 192 124 121 q 75 353 75 263 l 75 633 q 100 783 75 715 q 174 899 125 850 q 295 974 224 947 q 458 1000 367 1000 q 585 987 529 1000 q 681 953 642 974 q 743 911 721 933 q 747 904 746 908 q 749 896 749 900 q 750 888 750 892 q 750 770 750 836 q 750 644 750 704 q 669 644 710 644 q 589 644 629 644 q 578 649 582 644 q 574 660 574 653 q 574 710 574 685 q 574 766 574 735 q 574 839 574 797 l 613 781 q 540 812 578 803 q 456 821 503 821 q 359 801 400 821 q 297 738 318 781 q 275 628 275 694 l 275 368 q 287 263 275 306 q 326 193 299 221 q 390 158 351 168 q 475 147 428 147 q 610 165 551 147 q 732 224 668 183 l 758 224 q 758 185 758 204 q 758 148 758 167 q 758 110 758 129 q 758 71 758 92 q 756 58 758 64 q 750 50 754 53 q 690 12 731 29 q 594 -17 650 -6 q 474 -28 539 -28 z "},"Ḉ":{"ha":833,"x_min":75,"x_max":758,"o":"m 474 -28 q 299 -2 374 -28 q 174 72 224 24 q 99 192 124 121 q 75 353 75 263 l 75 633 q 100 783 75 715 q 174 899 125 850 q 295 974 224 947 q 458 1000 367 1000 q 585 987 529 1000 q 681 953 642 974 q 743 911 721 933 q 747 904 746 908 q 749 896 749 900 q 750 888 750 892 q 750 770 750 836 q 750 644 750 704 q 669 644 710 644 q 589 644 629 644 q 578 649 582 644 q 574 660 574 653 q 574 710 574 685 q 574 766 574 735 q 574 839 574 797 l 613 781 q 540 812 578 803 q 456 821 503 821 q 359 801 400 821 q 297 738 318 781 q 275 628 275 694 l 275 368 q 287 263 275 306 q 326 193 299 221 q 390 158 351 168 q 475 147 428 147 q 610 165 551 147 q 732 224 668 183 l 758 224 q 758 185 758 204 q 758 148 758 167 q 758 110 758 129 q 758 71 758 92 q 756 58 758 64 q 750 50 754 53 q 690 12 731 29 q 594 -17 650 -6 q 474 -28 539 -28 m 607 -176 q 556 -299 607 -257 q 403 -342 506 -342 q 323 -336 351 -342 q 283 -320 294 -331 q 271 -297 271 -310 q 271 -256 271 -276 q 271 -217 271 -236 q 271 -183 271 -199 l 288 -183 q 326 -197 306 -192 q 375 -203 347 -203 q 423 -191 403 -203 q 443 -151 443 -179 q 424 -112 443 -125 q 369 -99 406 -99 q 358 -93 363 -99 q 357 -79 354 -87 q 372 -43 365 -60 q 384 -10 378 -26 q 397 20 390 6 q 408 50 403 35 q 419 63 413 58 q 442 69 425 67 q 496 71 460 71 q 488 44 492 58 q 482 16 485 29 q 476 -9 479 3 q 469 -31 472 -21 l 467 -44 q 569 -81 531 -46 q 607 -176 607 -115 m 513 1314 q 595 1314 565 1314 q 652 1314 625 1314 q 722 1314 679 1314 q 733 1308 731 1314 q 731 1294 736 1301 q 685 1243 704 1265 q 647 1199 665 1221 q 603 1151 628 1178 q 543 1085 579 1125 q 535 1079 540 1082 q 521 1076 529 1076 q 458 1076 482 1076 q 414 1076 433 1076 q 371 1076 394 1076 q 419 1157 396 1119 q 465 1233 442 1194 q 513 1314 489 1272 z "},"D":{"ha":833,"x_min":42,"x_max":749,"o":"m 749 332 q 726 193 749 256 q 660 88 704 131 q 555 23 617 46 q 417 0 493 0 q 351 0 386 0 q 281 0 317 0 q 213 0 246 0 q 157 0 181 0 q 125 0 133 0 q 114 4 118 0 q 110 15 110 8 q 110 230 110 122 q 110 445 110 338 q 110 660 110 553 q 110 875 110 768 l 317 875 l 304 844 q 304 769 304 807 q 304 696 304 732 q 304 563 304 629 q 304 431 304 496 q 304 299 304 365 q 304 167 304 232 q 338 167 321 167 q 372 167 356 167 q 406 167 389 167 q 493 184 461 167 q 540 238 525 201 q 554 332 554 275 l 554 640 q 550 697 554 672 q 538 740 546 721 q 518 771 531 758 q 490 791 506 783 q 453 802 474 799 q 406 806 432 806 q 319 806 363 806 q 231 806 275 806 q 144 806 188 806 q 57 806 100 806 q 49 808 53 806 q 44 813 46 810 q 42 821 42 817 q 42 897 42 858 q 42 972 42 935 q 130 972 85 972 q 222 972 175 972 q 318 972 269 972 q 415 972 367 972 q 555 949 493 972 q 660 884 617 926 q 726 780 704 842 q 749 642 749 718 l 749 332 z "},"Ď":{"ha":833,"x_min":42,"x_max":749,"o":"m 504 1076 q 448 1076 486 1076 q 372 1076 410 1076 q 315 1076 335 1076 q 298 1081 306 1076 q 272 1103 290 1085 q 238 1138 261 1114 q 185 1191 215 1161 q 124 1253 156 1221 q 64 1315 93 1285 q 147 1315 99 1314 q 231 1315 194 1315 q 252 1313 246 1315 q 269 1301 258 1310 q 329 1251 290 1283 q 426 1164 368 1218 l 353 1193 q 399 1193 376 1193 q 444 1193 422 1193 l 375 1161 q 472 1249 428 1213 q 549 1315 515 1286 l 707 1315 q 717 1314 714 1315 q 722 1310 721 1313 q 724 1306 724 1308 q 719 1294 724 1300 q 694 1268 714 1288 q 652 1226 676 1251 q 601 1174 628 1201 q 549 1121 574 1146 q 504 1076 524 1096 m 749 332 q 726 193 749 256 q 660 88 704 131 q 555 23 617 46 q 417 0 493 0 q 351 0 386 0 q 281 0 317 0 q 213 0 246 0 q 157 0 181 0 q 125 0 133 0 q 114 4 118 0 q 110 15 110 8 q 110 230 110 122 q 110 445 110 338 q 110 660 110 553 q 110 875 110 768 l 317 875 l 304 844 q 304 769 304 807 q 304 696 304 732 q 304 563 304 629 q 304 431 304 496 q 304 299 304 365 q 304 167 304 232 q 338 167 321 167 q 372 167 356 167 q 406 167 389 167 q 493 184 461 167 q 540 238 525 201 q 554 332 554 275 l 554 640 q 550 697 554 672 q 538 740 546 721 q 518 771 531 758 q 490 791 506 783 q 453 802 474 799 q 406 806 432 806 q 319 806 363 806 q 231 806 275 806 q 144 806 188 806 q 57 806 100 806 q 49 808 53 806 q 44 813 46 810 q 42 821 42 817 q 42 897 42 858 q 42 972 42 935 q 130 972 85 972 q 222 972 175 972 q 318 972 269 972 q 415 972 367 972 q 555 949 493 972 q 660 884 617 926 q 726 780 704 842 q 749 642 749 718 l 749 332 z "},"Ḍ":{"ha":833,"x_min":42,"x_max":749,"o":"m 294 -139 q 347 -139 321 -139 q 401 -139 374 -139 q 455 -139 428 -139 q 508 -139 482 -139 q 519 -143 515 -139 q 524 -154 524 -147 l 524 -333 q 470 -333 497 -333 q 416 -333 443 -333 q 363 -333 389 -333 q 310 -333 336 -333 q 299 -329 303 -333 q 294 -318 294 -325 l 294 -139 m 749 332 q 726 193 749 256 q 660 88 704 131 q 555 23 617 46 q 417 0 493 0 q 351 0 386 0 q 281 0 317 0 q 213 0 246 0 q 157 0 181 0 q 125 0 133 0 q 114 4 118 0 q 110 15 110 8 q 110 230 110 122 q 110 445 110 338 q 110 660 110 553 q 110 875 110 768 l 317 875 l 304 844 q 304 769 304 807 q 304 696 304 732 q 304 563 304 629 q 304 431 304 496 q 304 299 304 365 q 304 167 304 232 q 338 167 321 167 q 372 167 356 167 q 406 167 389 167 q 493 184 461 167 q 540 238 525 201 q 554 332 554 275 l 554 640 q 550 697 554 672 q 538 740 546 721 q 518 771 531 758 q 490 791 506 783 q 453 802 474 799 q 406 806 432 806 q 319 806 363 806 q 231 806 275 806 q 144 806 188 806 q 57 806 100 806 q 49 808 53 806 q 44 813 46 810 q 42 821 42 817 q 42 897 42 858 q 42 972 42 935 q 130 972 85 972 q 222 972 175 972 q 318 972 269 972 q 415 972 367 972 q 555 949 493 972 q 660 884 617 926 q 726 780 704 842 q 749 642 749 718 l 749 332 z "},"Ḏ":{"ha":833,"x_min":42,"x_max":749,"o":"m 160 -86 l 642 -86 q 653 -90 649 -86 q 657 -101 657 -94 q 657 -148 657 -125 q 657 -194 657 -171 q 657 -242 657 -217 l 175 -242 q 167 -240 171 -242 q 162 -234 164 -237 q 160 -226 160 -231 q 160 -178 160 -201 q 160 -133 160 -156 q 160 -86 160 -110 m 749 332 q 726 193 749 256 q 660 88 704 131 q 555 23 617 46 q 417 0 493 0 q 351 0 386 0 q 281 0 317 0 q 213 0 246 0 q 157 0 181 0 q 125 0 133 0 q 114 4 118 0 q 110 15 110 8 q 110 230 110 122 q 110 445 110 338 q 110 660 110 553 q 110 875 110 768 l 317 875 l 304 844 q 304 769 304 807 q 304 696 304 732 q 304 563 304 629 q 304 431 304 496 q 304 299 304 365 q 304 167 304 232 q 338 167 321 167 q 372 167 356 167 q 406 167 389 167 q 493 184 461 167 q 540 238 525 201 q 554 332 554 275 l 554 640 q 550 697 554 672 q 538 740 546 721 q 518 771 531 758 q 490 791 506 783 q 453 802 474 799 q 406 806 432 806 q 319 806 363 806 q 231 806 275 806 q 144 806 188 806 q 57 806 100 806 q 49 808 53 806 q 44 813 46 810 q 42 821 42 817 q 42 897 42 858 q 42 972 42 935 q 130 972 85 972 q 222 972 175 972 q 318 972 269 972 q 415 972 367 972 q 555 949 493 972 q 660 884 617 926 q 726 780 704 842 q 749 642 749 718 l 749 332 z "},"E":{"ha":833,"x_min":42,"x_max":749,"o":"m 42 972 l 732 972 q 742 970 739 972 q 747 965 744 968 q 749 957 749 963 q 749 880 749 914 q 749 803 749 846 l 57 803 q 49 805 53 803 q 44 810 46 807 q 42 818 42 814 q 42 896 42 861 q 42 972 42 931 m 233 571 l 651 571 q 660 569 657 571 q 665 564 663 567 q 667 556 667 561 q 667 501 667 526 q 667 454 667 476 q 667 407 667 432 l 233 407 l 233 571 m 125 0 q 118 1 121 0 q 113 3 115 1 q 110 8 111 6 q 110 15 110 11 q 110 124 110 53 q 110 288 110 196 q 110 483 110 381 q 110 685 110 585 q 110 871 110 786 l 319 871 l 310 840 q 310 775 310 808 q 310 708 310 742 q 310 576 310 644 q 310 440 310 508 q 310 303 310 372 q 310 169 310 235 l 732 169 q 744 165 739 169 q 749 154 749 161 q 749 77 749 114 q 749 0 749 40 l 125 0 z "},"È":{"ha":833,"x_min":42,"x_max":749,"o":"m 42 972 l 732 972 q 742 970 739 972 q 747 965 744 968 q 749 957 749 963 q 749 880 749 914 q 749 803 749 846 l 57 803 q 49 805 53 803 q 44 810 46 807 q 42 818 42 814 q 42 896 42 861 q 42 972 42 931 m 233 571 l 651 571 q 660 569 657 571 q 665 564 663 567 q 667 556 667 561 q 667 501 667 526 q 667 454 667 476 q 667 407 667 432 l 233 407 l 233 571 m 125 0 q 118 1 121 0 q 113 3 115 1 q 110 8 111 6 q 110 15 110 11 q 110 124 110 53 q 110 288 110 196 q 110 483 110 381 q 110 685 110 585 q 110 871 110 786 l 319 871 l 310 840 q 310 775 310 808 q 310 708 310 742 q 310 576 310 644 q 310 440 310 508 q 310 303 310 372 q 310 169 310 235 l 732 169 q 744 165 739 169 q 749 154 749 161 q 749 77 749 114 q 749 0 749 40 l 125 0 m 358 1314 q 406 1233 383 1272 q 452 1157 429 1194 q 499 1076 475 1119 q 456 1076 475 1076 q 412 1076 436 1076 q 349 1076 388 1076 q 335 1079 340 1076 q 326 1085 329 1082 q 266 1151 290 1125 q 223 1199 242 1178 q 184 1243 204 1221 q 138 1294 164 1265 q 135 1308 132 1301 q 147 1314 139 1314 q 219 1314 192 1314 q 276 1314 246 1314 q 358 1314 307 1314 z "},"É":{"ha":833,"x_min":42,"x_max":749,"o":"m 42 972 l 732 972 q 742 970 739 972 q 747 965 744 968 q 749 957 749 963 q 749 880 749 914 q 749 803 749 846 l 57 803 q 49 805 53 803 q 44 810 46 807 q 42 818 42 814 q 42 896 42 861 q 42 972 42 931 m 233 571 l 651 571 q 660 569 657 571 q 665 564 663 567 q 667 556 667 561 q 667 501 667 526 q 667 454 667 476 q 667 407 667 432 l 233 407 l 233 571 m 125 0 q 118 1 121 0 q 113 3 115 1 q 110 8 111 6 q 110 15 110 11 q 110 124 110 53 q 110 288 110 196 q 110 483 110 381 q 110 685 110 585 q 110 871 110 786 l 319 871 l 310 840 q 310 775 310 808 q 310 708 310 742 q 310 576 310 644 q 310 440 310 508 q 310 303 310 372 q 310 169 310 235 l 732 169 q 744 165 739 169 q 749 154 749 161 q 749 77 749 114 q 749 0 749 40 l 125 0 m 476 1314 q 559 1314 529 1314 q 616 1314 589 1314 q 686 1314 643 1314 q 697 1308 694 1314 q 694 1294 700 1301 q 649 1243 668 1265 q 610 1199 629 1221 q 567 1151 592 1178 q 507 1085 543 1125 q 499 1079 504 1082 q 485 1076 493 1076 q 422 1076 446 1076 q 378 1076 397 1076 q 335 1076 358 1076 q 383 1157 360 1119 q 429 1233 406 1194 q 476 1314 453 1272 z "},"Ê":{"ha":833,"x_min":42,"x_max":756,"o":"m 42 972 l 732 972 q 742 970 739 972 q 747 965 744 968 q 749 957 749 963 q 749 880 749 914 q 749 803 749 846 l 57 803 q 49 805 53 803 q 44 810 46 807 q 42 818 42 814 q 42 896 42 861 q 42 972 42 931 m 233 571 l 651 571 q 660 569 657 571 q 665 564 663 567 q 667 556 667 561 q 667 501 667 526 q 667 454 667 476 q 667 407 667 432 l 233 407 l 233 571 m 125 0 q 118 1 121 0 q 113 3 115 1 q 110 8 111 6 q 110 15 110 11 q 110 124 110 53 q 110 288 110 196 q 110 483 110 381 q 110 685 110 585 q 110 871 110 786 l 319 871 l 310 840 q 310 775 310 808 q 310 708 310 742 q 310 576 310 644 q 310 440 310 508 q 310 303 310 372 q 310 169 310 235 l 732 169 q 744 165 739 169 q 749 154 749 161 q 749 77 749 114 q 749 0 749 40 l 125 0 m 314 1314 q 372 1314 335 1314 q 447 1314 410 1314 q 503 1314 483 1314 q 520 1310 513 1314 q 547 1288 528 1306 q 581 1253 558 1276 q 634 1201 604 1231 q 695 1138 664 1171 q 756 1076 726 1106 q 672 1076 719 1076 q 589 1076 625 1076 q 567 1079 574 1076 q 550 1090 561 1082 q 489 1140 528 1107 q 393 1228 450 1174 l 465 1199 q 420 1199 443 1199 q 374 1199 397 1199 l 444 1229 q 347 1142 390 1179 q 269 1076 304 1106 l 111 1076 q 102 1077 106 1076 q 97 1081 99 1078 q 96 1086 96 1083 q 101 1097 96 1092 q 125 1122 106 1103 q 167 1166 143 1142 q 219 1217 192 1190 q 270 1270 246 1244 q 314 1314 294 1296 z "},"Ë":{"ha":833,"x_min":42,"x_max":749,"o":"m 42 972 l 732 972 q 742 970 739 972 q 747 965 744 968 q 749 957 749 963 q 749 880 749 914 q 749 803 749 846 l 57 803 q 49 805 53 803 q 44 810 46 807 q 42 818 42 814 q 42 896 42 861 q 42 972 42 931 m 233 571 l 651 571 q 660 569 657 571 q 665 564 663 567 q 667 556 667 561 q 667 501 667 526 q 667 454 667 476 q 667 407 667 432 l 233 407 l 233 571 m 125 0 q 118 1 121 0 q 113 3 115 1 q 110 8 111 6 q 110 15 110 11 q 110 124 110 53 q 110 288 110 196 q 110 483 110 381 q 110 685 110 585 q 110 871 110 786 l 319 871 l 310 840 q 310 775 310 808 q 310 708 310 742 q 310 576 310 644 q 310 440 310 508 q 310 303 310 372 q 310 169 310 235 l 732 169 q 744 165 739 169 q 749 154 749 161 q 749 77 749 114 q 749 0 749 40 l 125 0 m 165 1289 q 258 1289 211 1289 q 351 1289 306 1289 q 360 1287 357 1289 q 365 1282 363 1285 q 367 1274 367 1279 l 367 1099 q 274 1099 321 1099 q 181 1099 226 1099 q 173 1101 176 1099 q 167 1106 169 1103 q 165 1114 165 1110 l 165 1289 m 467 1289 q 560 1289 513 1289 q 653 1289 607 1289 q 661 1287 658 1289 q 666 1282 664 1285 q 668 1274 668 1279 l 668 1099 q 575 1099 622 1099 q 482 1099 528 1099 q 474 1101 478 1099 q 469 1106 471 1103 q 467 1114 467 1110 l 467 1289 z "},"Ē":{"ha":833,"x_min":42,"x_max":749,"o":"m 42 972 l 732 972 q 742 970 739 972 q 747 965 744 968 q 749 957 749 963 q 749 880 749 914 q 749 803 749 846 l 57 803 q 49 805 53 803 q 44 810 46 807 q 42 818 42 814 q 42 896 42 861 q 42 972 42 931 m 233 571 l 651 571 q 660 569 657 571 q 665 564 663 567 q 667 556 667 561 q 667 501 667 526 q 667 454 667 476 q 667 407 667 432 l 233 407 l 233 571 m 125 0 q 118 1 121 0 q 113 3 115 1 q 110 8 111 6 q 110 15 110 11 q 110 124 110 53 q 110 288 110 196 q 110 483 110 381 q 110 685 110 585 q 110 871 110 786 l 319 871 l 310 840 q 310 775 310 808 q 310 708 310 742 q 310 576 310 644 q 310 440 310 508 q 310 303 310 372 q 310 169 310 235 l 732 169 q 744 165 739 169 q 749 154 749 161 q 749 77 749 114 q 749 0 749 40 l 125 0 m 168 1268 l 650 1268 q 661 1264 657 1268 q 665 1253 665 1260 q 665 1183 665 1217 q 665 1113 665 1149 l 183 1113 q 176 1115 179 1113 q 170 1120 172 1117 q 168 1128 168 1124 q 168 1198 168 1164 q 168 1268 168 1232 z "},"Ĕ":{"ha":833,"x_min":42,"x_max":749,"o":"m 42 972 l 732 972 q 742 970 739 972 q 747 965 744 968 q 749 957 749 963 q 749 880 749 914 q 749 803 749 846 l 57 803 q 49 805 53 803 q 44 810 46 807 q 42 818 42 814 q 42 896 42 861 q 42 972 42 931 m 233 571 l 651 571 q 660 569 657 571 q 665 564 663 567 q 667 556 667 561 q 667 501 667 526 q 667 454 667 476 q 667 407 667 432 l 233 407 l 233 571 m 125 0 q 118 1 121 0 q 113 3 115 1 q 110 8 111 6 q 110 15 110 11 q 110 124 110 53 q 110 288 110 196 q 110 483 110 381 q 110 685 110 585 q 110 871 110 786 l 319 871 l 310 840 q 310 775 310 808 q 310 708 310 742 q 310 576 310 644 q 310 440 310 508 q 310 303 310 372 q 310 169 310 235 l 732 169 q 744 165 739 169 q 749 154 749 161 q 749 77 749 114 q 749 0 749 40 l 125 0 m 546 1315 q 604 1315 575 1315 q 663 1315 633 1315 q 681 1310 676 1315 q 682 1288 685 1304 q 642 1190 674 1236 q 560 1115 610 1143 q 450 1086 511 1086 l 383 1086 q 273 1115 322 1086 q 192 1190 224 1143 q 151 1288 160 1236 q 153 1310 150 1304 q 171 1315 157 1315 q 229 1315 200 1315 q 288 1315 258 1315 q 336 1251 306 1269 q 417 1233 367 1233 q 497 1251 467 1233 q 546 1315 528 1269 z "},"Ė":{"ha":833,"x_min":42,"x_max":749,"o":"m 296 1292 q 351 1292 322 1292 q 409 1292 379 1292 q 467 1292 439 1292 q 522 1292 496 1292 q 533 1288 529 1292 q 538 1276 538 1283 l 538 1097 q 483 1097 511 1097 q 424 1097 454 1097 q 366 1097 394 1097 q 311 1097 338 1097 q 300 1101 304 1097 q 296 1113 296 1106 l 296 1292 m 42 972 l 732 972 q 742 970 739 972 q 747 965 744 968 q 749 957 749 963 q 749 880 749 914 q 749 803 749 846 l 57 803 q 49 805 53 803 q 44 810 46 807 q 42 818 42 814 q 42 896 42 861 q 42 972 42 931 m 233 571 l 651 571 q 660 569 657 571 q 665 564 663 567 q 667 556 667 561 q 667 501 667 526 q 667 454 667 476 q 667 407 667 432 l 233 407 l 233 571 m 125 0 q 118 1 121 0 q 113 3 115 1 q 110 8 111 6 q 110 15 110 11 q 110 124 110 53 q 110 288 110 196 q 110 483 110 381 q 110 685 110 585 q 110 871 110 786 l 319 871 l 310 840 q 310 775 310 808 q 310 708 310 742 q 310 576 310 644 q 310 440 310 508 q 310 303 310 372 q 310 169 310 235 l 732 169 q 744 165 739 169 q 749 154 749 161 q 749 77 749 114 q 749 0 749 40 l 125 0 z "},"Ę":{"ha":833,"x_min":42,"x_max":749,"o":"m 42 972 l 732 972 q 742 970 739 972 q 747 965 744 968 q 749 957 749 963 q 749 880 749 914 q 749 803 749 846 l 57 803 q 49 805 53 803 q 44 810 46 807 q 42 818 42 814 q 42 896 42 861 q 42 972 42 931 m 233 571 l 651 571 q 660 569 657 571 q 665 564 663 567 q 667 556 667 561 q 667 501 667 526 q 667 454 667 476 q 667 407 667 432 l 233 407 l 233 571 m 125 0 q 118 1 121 0 q 113 3 115 1 q 110 8 111 6 q 110 15 110 11 q 110 124 110 53 q 110 288 110 196 q 110 483 110 381 q 110 685 110 585 q 110 871 110 786 l 319 871 l 310 840 q 310 775 310 808 q 310 708 310 742 q 310 576 310 644 q 310 440 310 508 q 310 303 310 372 q 310 169 310 235 l 732 169 q 744 165 739 169 q 749 154 749 161 q 749 77 749 114 q 749 0 749 40 l 125 0 m 663 57 q 699 45 681 57 q 749 0 718 33 q 746 -8 749 -4 q 731 -15 743 -12 q 624 -56 658 -28 q 590 -118 590 -83 q 606 -155 590 -143 q 649 -167 621 -167 q 684 -162 668 -167 q 715 -147 700 -157 l 742 -147 q 742 -176 742 -160 q 742 -219 742 -192 q 742 -299 742 -247 q 708 -333 742 -319 q 628 -347 675 -347 q 478 -301 533 -347 q 424 -172 424 -256 q 461 -49 424 -100 q 553 28 499 1 q 663 57 608 56 z "},"Ě":{"ha":833,"x_min":42,"x_max":749,"o":"m 42 972 l 732 972 q 742 970 739 972 q 747 965 744 968 q 749 957 749 963 q 749 880 749 914 q 749 803 749 846 l 57 803 q 49 805 53 803 q 44 810 46 807 q 42 818 42 814 q 42 896 42 861 q 42 972 42 931 m 233 571 l 651 571 q 660 569 657 571 q 665 564 663 567 q 667 556 667 561 q 667 501 667 526 q 667 454 667 476 q 667 407 667 432 l 233 407 l 233 571 m 125 0 q 118 1 121 0 q 113 3 115 1 q 110 8 111 6 q 110 15 110 11 q 110 124 110 53 q 110 288 110 196 q 110 483 110 381 q 110 685 110 585 q 110 871 110 786 l 319 871 l 310 840 q 310 775 310 808 q 310 708 310 742 q 310 576 310 644 q 310 440 310 508 q 310 303 310 372 q 310 169 310 235 l 732 169 q 744 165 739 169 q 749 154 749 161 q 749 77 749 114 q 749 0 749 40 l 125 0 m 521 1076 q 463 1076 501 1076 q 388 1076 425 1076 q 332 1076 350 1076 q 314 1081 322 1076 q 288 1103 306 1085 q 253 1137 276 1114 q 201 1190 231 1160 q 140 1252 171 1219 q 79 1314 108 1285 q 162 1314 114 1314 q 246 1314 210 1314 q 267 1312 261 1314 q 285 1300 274 1310 q 345 1250 306 1283 q 442 1164 385 1217 l 369 1193 q 415 1193 392 1193 q 460 1193 438 1193 l 390 1161 q 488 1249 444 1213 q 564 1314 531 1286 l 724 1314 q 733 1313 729 1314 q 738 1310 736 1313 q 739 1304 739 1308 q 734 1293 739 1299 q 710 1268 729 1288 q 667 1226 692 1251 q 616 1174 643 1201 q 564 1120 589 1146 q 521 1076 539 1094 z "},"Ȅ":{"ha":833,"x_min":0,"x_max":749,"o":"m 225 1315 q 274 1235 251 1274 q 319 1158 296 1196 q 367 1078 343 1121 q 323 1078 343 1078 q 279 1078 303 1078 q 217 1078 256 1078 q 202 1081 208 1078 q 193 1086 196 1083 q 133 1153 157 1126 q 90 1201 108 1179 q 51 1244 71 1222 q 6 1296 32 1267 q 3 1309 0 1303 q 14 1315 6 1315 q 85 1315 58 1315 q 143 1315 113 1315 q 225 1315 174 1315 m 521 1315 q 569 1235 546 1274 q 615 1158 592 1196 q 663 1078 638 1121 q 618 1078 638 1078 q 575 1078 599 1078 q 511 1078 551 1078 q 497 1081 503 1078 q 489 1086 492 1083 q 428 1153 453 1126 q 385 1201 404 1179 q 347 1244 367 1222 q 300 1296 326 1267 q 298 1309 294 1303 q 310 1315 301 1315 q 382 1315 354 1315 q 440 1315 410 1315 q 521 1315 469 1315 m 42 972 l 732 972 q 742 970 739 972 q 747 965 744 968 q 749 957 749 963 q 749 881 749 915 q 749 803 749 846 l 57 803 q 49 805 53 803 q 44 810 46 807 q 42 818 42 814 q 42 896 42 861 q 42 972 42 931 m 233 571 l 651 571 q 660 569 657 571 q 665 564 663 567 q 667 556 667 561 q 667 501 667 526 q 667 454 667 476 q 667 407 667 432 l 233 407 l 233 571 m 125 0 q 118 1 121 0 q 113 3 115 1 q 110 8 111 6 q 110 15 110 11 q 110 124 110 53 q 110 288 110 196 q 110 483 110 381 q 110 685 110 585 q 110 871 110 786 l 319 871 l 310 840 q 310 775 310 808 q 310 708 310 742 q 310 576 310 644 q 310 440 310 508 q 310 303 310 372 q 310 169 310 235 l 732 169 q 744 165 739 169 q 749 154 749 161 q 749 77 749 114 q 749 0 749 40 l 125 0 z "},"Ȇ":{"ha":833,"x_min":42,"x_max":749,"o":"m 42 972 l 732 972 q 742 970 739 972 q 747 965 744 968 q 749 957 749 963 q 749 880 749 914 q 749 803 749 846 l 57 803 q 49 805 53 803 q 44 810 46 807 q 42 818 42 814 q 42 896 42 861 q 42 972 42 931 m 233 571 l 651 571 q 660 569 657 571 q 665 564 663 567 q 667 556 667 561 q 667 501 667 526 q 667 454 667 476 q 667 407 667 432 l 233 407 l 233 571 m 125 0 q 118 1 121 0 q 113 3 115 1 q 110 8 111 6 q 110 15 110 11 q 110 124 110 53 q 110 288 110 196 q 110 483 110 381 q 110 685 110 585 q 110 871 110 786 l 319 871 l 310 840 q 310 775 310 808 q 310 708 310 742 q 310 576 310 644 q 310 440 310 508 q 310 303 310 372 q 310 169 310 235 l 732 169 q 744 165 739 169 q 749 154 749 161 q 749 77 749 114 q 749 0 749 40 l 125 0 m 288 1083 q 229 1083 258 1083 q 171 1083 200 1083 q 153 1088 157 1083 q 151 1110 150 1093 q 192 1208 160 1163 q 273 1283 224 1254 q 383 1313 322 1313 l 450 1313 q 560 1283 511 1313 q 642 1208 610 1254 q 682 1110 674 1163 q 681 1088 685 1093 q 663 1083 676 1083 q 604 1083 633 1083 q 546 1083 575 1083 q 497 1146 528 1128 q 417 1164 467 1164 q 336 1146 367 1164 q 288 1083 306 1128 z "},"Ḕ":{"ha":833,"x_min":42,"x_max":749,"o":"m 42 972 l 732 972 q 742 970 739 972 q 747 965 744 968 q 749 957 749 963 q 749 880 749 914 q 749 803 749 846 l 57 803 q 49 805 53 803 q 44 810 46 807 q 42 818 42 814 q 42 896 42 861 q 42 972 42 931 m 233 571 l 651 571 q 660 569 657 571 q 665 564 663 567 q 667 556 667 561 q 667 501 667 526 q 667 454 667 476 q 667 407 667 432 l 233 407 l 233 571 m 125 0 q 118 1 121 0 q 113 3 115 1 q 110 8 111 6 q 110 15 110 11 q 110 124 110 53 q 110 288 110 196 q 110 483 110 381 q 110 685 110 585 q 110 871 110 786 l 319 871 l 310 840 q 310 775 310 808 q 310 708 310 742 q 310 576 310 644 q 310 440 310 508 q 310 303 310 372 q 310 169 310 235 l 732 169 q 744 165 739 169 q 749 154 749 161 q 749 77 749 114 q 749 0 749 40 l 125 0 m 168 1268 l 650 1268 q 661 1264 657 1268 q 665 1253 665 1260 q 665 1183 665 1217 q 665 1113 665 1149 l 183 1113 q 176 1115 179 1113 q 170 1120 172 1117 q 168 1128 168 1124 q 168 1198 168 1164 q 168 1268 168 1232 m 358 1563 q 406 1482 383 1521 q 452 1406 429 1443 q 499 1325 475 1368 q 456 1325 475 1325 q 412 1325 436 1325 q 349 1325 388 1325 q 335 1328 340 1325 q 326 1333 329 1331 q 266 1400 290 1374 q 223 1448 242 1426 q 184 1492 204 1469 q 138 1543 164 1514 q 135 1556 132 1550 q 147 1563 139 1563 q 219 1563 192 1563 q 276 1563 246 1563 q 358 1563 307 1563 z "},"Ḗ":{"ha":833,"x_min":42,"x_max":749,"o":"m 42 972 l 732 972 q 742 970 739 972 q 747 965 744 968 q 749 957 749 963 q 749 880 749 914 q 749 803 749 846 l 57 803 q 49 805 53 803 q 44 810 46 807 q 42 818 42 814 q 42 896 42 861 q 42 972 42 931 m 233 571 l 651 571 q 660 569 657 571 q 665 564 663 567 q 667 556 667 561 q 667 501 667 526 q 667 454 667 476 q 667 407 667 432 l 233 407 l 233 571 m 125 0 q 118 1 121 0 q 113 3 115 1 q 110 8 111 6 q 110 15 110 11 q 110 124 110 53 q 110 288 110 196 q 110 483 110 381 q 110 685 110 585 q 110 871 110 786 l 319 871 l 310 840 q 310 775 310 808 q 310 708 310 742 q 310 576 310 644 q 310 440 310 508 q 310 303 310 372 q 310 169 310 235 l 732 169 q 744 165 739 169 q 749 154 749 161 q 749 77 749 114 q 749 0 749 40 l 125 0 m 168 1268 l 650 1268 q 661 1264 657 1268 q 665 1253 665 1260 q 665 1183 665 1217 q 665 1113 665 1149 l 183 1113 q 176 1115 179 1113 q 170 1120 172 1117 q 168 1128 168 1124 q 168 1198 168 1164 q 168 1268 168 1232 m 476 1563 q 559 1563 529 1563 q 616 1563 589 1563 q 686 1563 643 1563 q 697 1556 694 1563 q 694 1543 700 1550 q 649 1492 668 1514 q 610 1448 629 1469 q 567 1400 592 1426 q 507 1333 543 1374 q 499 1328 504 1331 q 485 1325 493 1325 q 422 1325 446 1325 q 378 1325 397 1325 q 335 1325 358 1325 q 383 1406 360 1368 q 429 1482 406 1443 q 476 1563 453 1521 z "},"Ḝ":{"ha":833,"x_min":42,"x_max":749,"o":"m 42 972 l 732 972 q 742 970 739 972 q 747 965 744 968 q 749 957 749 963 q 749 880 749 914 q 749 803 749 846 l 57 803 q 49 805 53 803 q 44 810 46 807 q 42 818 42 814 q 42 896 42 861 q 42 972 42 931 m 233 571 l 651 571 q 660 569 657 571 q 665 564 663 567 q 667 556 667 561 q 667 501 667 526 q 667 454 667 476 q 667 407 667 432 l 233 407 l 233 571 m 125 0 q 118 1 121 0 q 113 3 115 1 q 110 8 111 6 q 110 15 110 11 q 110 124 110 53 q 110 288 110 196 q 110 483 110 381 q 110 685 110 585 q 110 871 110 786 l 319 871 l 310 840 q 310 775 310 808 q 310 708 310 742 q 310 576 310 644 q 310 440 310 508 q 310 303 310 372 q 310 169 310 235 l 732 169 q 744 165 739 169 q 749 154 749 161 q 749 77 749 114 q 749 0 749 40 l 125 0 m 604 -178 q 553 -301 604 -258 q 400 -343 503 -343 q 320 -337 349 -343 q 280 -322 292 -332 q 268 -299 268 -311 q 268 -258 268 -278 q 268 -219 268 -237 q 268 -185 268 -200 l 285 -185 q 324 -199 303 -193 q 372 -204 344 -204 q 420 -192 400 -204 q 440 -153 440 -181 q 422 -113 440 -126 q 367 -100 403 -100 q 356 -94 360 -100 q 354 -81 351 -89 q 369 -44 363 -61 q 381 -12 375 -28 q 394 19 388 4 q 406 49 400 33 q 416 61 410 57 q 440 67 422 65 q 493 69 457 69 q 485 42 489 57 q 479 15 482 28 q 473 -10 476 1 q 467 -32 469 -22 l 464 -46 q 566 -82 528 -47 q 604 -178 604 -117 m 546 1315 q 604 1315 575 1315 q 663 1315 633 1315 q 681 1310 676 1315 q 682 1288 685 1304 q 642 1190 674 1236 q 560 1115 610 1143 q 450 1086 511 1086 l 383 1086 q 273 1115 322 1086 q 192 1190 224 1143 q 151 1288 160 1236 q 153 1310 150 1304 q 171 1315 157 1315 q 229 1315 200 1315 q 288 1315 258 1315 q 336 1251 306 1269 q 417 1233 367 1233 q 497 1251 467 1233 q 546 1315 528 1269 z "},"Ẹ":{"ha":833,"x_min":42,"x_max":749,"o":"m 42 972 l 732 972 q 742 970 739 972 q 747 965 744 968 q 749 957 749 963 q 749 880 749 914 q 749 803 749 846 l 57 803 q 49 805 53 803 q 44 810 46 807 q 42 818 42 814 q 42 896 42 861 q 42 972 42 931 m 233 571 l 651 571 q 660 569 657 571 q 665 564 663 567 q 667 556 667 561 q 667 501 667 526 q 667 454 667 476 q 667 407 667 432 l 233 407 l 233 571 m 125 0 q 118 1 121 0 q 113 3 115 1 q 110 8 111 6 q 110 15 110 11 q 110 124 110 53 q 110 288 110 196 q 110 483 110 381 q 110 685 110 585 q 110 871 110 786 l 319 871 l 310 840 q 310 775 310 808 q 310 708 310 742 q 310 576 310 644 q 310 440 310 508 q 310 303 310 372 q 310 169 310 235 l 732 169 q 744 165 739 169 q 749 154 749 161 q 749 77 749 114 q 749 0 749 40 l 125 0 m 329 -139 q 383 -139 357 -139 q 437 -139 410 -139 q 490 -139 464 -139 q 544 -139 517 -139 q 556 -143 551 -139 q 560 -154 560 -147 l 560 -333 q 506 -333 532 -333 q 452 -333 479 -333 q 399 -333 425 -333 q 344 -333 372 -333 q 333 -329 338 -333 q 329 -318 329 -325 l 329 -139 z "},"Ẻ":{"ha":833,"x_min":42,"x_max":749,"o":"m 42 972 l 732 972 q 742 970 739 972 q 747 965 744 968 q 749 957 749 963 q 749 880 749 914 q 749 803 749 846 l 57 803 q 49 805 53 803 q 44 810 46 807 q 42 818 42 814 q 42 896 42 861 q 42 972 42 931 m 233 571 l 651 571 q 660 569 657 571 q 665 564 663 567 q 667 556 667 561 q 667 501 667 526 q 667 454 667 476 q 667 407 667 432 l 233 407 l 233 571 m 125 0 q 118 1 121 0 q 113 3 115 1 q 110 8 111 6 q 110 15 110 11 q 110 124 110 53 q 110 288 110 196 q 110 483 110 381 q 110 685 110 585 q 110 871 110 786 l 319 871 l 310 840 q 310 775 310 808 q 310 708 310 742 q 310 576 310 644 q 310 440 310 508 q 310 303 310 372 q 310 169 310 235 l 732 169 q 744 165 739 169 q 749 154 749 161 q 749 77 749 114 q 749 0 749 40 l 125 0 m 333 1071 q 353 1095 343 1083 q 372 1122 363 1107 q 390 1146 382 1133 q 408 1172 399 1158 q 408 1179 408 1175 q 408 1189 408 1183 q 384 1189 399 1189 q 357 1189 369 1189 q 319 1189 344 1189 q 275 1189 293 1189 l 244 1189 q 244 1250 244 1224 q 244 1299 244 1276 q 249 1310 244 1306 q 260 1314 253 1314 q 317 1314 279 1314 q 400 1314 356 1314 q 486 1314 444 1314 q 556 1314 528 1314 q 565 1313 561 1314 q 570 1308 568 1311 q 572 1299 572 1304 l 572 1190 q 556 1167 572 1189 q 517 1118 539 1146 q 488 1084 503 1101 q 461 1053 474 1067 q 419 1053 443 1053 q 374 1053 396 1053 q 338 1053 351 1053 q 328 1058 328 1053 q 333 1071 328 1064 z "},"Ẽ":{"ha":833,"x_min":42,"x_max":749,"o":"m 42 972 l 732 972 q 742 970 739 972 q 747 965 744 968 q 749 957 749 963 q 749 880 749 914 q 749 803 749 846 l 57 803 q 49 805 53 803 q 44 810 46 807 q 42 818 42 814 q 42 896 42 861 q 42 972 42 931 m 233 571 l 651 571 q 660 569 657 571 q 665 564 663 567 q 667 556 667 561 q 667 501 667 526 q 667 454 667 476 q 667 407 667 432 l 233 407 l 233 571 m 125 0 q 118 1 121 0 q 113 3 115 1 q 110 8 111 6 q 110 15 110 11 q 110 124 110 53 q 110 288 110 196 q 110 483 110 381 q 110 685 110 585 q 110 871 110 786 l 319 871 l 310 840 q 310 775 310 808 q 310 708 310 742 q 310 576 310 644 q 310 440 310 508 q 310 303 310 372 q 310 169 310 235 l 732 169 q 744 165 739 169 q 749 154 749 161 q 749 77 749 114 q 749 0 749 40 l 125 0 m 564 1229 q 624 1242 597 1229 q 672 1286 650 1256 l 699 1286 q 699 1218 699 1251 q 699 1157 699 1185 q 697 1140 699 1146 q 689 1128 696 1135 q 635 1090 667 1104 q 557 1076 604 1076 q 475 1088 513 1076 q 404 1115 438 1100 q 338 1142 371 1131 q 269 1154 306 1154 q 210 1140 236 1154 q 161 1097 183 1126 l 135 1097 q 135 1165 135 1132 q 135 1226 135 1199 q 136 1242 135 1236 q 144 1257 138 1249 q 198 1294 167 1281 q 276 1308 229 1308 q 358 1296 321 1308 q 429 1269 396 1283 q 495 1242 463 1254 q 564 1229 528 1229 z "},"Ế":{"ha":833,"x_min":42,"x_max":974,"o":"m 42 972 l 732 972 q 742 970 739 972 q 747 965 744 968 q 749 957 749 963 q 749 880 749 914 q 749 803 749 846 l 57 803 q 49 805 53 803 q 44 810 46 807 q 42 818 42 814 q 42 896 42 861 q 42 972 42 931 m 233 571 l 651 571 q 660 569 657 571 q 665 564 663 567 q 667 556 667 561 q 667 501 667 526 q 667 454 667 476 q 667 407 667 432 l 233 407 l 233 571 m 125 0 q 118 1 121 0 q 113 3 115 1 q 110 8 111 6 q 110 15 110 11 q 110 124 110 53 q 110 288 110 196 q 110 483 110 381 q 110 685 110 585 q 110 871 110 786 l 319 871 l 310 840 q 310 775 310 808 q 310 708 310 742 q 310 576 310 644 q 310 440 310 508 q 310 303 310 372 q 310 169 310 235 l 732 169 q 744 165 739 169 q 749 154 749 161 q 749 77 749 114 q 749 0 749 40 l 125 0 m 314 1314 q 372 1314 335 1314 q 447 1314 410 1314 q 503 1314 483 1314 q 520 1310 513 1314 q 547 1288 528 1306 q 581 1253 558 1276 q 634 1201 604 1231 q 695 1138 664 1171 q 756 1076 726 1106 q 672 1076 719 1076 q 589 1076 625 1076 q 567 1079 574 1076 q 550 1090 561 1082 q 489 1140 528 1107 q 393 1228 450 1174 l 465 1199 q 420 1199 443 1199 q 374 1199 397 1199 l 444 1229 q 347 1142 390 1179 q 269 1076 304 1106 l 111 1076 q 102 1077 106 1076 q 97 1081 99 1078 q 96 1086 96 1083 q 101 1097 96 1092 q 125 1122 106 1103 q 167 1166 143 1142 q 219 1217 192 1190 q 270 1270 246 1244 q 314 1314 294 1296 m 782 1471 q 842 1471 811 1471 q 903 1471 872 1471 q 960 1471 933 1471 q 971 1465 968 1471 q 968 1451 974 1458 q 910 1374 939 1413 q 855 1302 882 1336 q 806 1239 828 1268 q 794 1228 800 1231 q 779 1225 788 1225 q 720 1225 742 1225 q 682 1225 699 1225 q 642 1225 665 1225 q 690 1308 667 1268 q 735 1388 713 1347 q 782 1471 758 1429 z "},"Ề":{"ha":833,"x_min":42,"x_max":806,"o":"m 42 972 l 732 972 q 742 970 739 972 q 747 965 744 968 q 749 957 749 963 q 749 880 749 914 q 749 803 749 846 l 57 803 q 49 805 53 803 q 44 810 46 807 q 42 818 42 814 q 42 896 42 861 q 42 972 42 931 m 233 571 l 651 571 q 660 569 657 571 q 665 564 663 567 q 667 556 667 561 q 667 501 667 526 q 667 454 667 476 q 667 407 667 432 l 233 407 l 233 571 m 125 0 q 118 1 121 0 q 113 3 115 1 q 110 8 111 6 q 110 15 110 11 q 110 124 110 53 q 110 288 110 196 q 110 483 110 381 q 110 685 110 585 q 110 871 110 786 l 319 871 l 310 840 q 310 775 310 808 q 310 708 310 742 q 310 576 310 644 q 310 440 310 508 q 310 303 310 372 q 310 169 310 235 l 732 169 q 744 165 739 169 q 749 154 749 161 q 749 77 749 114 q 749 0 749 40 l 125 0 m 314 1314 q 372 1314 335 1314 q 447 1314 410 1314 q 503 1314 483 1314 q 520 1310 513 1314 q 547 1288 528 1306 q 581 1253 558 1276 q 634 1201 604 1231 q 695 1138 664 1171 q 756 1076 726 1106 q 672 1076 719 1076 q 589 1076 625 1076 q 567 1079 574 1076 q 550 1090 561 1082 q 489 1140 528 1107 q 393 1228 450 1174 l 465 1199 q 420 1199 443 1199 q 374 1199 397 1199 l 444 1229 q 347 1142 390 1179 q 269 1076 304 1106 l 111 1076 q 102 1077 106 1076 q 97 1081 99 1078 q 96 1086 96 1083 q 101 1097 96 1092 q 125 1122 106 1103 q 167 1166 143 1142 q 219 1217 192 1190 q 270 1270 246 1244 q 314 1314 294 1296 m 665 1471 q 713 1388 690 1429 q 758 1308 735 1347 q 806 1225 782 1268 q 765 1225 782 1225 q 728 1225 749 1225 q 668 1225 707 1225 q 654 1228 660 1225 q 642 1239 649 1231 q 593 1302 621 1268 q 537 1374 565 1336 q 479 1451 508 1413 q 476 1465 474 1458 q 488 1471 479 1471 q 544 1471 514 1471 q 606 1471 575 1471 q 665 1471 636 1471 z "},"Ể":{"ha":833,"x_min":42,"x_max":879,"o":"m 42 972 l 732 972 q 742 970 739 972 q 747 965 744 968 q 749 957 749 963 q 749 880 749 914 q 749 803 749 846 l 57 803 q 49 805 53 803 q 44 810 46 807 q 42 818 42 814 q 42 896 42 861 q 42 972 42 931 m 233 571 l 651 571 q 660 569 657 571 q 665 564 663 567 q 667 556 667 561 q 667 501 667 526 q 667 454 667 476 q 667 407 667 432 l 233 407 l 233 571 m 125 0 q 118 1 121 0 q 113 3 115 1 q 110 8 111 6 q 110 15 110 11 q 110 124 110 53 q 110 288 110 196 q 110 483 110 381 q 110 685 110 585 q 110 871 110 786 l 319 871 l 310 840 q 310 775 310 808 q 310 708 310 742 q 310 576 310 644 q 310 440 310 508 q 310 303 310 372 q 310 169 310 235 l 732 169 q 744 165 739 169 q 749 154 749 161 q 749 77 749 114 q 749 0 749 40 l 125 0 m 314 1314 q 372 1314 335 1314 q 447 1314 410 1314 q 503 1314 483 1314 q 520 1310 513 1314 q 547 1288 528 1306 q 581 1253 558 1276 q 634 1201 604 1231 q 695 1138 664 1171 q 756 1076 726 1106 q 672 1076 719 1076 q 589 1076 625 1076 q 567 1079 574 1076 q 550 1090 561 1082 q 489 1140 528 1107 q 393 1228 450 1174 l 465 1199 q 420 1199 443 1199 q 374 1199 397 1199 l 444 1229 q 347 1142 390 1179 q 269 1076 304 1106 l 111 1076 q 102 1077 106 1076 q 97 1081 99 1078 q 96 1086 96 1083 q 101 1097 96 1092 q 125 1122 106 1103 q 167 1166 143 1142 q 219 1217 192 1190 q 270 1270 246 1244 q 314 1314 294 1296 m 640 1229 q 660 1253 650 1242 q 679 1281 669 1265 q 697 1304 689 1292 q 715 1331 706 1317 q 715 1338 715 1333 q 715 1347 715 1342 q 691 1347 706 1347 q 664 1347 676 1347 q 626 1347 651 1347 q 582 1347 600 1347 l 551 1347 q 551 1408 551 1382 q 551 1457 551 1435 q 556 1468 551 1464 q 567 1472 560 1472 q 624 1472 586 1472 q 707 1472 663 1472 q 793 1472 751 1472 q 863 1472 835 1472 q 872 1471 868 1472 q 877 1466 875 1469 q 879 1457 879 1463 l 879 1349 q 863 1326 879 1347 q 824 1276 846 1304 q 795 1242 810 1260 q 768 1211 781 1225 q 726 1211 750 1211 q 681 1211 703 1211 q 644 1211 658 1211 q 635 1217 635 1211 q 640 1229 635 1222 z "},"Ễ":{"ha":833,"x_min":42,"x_max":756,"o":"m 42 972 l 732 972 q 742 970 739 972 q 747 965 744 968 q 749 957 749 963 q 749 880 749 914 q 749 803 749 846 l 57 803 q 49 805 53 803 q 44 810 46 807 q 42 818 42 814 q 42 896 42 861 q 42 972 42 931 m 233 571 l 651 571 q 660 569 657 571 q 665 564 663 567 q 667 556 667 561 q 667 501 667 526 q 667 454 667 476 q 667 407 667 432 l 233 407 l 233 571 m 125 0 q 118 1 121 0 q 113 3 115 1 q 110 8 111 6 q 110 15 110 11 q 110 124 110 53 q 110 288 110 196 q 110 483 110 381 q 110 685 110 585 q 110 871 110 786 l 319 871 l 310 840 q 310 775 310 808 q 310 708 310 742 q 310 576 310 644 q 310 440 310 508 q 310 303 310 372 q 310 169 310 235 l 732 169 q 744 165 739 169 q 749 154 749 161 q 749 77 749 114 q 749 0 749 40 l 125 0 m 314 1314 q 372 1314 335 1314 q 447 1314 410 1314 q 503 1314 483 1314 q 520 1310 513 1314 q 547 1288 528 1306 q 581 1253 558 1276 q 634 1201 604 1231 q 695 1138 664 1171 q 756 1076 726 1106 q 672 1076 719 1076 q 589 1076 625 1076 q 567 1079 574 1076 q 550 1090 561 1082 q 489 1140 528 1107 q 393 1228 450 1174 l 465 1199 q 420 1199 443 1199 q 374 1199 397 1199 l 444 1229 q 347 1142 390 1179 q 269 1076 304 1106 l 111 1076 q 102 1077 106 1076 q 97 1081 99 1078 q 96 1086 96 1083 q 101 1097 96 1092 q 125 1122 106 1103 q 167 1166 143 1142 q 219 1217 192 1190 q 270 1270 246 1244 q 314 1314 294 1296 m 535 1479 q 576 1488 560 1479 q 611 1526 592 1497 l 636 1526 q 636 1460 636 1493 q 636 1401 636 1428 q 635 1385 636 1392 q 626 1372 633 1379 q 585 1340 610 1350 q 529 1331 560 1331 q 460 1340 490 1331 q 406 1363 431 1350 q 358 1386 382 1376 q 303 1396 333 1396 q 257 1384 274 1396 q 221 1350 240 1372 l 196 1350 q 196 1415 196 1383 q 196 1474 196 1447 q 197 1489 196 1483 q 206 1503 197 1494 q 247 1533 225 1524 q 304 1543 268 1543 q 364 1533 336 1543 q 417 1511 392 1524 q 472 1489 443 1499 q 535 1479 500 1479 z "},"Ệ":{"ha":833,"x_min":42,"x_max":756,"o":"m 329 -139 q 383 -139 357 -139 q 437 -139 410 -139 q 490 -139 464 -139 q 544 -139 517 -139 q 556 -143 551 -139 q 560 -154 560 -147 l 560 -333 q 506 -333 532 -333 q 452 -333 479 -333 q 399 -333 425 -333 q 344 -333 372 -333 q 333 -329 338 -333 q 329 -318 329 -325 l 329 -139 m 42 972 l 732 972 q 742 970 739 972 q 747 965 744 968 q 749 957 749 963 q 749 880 749 914 q 749 803 749 846 l 57 803 q 49 805 53 803 q 44 810 46 807 q 42 818 42 814 q 42 896 42 861 q 42 972 42 931 m 233 571 l 651 571 q 660 569 657 571 q 665 564 663 567 q 667 556 667 561 q 667 501 667 526 q 667 454 667 476 q 667 407 667 432 l 233 407 l 233 571 m 125 0 q 118 1 121 0 q 113 3 115 1 q 110 8 111 6 q 110 15 110 11 q 110 124 110 53 q 110 288 110 196 q 110 483 110 381 q 110 685 110 585 q 110 871 110 786 l 319 871 l 310 840 q 310 775 310 808 q 310 708 310 742 q 310 576 310 644 q 310 440 310 508 q 310 303 310 372 q 310 169 310 235 l 732 169 q 744 165 739 169 q 749 154 749 161 q 749 77 749 114 q 749 0 749 40 l 125 0 m 314 1315 q 372 1315 335 1315 q 447 1315 410 1315 q 503 1315 483 1315 q 520 1310 513 1315 q 547 1288 528 1306 q 581 1253 558 1276 q 634 1201 604 1231 q 695 1139 664 1171 q 756 1076 726 1107 q 672 1076 719 1076 q 589 1076 625 1076 q 567 1079 574 1076 q 550 1090 561 1082 q 489 1140 528 1107 q 393 1228 450 1174 l 465 1199 q 420 1199 443 1199 q 374 1199 397 1199 l 444 1229 q 347 1142 390 1179 q 269 1076 303 1106 l 111 1076 q 102 1077 106 1076 q 97 1081 99 1078 q 96 1086 96 1083 q 101 1097 96 1092 q 125 1122 106 1103 q 167 1166 143 1142 q 219 1217 192 1190 q 270 1270 246 1244 q 314 1315 294 1296 z "},"F":{"ha":833,"x_min":82,"x_max":749,"o":"m 361 0 q 269 0 315 0 q 176 0 224 0 q 169 2 172 0 q 163 7 165 4 q 161 15 161 10 q 161 233 161 128 q 161 443 161 339 q 161 653 161 547 q 161 869 161 760 l 378 869 l 361 832 q 361 757 361 794 q 361 683 361 719 q 361 502 361 592 q 361 322 361 413 q 361 136 361 232 q 361 65 361 100 q 361 0 361 31 m 82 972 l 732 972 q 741 970 738 972 q 747 965 744 968 q 749 957 749 963 q 749 903 749 928 q 749 856 749 879 q 749 803 749 832 l 99 803 q 90 805 94 803 q 84 810 86 807 q 82 818 82 814 q 82 896 82 861 q 82 972 82 931 m 274 536 l 663 536 q 675 532 671 536 q 679 521 679 528 q 679 465 679 492 q 679 415 679 439 q 679 365 679 392 l 274 365 l 274 536 z "},"G":{"ha":833,"x_min":75,"x_max":786,"o":"m 422 532 l 769 532 q 779 530 776 532 q 784 525 782 528 q 786 517 786 522 l 786 368 l 439 368 q 431 369 433 368 q 426 372 428 369 q 423 376 424 374 q 422 383 422 379 q 422 458 422 421 q 422 532 422 494 m 458 1000 q 551 992 508 1000 q 627 972 593 985 q 686 944 661 960 q 726 913 711 929 q 733 903 732 908 q 735 889 735 897 q 735 828 735 863 q 735 760 735 794 q 735 694 735 726 q 654 694 694 694 q 574 694 614 694 q 563 699 567 694 q 558 710 558 703 q 558 747 558 728 q 558 788 558 765 q 558 842 558 811 l 597 782 q 531 813 564 804 q 456 821 499 821 q 380 810 414 821 q 323 774 346 799 q 288 714 300 750 q 275 628 275 678 l 275 332 q 287 249 275 285 q 321 190 299 213 q 372 158 343 168 q 438 147 401 147 q 504 153 478 147 q 544 165 531 158 q 558 171 558 171 q 558 258 558 215 q 558 344 558 301 q 558 426 558 386 l 742 426 l 735 393 q 735 235 735 321 q 735 68 735 149 q 734 63 735 65 q 731 57 733 60 q 665 16 710 36 q 563 -16 621 -4 q 442 -28 506 -28 q 281 -3 350 -28 q 166 69 211 22 q 98 183 121 117 q 75 331 75 249 l 75 633 q 100 782 75 715 q 174 898 125 849 q 295 974 224 947 q 458 1000 367 1000 z "},"Ĝ":{"ha":833,"x_min":75,"x_max":786,"o":"m 422 532 l 769 532 q 779 530 776 532 q 784 525 782 528 q 786 517 786 522 l 786 368 l 439 368 q 431 369 433 368 q 426 372 428 369 q 423 376 424 374 q 422 383 422 379 q 422 458 422 421 q 422 532 422 494 m 458 1000 q 551 992 508 1000 q 627 972 593 985 q 686 944 661 960 q 726 913 711 929 q 733 903 732 908 q 735 889 735 897 q 735 828 735 863 q 735 760 735 794 q 735 694 735 726 q 654 694 694 694 q 574 694 614 694 q 563 699 567 694 q 558 710 558 703 q 558 747 558 728 q 558 788 558 765 q 558 842 558 811 l 597 782 q 531 813 564 804 q 456 821 499 821 q 380 810 414 821 q 323 774 346 799 q 288 714 300 750 q 275 628 275 678 l 275 332 q 287 249 275 285 q 321 190 299 213 q 372 158 343 168 q 438 147 401 147 q 504 153 478 147 q 544 165 531 158 q 558 171 558 171 q 558 258 558 215 q 558 344 558 301 q 558 426 558 386 l 742 426 l 735 393 q 735 235 735 321 q 735 68 735 149 q 734 63 735 65 q 731 57 733 60 q 665 16 710 36 q 563 -16 621 -4 q 442 -28 506 -28 q 281 -3 350 -28 q 166 69 211 22 q 98 183 121 117 q 75 331 75 249 l 75 633 q 100 782 75 715 q 174 898 125 849 q 295 974 224 947 q 458 1000 367 1000 m 324 1314 q 382 1314 344 1314 q 456 1314 419 1314 q 513 1314 493 1314 q 530 1310 522 1314 q 557 1288 538 1306 q 591 1253 568 1276 q 644 1201 614 1231 q 705 1138 674 1171 q 765 1076 736 1106 q 682 1076 729 1076 q 599 1076 635 1076 q 577 1079 583 1076 q 560 1090 571 1082 q 499 1140 538 1107 q 403 1228 460 1174 l 475 1199 q 430 1199 453 1199 q 383 1199 407 1199 l 454 1229 q 357 1142 400 1179 q 279 1076 314 1106 l 121 1076 q 112 1077 115 1076 q 107 1081 108 1078 q 106 1086 106 1083 q 110 1097 106 1092 q 135 1122 115 1103 q 177 1166 153 1142 q 228 1217 201 1190 q 280 1270 256 1244 q 324 1314 304 1296 z "},"Ğ":{"ha":833,"x_min":75,"x_max":786,"o":"m 422 532 l 769 532 q 779 530 776 532 q 784 525 782 528 q 786 517 786 522 l 786 368 l 439 368 q 431 369 433 368 q 426 372 428 369 q 423 376 424 374 q 422 383 422 379 q 422 458 422 421 q 422 532 422 494 m 458 1000 q 551 992 508 1000 q 627 972 593 985 q 686 944 661 960 q 726 913 711 929 q 733 903 732 908 q 735 889 735 897 q 735 828 735 863 q 735 760 735 794 q 735 694 735 726 q 654 694 694 694 q 574 694 614 694 q 563 699 567 694 q 558 710 558 703 q 558 747 558 728 q 558 788 558 765 q 558 842 558 811 l 597 782 q 531 813 564 804 q 456 821 499 821 q 380 810 414 821 q 323 774 346 799 q 288 714 300 750 q 275 628 275 678 l 275 332 q 287 249 275 285 q 321 190 299 213 q 372 158 343 168 q 438 147 401 147 q 504 153 478 147 q 544 165 531 158 q 558 171 558 171 q 558 258 558 215 q 558 344 558 301 q 558 426 558 386 l 742 426 l 735 393 q 735 235 735 321 q 735 68 735 149 q 734 63 735 65 q 731 57 733 60 q 665 16 710 36 q 563 -16 621 -4 q 442 -28 506 -28 q 281 -3 350 -28 q 166 69 211 22 q 98 183 121 117 q 75 331 75 249 l 75 633 q 100 782 75 715 q 174 898 125 849 q 295 974 224 947 q 458 1000 367 1000 m 556 1315 q 614 1315 585 1315 q 672 1315 643 1315 q 690 1310 686 1315 q 692 1288 694 1304 q 651 1190 683 1236 q 570 1115 619 1143 q 460 1086 521 1086 l 393 1086 q 283 1115 332 1086 q 201 1190 233 1143 q 161 1288 169 1236 q 163 1310 160 1304 q 181 1315 167 1315 q 239 1315 210 1315 q 297 1315 268 1315 q 346 1251 315 1269 q 426 1233 376 1233 q 507 1251 476 1233 q 556 1315 538 1269 z "},"Ġ":{"ha":833,"x_min":75,"x_max":786,"o":"m 307 1292 q 362 1292 333 1292 q 419 1292 390 1292 q 477 1292 449 1292 q 532 1292 506 1292 q 543 1288 539 1292 q 547 1276 547 1283 l 547 1097 q 492 1097 521 1097 q 435 1097 464 1097 q 377 1097 406 1097 q 322 1097 349 1097 q 311 1101 315 1097 q 307 1113 307 1106 l 307 1292 m 422 532 l 769 532 q 779 530 776 532 q 784 525 782 528 q 786 517 786 522 l 786 368 l 438 368 q 431 369 433 368 q 426 372 428 369 q 423 376 424 374 q 422 383 422 379 q 422 458 422 421 q 422 532 422 494 m 458 1000 q 551 992 508 1000 q 627 972 593 985 q 686 944 661 960 q 726 913 711 929 q 733 903 732 908 q 735 889 735 897 q 735 828 735 863 q 735 760 735 794 q 735 694 735 726 q 654 694 694 694 q 574 694 614 694 q 563 699 567 694 q 558 710 558 703 q 558 747 558 728 q 558 788 558 765 q 558 842 558 811 l 597 782 q 531 813 564 804 q 456 821 499 821 q 380 810 414 821 q 323 774 346 799 q 288 714 300 750 q 275 628 275 678 l 275 332 q 287 249 275 285 q 321 190 299 213 q 372 158 343 168 q 438 147 401 147 q 504 153 478 147 q 544 165 531 158 q 558 171 558 171 q 558 258 558 215 q 558 344 558 301 q 558 426 558 386 l 742 426 l 735 393 q 735 235 735 321 q 735 68 735 149 q 734 63 735 65 q 731 57 733 60 q 665 16 710 36 q 563 -16 621 -4 q 442 -28 506 -28 q 281 -3 350 -28 q 166 69 211 22 q 98 183 121 117 q 75 331 75 249 l 75 633 q 100 782 75 715 q 174 898 125 849 q 295 974 224 947 q 458 1000 367 1000 z "},"Ģ":{"ha":833,"x_min":75,"x_max":786,"o":"m 422 532 l 769 532 q 779 530 776 532 q 784 525 782 528 q 786 517 786 522 l 786 368 l 439 368 q 431 369 433 368 q 426 372 428 369 q 423 376 424 374 q 422 383 422 379 q 422 458 422 421 q 422 532 422 494 m 458 1000 q 551 992 508 1000 q 627 972 593 985 q 686 944 661 960 q 726 913 711 929 q 733 903 732 908 q 735 889 735 897 q 735 828 735 863 q 735 760 735 794 q 735 694 735 726 q 654 694 694 694 q 574 694 614 694 q 563 699 567 694 q 558 710 558 703 q 558 747 558 728 q 558 788 558 765 q 558 842 558 811 l 597 782 q 531 813 564 804 q 456 821 499 821 q 380 810 414 821 q 323 774 346 799 q 288 714 300 750 q 275 628 275 678 l 275 332 q 287 249 275 285 q 321 190 299 213 q 372 158 343 168 q 438 147 401 147 q 504 153 478 147 q 544 165 531 158 q 558 171 558 171 q 558 258 558 215 q 558 344 558 301 q 558 426 558 386 l 742 426 l 735 393 q 735 235 735 321 q 735 68 735 149 q 734 63 735 65 q 731 57 733 60 q 665 16 710 36 q 563 -16 621 -4 q 442 -28 506 -28 q 281 -3 350 -28 q 166 69 211 22 q 98 183 121 117 q 75 331 75 249 l 75 633 q 100 782 75 715 q 174 898 125 849 q 295 974 224 947 q 458 1000 367 1000 m 354 -85 q 416 -85 386 -85 q 477 -85 446 -85 q 539 -85 508 -85 q 552 -90 547 -85 q 554 -103 557 -94 q 524 -180 539 -143 q 497 -253 510 -217 q 467 -332 483 -289 q 460 -342 465 -337 q 446 -346 456 -346 q 379 -346 418 -346 q 296 -346 340 -346 q 315 -256 306 -300 q 335 -168 325 -211 q 354 -85 344 -125 z "},"Ǧ":{"ha":833,"x_min":75,"x_max":786,"o":"m 422 532 l 769 532 q 779 530 776 532 q 784 525 782 528 q 786 517 786 522 l 786 368 l 439 368 q 431 369 433 368 q 426 372 428 369 q 423 376 424 374 q 422 383 422 379 q 422 458 422 421 q 422 532 422 494 m 458 1000 q 551 992 508 1000 q 627 972 593 985 q 686 944 661 960 q 726 913 711 929 q 733 903 732 908 q 735 889 735 897 q 735 828 735 863 q 735 760 735 794 q 735 694 735 726 q 654 694 694 694 q 574 694 614 694 q 563 699 567 694 q 558 710 558 703 q 558 747 558 728 q 558 788 558 765 q 558 842 558 811 l 597 782 q 531 813 564 804 q 456 821 499 821 q 380 810 414 821 q 323 774 346 799 q 288 714 300 750 q 275 628 275 678 l 275 332 q 287 249 275 285 q 321 190 299 213 q 372 158 343 168 q 438 147 401 147 q 504 153 478 147 q 544 165 531 158 q 558 171 558 171 q 558 258 558 215 q 558 344 558 301 q 558 426 558 386 l 742 426 l 735 393 q 735 235 735 321 q 735 68 735 149 q 734 63 735 65 q 731 57 733 60 q 665 16 710 36 q 563 -16 621 -4 q 442 -28 506 -28 q 281 -3 350 -28 q 166 69 211 22 q 98 183 121 117 q 75 331 75 249 l 75 633 q 100 782 75 715 q 174 898 125 849 q 295 974 224 947 q 458 1000 367 1000 m 531 1076 q 473 1076 511 1076 q 397 1076 435 1076 q 342 1076 360 1076 q 324 1081 332 1076 q 297 1103 315 1085 q 263 1137 286 1114 q 210 1190 240 1160 q 149 1252 181 1219 q 89 1314 118 1285 q 172 1314 124 1314 q 256 1314 219 1314 q 277 1312 271 1314 q 294 1300 283 1310 q 355 1250 315 1283 q 451 1164 394 1217 l 379 1193 q 424 1193 401 1193 q 469 1193 447 1193 l 400 1161 q 497 1249 454 1213 q 574 1314 540 1286 l 733 1314 q 742 1313 739 1314 q 747 1310 746 1313 q 749 1304 749 1308 q 744 1293 749 1299 q 719 1268 739 1288 q 677 1226 701 1251 q 626 1174 653 1201 q 574 1120 599 1146 q 531 1076 549 1094 z "},"Ḡ":{"ha":833,"x_min":75,"x_max":786,"o":"m 422 532 l 769 532 q 779 530 776 532 q 784 525 782 528 q 786 517 786 522 l 786 368 l 439 368 q 431 369 433 368 q 426 372 428 369 q 423 376 424 374 q 422 383 422 379 q 422 458 422 421 q 422 532 422 494 m 458 1000 q 551 992 508 1000 q 627 972 593 985 q 686 944 661 960 q 726 913 711 929 q 733 903 732 908 q 735 889 735 897 q 735 828 735 863 q 735 760 735 794 q 735 694 735 726 q 654 694 694 694 q 574 694 614 694 q 563 699 567 694 q 558 710 558 703 q 558 747 558 728 q 558 788 558 765 q 558 842 558 811 l 597 782 q 531 813 564 804 q 456 821 499 821 q 380 810 414 821 q 323 774 346 799 q 288 714 300 750 q 275 628 275 678 l 275 332 q 287 249 275 285 q 321 190 299 213 q 372 158 343 168 q 438 147 401 147 q 504 153 478 147 q 544 165 531 158 q 558 171 558 171 q 558 258 558 215 q 558 344 558 301 q 558 426 558 386 l 742 426 l 735 393 q 735 235 735 321 q 735 68 735 149 q 734 63 735 65 q 731 57 733 60 q 665 16 710 36 q 563 -16 621 -4 q 442 -28 506 -28 q 281 -3 350 -28 q 166 69 211 22 q 98 183 121 117 q 75 331 75 249 l 75 633 q 100 782 75 715 q 174 898 125 849 q 295 974 224 947 q 458 1000 367 1000 m 178 1294 l 660 1294 q 671 1290 667 1294 q 675 1279 675 1286 q 675 1233 675 1256 q 675 1187 675 1210 q 675 1139 675 1164 l 193 1139 q 185 1141 189 1139 q 180 1147 182 1143 q 178 1154 178 1150 q 178 1202 178 1179 q 178 1248 178 1225 q 178 1294 178 1271 z "},"H":{"ha":833,"x_min":88,"x_max":746,"o":"m 88 972 q 178 972 135 972 q 267 972 221 972 q 278 968 274 972 q 282 957 282 964 q 282 718 282 838 q 282 478 282 599 q 282 239 282 358 q 282 0 282 119 q 193 0 236 0 q 103 0 150 0 q 95 2 99 0 q 90 7 92 4 q 88 15 88 10 q 88 285 88 150 q 88 556 88 421 q 88 825 88 690 q 88 899 88 863 q 88 972 88 935 m 174 571 l 471 571 q 514 571 493 571 q 556 571 535 571 l 604 583 l 643 401 l 189 401 q 182 402 185 401 q 177 405 179 403 q 174 410 175 407 q 174 417 174 413 l 174 571 m 746 0 q 657 0 700 0 q 567 0 614 0 q 559 2 563 0 q 553 7 556 4 q 551 15 551 10 q 551 254 551 135 q 551 494 551 374 q 551 733 551 614 q 551 972 551 853 q 642 972 599 972 q 731 972 685 972 q 738 972 735 972 q 742 969 740 971 q 745 964 744 967 q 746 957 746 961 q 746 756 746 857 q 746 553 746 654 q 746 352 746 453 q 746 151 746 251 q 746 72 746 110 q 746 0 746 33 z "},"Ĥ":{"ha":833,"x_min":88,"x_max":756,"o":"m 88 972 q 178 972 135 972 q 267 972 221 972 q 278 968 274 972 q 282 957 282 964 q 282 718 282 838 q 282 478 282 599 q 282 239 282 358 q 282 0 282 119 q 193 0 236 0 q 103 0 150 0 q 95 2 99 0 q 90 7 92 4 q 88 15 88 10 q 88 285 88 150 q 88 556 88 421 q 88 825 88 690 q 88 899 88 863 q 88 972 88 935 m 174 571 l 471 571 q 514 571 493 571 q 556 571 535 571 l 604 583 l 643 401 l 189 401 q 182 402 185 401 q 177 405 179 403 q 174 410 175 407 q 174 417 174 413 l 174 571 m 746 0 q 657 0 700 0 q 567 0 614 0 q 559 2 563 0 q 553 7 556 4 q 551 15 551 10 q 551 254 551 135 q 551 494 551 374 q 551 733 551 614 q 551 972 551 853 q 642 972 599 972 q 731 972 685 972 q 738 972 735 972 q 742 969 740 971 q 745 964 744 967 q 746 957 746 961 q 746 756 746 857 q 746 553 746 654 q 746 352 746 453 q 746 151 746 251 q 746 72 746 110 q 746 0 746 33 m 314 1314 q 372 1314 335 1314 q 447 1314 410 1314 q 503 1314 483 1314 q 520 1310 513 1314 q 547 1288 528 1306 q 581 1253 558 1276 q 634 1201 604 1231 q 695 1138 664 1171 q 756 1076 726 1106 q 672 1076 719 1076 q 589 1076 625 1076 q 567 1079 574 1076 q 550 1090 561 1082 q 489 1140 528 1107 q 393 1228 450 1174 l 465 1199 q 420 1199 443 1199 q 374 1199 397 1199 l 444 1229 q 347 1142 390 1179 q 269 1076 304 1106 l 111 1076 q 102 1077 106 1076 q 97 1081 99 1078 q 96 1086 96 1083 q 101 1097 96 1092 q 125 1122 106 1103 q 167 1166 143 1142 q 219 1217 192 1190 q 270 1270 246 1244 q 314 1314 294 1296 z "},"Ḥ":{"ha":833,"x_min":88,"x_max":746,"o":"m 303 -139 q 356 -139 329 -139 q 410 -139 383 -139 q 464 -139 438 -139 q 518 -139 490 -139 q 529 -143 525 -139 q 533 -154 533 -147 l 533 -333 q 479 -333 506 -333 q 426 -333 453 -333 q 372 -333 399 -333 q 318 -333 344 -333 q 307 -329 311 -333 q 303 -318 303 -325 l 303 -139 m 88 972 q 178 972 135 972 q 267 972 221 972 q 278 968 274 972 q 282 957 282 964 q 282 718 282 838 q 282 478 282 599 q 282 239 282 358 q 282 0 282 119 q 193 0 236 0 q 103 0 150 0 q 95 2 99 0 q 90 7 92 4 q 88 15 88 10 q 88 285 88 150 q 88 556 88 421 q 88 825 88 690 q 88 899 88 863 q 88 972 88 935 m 174 571 l 471 571 q 514 571 493 571 q 556 571 535 571 l 604 583 l 643 401 l 189 401 q 182 402 185 401 q 177 405 179 403 q 174 410 175 407 q 174 417 174 413 l 174 571 m 746 0 q 657 0 700 0 q 567 0 614 0 q 559 2 563 0 q 553 7 556 4 q 551 15 551 10 q 551 254 551 135 q 551 494 551 374 q 551 733 551 614 q 551 972 551 853 q 642 972 599 972 q 731 972 685 972 q 738 972 735 972 q 742 969 740 971 q 745 964 744 967 q 746 957 746 961 q 746 756 746 857 q 746 553 746 654 q 746 352 746 453 q 746 151 746 251 q 746 72 746 110 q 746 0 746 33 z "},"Ḫ":{"ha":833,"x_min":88,"x_max":746,"o":"m 418 -143 q 500 -121 469 -143 q 547 -44 531 -99 q 599 -44 574 -44 q 651 -44 625 -44 q 669 -50 665 -44 q 671 -75 674 -56 q 631 -183 665 -136 q 543 -258 596 -231 q 428 -285 490 -285 l 408 -285 q 292 -258 344 -285 q 205 -183 239 -231 q 164 -75 171 -136 q 166 -50 163 -56 q 183 -44 169 -44 q 236 -44 211 -44 q 289 -44 261 -44 q 335 -121 304 -99 q 418 -143 367 -143 m 88 972 q 178 972 135 972 q 267 972 221 972 q 278 968 274 972 q 282 957 282 964 q 282 718 282 838 q 282 478 282 599 q 282 239 282 358 q 282 0 282 119 q 193 0 236 0 q 103 0 150 0 q 95 2 99 0 q 90 7 92 4 q 88 15 88 10 q 88 285 88 150 q 88 556 88 421 q 88 825 88 690 q 88 899 88 863 q 88 972 88 935 m 174 571 l 471 571 q 514 571 493 571 q 556 571 535 571 l 604 583 l 643 401 l 189 401 q 182 402 185 401 q 177 405 179 403 q 174 410 175 407 q 174 417 174 413 l 174 571 m 746 0 q 657 0 700 0 q 567 0 614 0 q 559 2 563 0 q 553 7 556 4 q 551 15 551 10 q 551 254 551 135 q 551 494 551 374 q 551 733 551 614 q 551 972 551 853 q 642 972 599 972 q 731 972 685 972 q 738 972 735 972 q 742 969 740 971 q 745 964 744 967 q 746 957 746 961 q 746 756 746 857 q 746 553 746 654 q 746 352 746 453 q 746 151 746 251 q 746 72 746 110 q 746 0 746 33 z "},"I":{"ha":833,"x_min":101,"x_max":732,"o":"m 514 104 l 314 104 l 319 161 q 319 214 319 185 q 319 267 319 243 q 319 417 319 342 q 319 566 319 492 q 319 716 319 640 q 319 868 319 792 l 521 868 l 514 811 q 514 761 514 789 q 514 710 514 733 q 514 558 514 633 q 514 406 514 482 q 514 256 514 331 q 514 104 514 181 m 732 0 l 117 0 q 110 1 113 0 q 105 3 107 1 q 102 8 103 6 q 101 15 101 11 q 101 68 101 43 q 101 117 101 93 q 101 169 101 142 l 717 169 q 725 167 722 169 q 730 163 728 165 q 732 154 732 160 q 732 102 732 126 q 732 53 732 78 q 732 0 732 28 m 101 972 l 717 972 q 728 968 724 972 q 732 957 732 964 q 732 917 732 936 q 732 879 732 897 q 732 842 732 861 q 732 803 732 824 l 117 803 q 106 807 110 803 q 101 818 101 811 q 101 858 101 839 q 101 895 101 876 q 101 933 101 914 q 101 972 101 953 z "},"Ì":{"ha":833,"x_min":101,"x_max":732,"o":"m 514 104 l 314 104 l 319 161 q 319 214 319 185 q 319 267 319 243 q 319 417 319 342 q 319 566 319 492 q 319 716 319 640 q 319 868 319 792 l 521 868 l 514 811 q 514 761 514 789 q 514 710 514 733 q 514 558 514 633 q 514 406 514 482 q 514 256 514 331 q 514 104 514 181 m 732 0 l 117 0 q 110 1 113 0 q 105 3 107 1 q 102 8 103 6 q 101 15 101 11 q 101 68 101 43 q 101 117 101 93 q 101 169 101 142 l 717 169 q 725 167 722 169 q 730 163 728 165 q 732 154 732 160 q 732 102 732 126 q 732 53 732 78 q 732 0 732 28 m 101 972 l 717 972 q 728 968 724 972 q 732 957 732 964 q 732 917 732 936 q 732 879 732 897 q 732 842 732 861 q 732 803 732 824 l 117 803 q 106 807 110 803 q 101 818 101 811 q 101 858 101 839 q 101 895 101 876 q 101 933 101 914 q 101 972 101 953 m 358 1314 q 406 1233 383 1272 q 452 1157 429 1194 q 499 1076 475 1119 q 456 1076 475 1076 q 412 1076 436 1076 q 349 1076 388 1076 q 335 1079 340 1076 q 326 1085 329 1082 q 266 1151 290 1125 q 223 1199 242 1178 q 184 1243 204 1221 q 138 1294 164 1265 q 135 1308 132 1301 q 147 1314 139 1314 q 219 1314 192 1314 q 276 1314 246 1314 q 358 1314 307 1314 z "},"Í":{"ha":833,"x_min":101,"x_max":732,"o":"m 514 104 l 314 104 l 319 161 q 319 214 319 185 q 319 267 319 243 q 319 417 319 342 q 319 566 319 492 q 319 716 319 640 q 319 868 319 792 l 521 868 l 514 811 q 514 761 514 789 q 514 710 514 733 q 514 558 514 633 q 514 406 514 482 q 514 256 514 331 q 514 104 514 181 m 732 0 l 117 0 q 110 1 113 0 q 105 3 107 1 q 102 8 103 6 q 101 15 101 11 q 101 68 101 43 q 101 117 101 93 q 101 169 101 142 l 717 169 q 725 167 722 169 q 730 163 728 165 q 732 154 732 160 q 732 102 732 126 q 732 53 732 78 q 732 0 732 28 m 101 972 l 717 972 q 728 968 724 972 q 732 957 732 964 q 732 917 732 936 q 732 879 732 897 q 732 842 732 861 q 732 803 732 824 l 117 803 q 106 807 110 803 q 101 818 101 811 q 101 858 101 839 q 101 895 101 876 q 101 933 101 914 q 101 972 101 953 m 476 1314 q 559 1314 529 1314 q 616 1314 589 1314 q 686 1314 643 1314 q 697 1308 694 1314 q 694 1294 700 1301 q 649 1243 668 1265 q 610 1199 629 1221 q 567 1151 592 1178 q 507 1085 543 1125 q 499 1079 504 1082 q 485 1076 493 1076 q 422 1076 446 1076 q 378 1076 397 1076 q 335 1076 358 1076 q 383 1157 360 1119 q 429 1233 406 1194 q 476 1314 453 1272 z "},"Î":{"ha":833,"x_min":96,"x_max":756,"o":"m 514 104 l 314 104 l 319 161 q 319 214 319 185 q 319 267 319 243 q 319 417 319 342 q 319 566 319 492 q 319 716 319 640 q 319 868 319 792 l 521 868 l 514 811 q 514 761 514 789 q 514 710 514 733 q 514 558 514 633 q 514 406 514 482 q 514 256 514 331 q 514 104 514 181 m 732 0 l 117 0 q 110 1 113 0 q 105 3 107 1 q 102 8 103 6 q 101 15 101 11 q 101 68 101 43 q 101 117 101 93 q 101 169 101 142 l 717 169 q 725 167 722 169 q 730 163 728 165 q 732 154 732 160 q 732 102 732 126 q 732 53 732 78 q 732 0 732 28 m 101 972 l 717 972 q 728 968 724 972 q 732 957 732 964 q 732 917 732 936 q 732 879 732 897 q 732 842 732 861 q 732 803 732 824 l 117 803 q 106 807 110 803 q 101 818 101 811 q 101 858 101 839 q 101 895 101 876 q 101 933 101 914 q 101 972 101 953 m 314 1314 q 372 1314 335 1314 q 447 1314 410 1314 q 503 1314 483 1314 q 520 1310 513 1314 q 547 1288 528 1306 q 581 1253 558 1276 q 634 1201 604 1231 q 695 1138 664 1171 q 756 1076 726 1106 q 672 1076 719 1076 q 589 1076 625 1076 q 567 1079 574 1076 q 550 1090 561 1082 q 489 1140 528 1107 q 393 1228 450 1174 l 465 1199 q 420 1199 443 1199 q 374 1199 397 1199 l 444 1229 q 347 1142 390 1179 q 269 1076 304 1106 l 111 1076 q 102 1077 106 1076 q 97 1081 99 1078 q 96 1086 96 1083 q 101 1097 96 1092 q 125 1122 106 1103 q 167 1166 143 1142 q 219 1217 192 1190 q 270 1270 246 1244 q 314 1314 294 1296 z "},"Ï":{"ha":833,"x_min":101,"x_max":732,"o":"m 514 104 l 314 104 l 319 161 q 319 214 319 185 q 319 267 319 243 q 319 417 319 342 q 319 566 319 492 q 319 716 319 640 q 319 868 319 792 l 521 868 l 514 811 q 514 761 514 789 q 514 710 514 733 q 514 558 514 633 q 514 406 514 482 q 514 256 514 331 q 514 104 514 181 m 732 0 l 117 0 q 110 1 113 0 q 105 3 107 1 q 102 8 103 6 q 101 15 101 11 q 101 68 101 43 q 101 117 101 93 q 101 169 101 142 l 717 169 q 725 167 722 169 q 730 163 728 165 q 732 154 732 160 q 732 102 732 126 q 732 53 732 78 q 732 0 732 28 m 101 972 l 717 972 q 728 968 724 972 q 732 957 732 964 q 732 917 732 936 q 732 879 732 897 q 732 842 732 861 q 732 803 732 824 l 117 803 q 106 807 110 803 q 101 818 101 811 q 101 858 101 839 q 101 895 101 876 q 101 933 101 914 q 101 972 101 953 m 165 1289 q 258 1289 211 1289 q 351 1289 306 1289 q 360 1287 357 1289 q 365 1282 363 1285 q 367 1274 367 1279 l 367 1099 q 274 1099 321 1099 q 181 1099 226 1099 q 173 1101 176 1099 q 167 1106 169 1103 q 165 1114 165 1110 l 165 1289 m 467 1289 q 560 1289 513 1289 q 653 1289 607 1289 q 661 1287 658 1289 q 666 1282 664 1285 q 668 1274 668 1279 l 668 1099 q 575 1099 622 1099 q 482 1099 528 1099 q 474 1101 478 1099 q 469 1106 471 1103 q 467 1114 467 1110 l 467 1289 z "},"Ĩ":{"ha":833,"x_min":101,"x_max":732,"o":"m 514 104 l 314 104 l 319 161 q 319 214 319 185 q 319 267 319 243 q 319 417 319 342 q 319 566 319 492 q 319 716 319 640 q 319 868 319 792 l 521 868 l 514 811 q 514 761 514 789 q 514 710 514 733 q 514 558 514 633 q 514 406 514 482 q 514 256 514 331 q 514 104 514 181 m 732 0 l 117 0 q 110 1 113 0 q 105 3 107 1 q 102 8 103 6 q 101 15 101 11 q 101 68 101 43 q 101 117 101 93 q 101 169 101 142 l 717 169 q 725 167 722 169 q 730 163 728 165 q 732 154 732 160 q 732 102 732 126 q 732 53 732 78 q 732 0 732 28 m 101 972 l 717 972 q 728 968 724 972 q 732 957 732 964 q 732 917 732 936 q 732 879 732 897 q 732 842 732 861 q 732 803 732 824 l 117 803 q 106 807 110 803 q 101 818 101 811 q 101 858 101 839 q 101 895 101 876 q 101 933 101 914 q 101 972 101 953 m 564 1229 q 624 1242 597 1229 q 672 1286 650 1256 l 699 1286 q 699 1218 699 1251 q 699 1157 699 1185 q 697 1140 699 1146 q 689 1128 696 1135 q 635 1090 667 1104 q 557 1076 604 1076 q 475 1088 513 1076 q 404 1115 438 1100 q 338 1142 371 1131 q 269 1154 306 1154 q 210 1140 236 1154 q 161 1097 183 1126 l 135 1097 q 135 1165 135 1132 q 135 1226 135 1199 q 136 1242 135 1236 q 144 1257 138 1249 q 198 1294 167 1281 q 276 1308 229 1308 q 358 1296 321 1308 q 429 1269 396 1283 q 495 1242 463 1254 q 564 1229 528 1229 z "},"Ī":{"ha":833,"x_min":101,"x_max":732,"o":"m 514 104 l 314 104 l 319 161 q 319 214 319 185 q 319 267 319 243 q 319 417 319 342 q 319 566 319 492 q 319 716 319 640 q 319 868 319 792 l 521 868 l 514 811 q 514 761 514 789 q 514 710 514 733 q 514 558 514 633 q 514 406 514 482 q 514 256 514 331 q 514 104 514 181 m 732 0 l 117 0 q 110 1 113 0 q 105 3 107 1 q 102 8 103 6 q 101 15 101 11 q 101 68 101 43 q 101 117 101 93 q 101 169 101 142 l 717 169 q 725 167 722 169 q 730 163 728 165 q 732 154 732 160 q 732 102 732 126 q 732 53 732 78 q 732 0 732 28 m 101 972 l 717 972 q 728 968 724 972 q 732 957 732 964 q 732 917 732 936 q 732 879 732 897 q 732 842 732 861 q 732 803 732 824 l 117 803 q 106 807 110 803 q 101 818 101 811 q 101 858 101 839 q 101 895 101 876 q 101 933 101 914 q 101 972 101 953 m 168 1268 l 650 1268 q 661 1264 657 1268 q 665 1253 665 1260 q 665 1183 665 1217 q 665 1113 665 1149 l 183 1113 q 176 1115 179 1113 q 170 1120 172 1117 q 168 1128 168 1124 q 168 1198 168 1164 q 168 1268 168 1232 z "},"Ĭ":{"ha":833,"x_min":101,"x_max":732,"o":"m 514 104 l 314 104 l 319 161 q 319 214 319 185 q 319 267 319 243 q 319 417 319 342 q 319 566 319 492 q 319 716 319 640 q 319 868 319 792 l 521 868 l 514 811 q 514 761 514 789 q 514 710 514 733 q 514 558 514 633 q 514 406 514 482 q 514 256 514 331 q 514 104 514 181 m 732 0 l 117 0 q 110 1 113 0 q 105 3 107 1 q 102 8 103 6 q 101 15 101 11 q 101 68 101 43 q 101 117 101 93 q 101 169 101 142 l 717 169 q 725 167 722 169 q 730 163 728 165 q 732 154 732 160 q 732 102 732 126 q 732 53 732 78 q 732 0 732 28 m 101 972 l 717 972 q 728 968 724 972 q 732 957 732 964 q 732 917 732 936 q 732 879 732 897 q 732 842 732 861 q 732 803 732 824 l 117 803 q 106 807 110 803 q 101 818 101 811 q 101 858 101 839 q 101 895 101 876 q 101 933 101 914 q 101 972 101 953 m 546 1315 q 604 1315 575 1315 q 663 1315 633 1315 q 681 1310 676 1315 q 682 1288 685 1304 q 642 1190 674 1236 q 560 1115 610 1143 q 450 1086 511 1086 l 383 1086 q 273 1115 322 1086 q 192 1190 224 1143 q 151 1288 160 1236 q 153 1310 150 1304 q 171 1315 157 1315 q 229 1315 200 1315 q 288 1315 258 1315 q 336 1251 306 1269 q 417 1233 367 1233 q 497 1251 467 1233 q 546 1315 528 1269 z "},"Į":{"ha":833,"x_min":101,"x_max":732,"o":"m 514 104 l 314 104 l 319 161 q 319 214 319 185 q 319 267 319 243 q 319 417 319 342 q 319 566 319 492 q 319 716 319 640 q 319 868 319 792 l 521 868 l 514 811 q 514 761 514 789 q 514 710 514 733 q 514 558 514 633 q 514 406 514 482 q 514 256 514 331 q 514 104 514 181 m 732 0 l 117 0 q 110 1 113 0 q 105 3 107 1 q 102 8 103 6 q 101 15 101 11 q 101 68 101 43 q 101 117 101 93 q 101 169 101 142 l 717 169 q 725 167 722 169 q 730 163 728 165 q 732 154 732 160 q 732 102 732 126 q 732 53 732 78 q 732 0 732 28 m 101 972 l 717 972 q 728 968 724 972 q 732 957 732 964 q 732 917 732 936 q 732 879 732 897 q 732 842 732 861 q 732 803 732 824 l 117 803 q 106 807 110 803 q 101 818 101 811 q 101 858 101 839 q 101 895 101 876 q 101 933 101 914 q 101 972 101 953 m 646 57 q 683 45 664 57 q 732 0 701 33 q 729 -8 732 -4 q 714 -15 726 -12 q 608 -56 642 -28 q 574 -118 574 -83 q 589 -155 574 -143 q 632 -167 604 -167 q 667 -162 651 -167 q 699 -147 683 -157 l 725 -147 q 725 -176 725 -160 q 725 -219 725 -192 q 725 -299 725 -247 q 692 -333 725 -319 q 611 -347 658 -347 q 462 -301 517 -347 q 407 -172 407 -256 q 444 -49 407 -100 q 537 28 482 1 q 646 57 592 56 z "},"İ":{"ha":833,"x_min":101,"x_max":732,"o":"m 296 1292 q 351 1292 322 1292 q 409 1292 379 1292 q 467 1292 439 1292 q 522 1292 496 1292 q 533 1288 529 1292 q 538 1276 538 1283 l 538 1097 q 483 1097 511 1097 q 424 1097 454 1097 q 366 1097 394 1097 q 311 1097 338 1097 q 300 1101 304 1097 q 296 1113 296 1106 l 296 1292 m 514 104 l 314 104 l 319 161 q 319 214 319 185 q 319 267 319 243 q 319 417 319 342 q 319 566 319 492 q 319 716 319 640 q 319 868 319 792 l 521 868 l 514 811 q 514 761 514 789 q 514 710 514 733 q 514 558 514 633 q 514 406 514 482 q 514 256 514 331 q 514 104 514 181 m 732 0 l 117 0 q 110 1 113 0 q 105 3 107 1 q 102 8 103 6 q 101 15 101 11 q 101 68 101 43 q 101 117 101 93 q 101 169 101 142 l 717 169 q 725 167 722 169 q 730 163 728 165 q 732 154 732 160 q 732 102 732 126 q 732 53 732 78 q 732 0 732 28 m 101 972 l 717 972 q 728 968 724 972 q 732 957 732 964 q 732 917 732 936 q 732 879 732 897 q 732 842 732 861 q 732 803 732 824 l 117 803 q 106 807 110 803 q 101 818 101 811 q 101 858 101 839 q 101 895 101 876 q 101 933 101 914 q 101 972 101 953 z "},"Ȉ":{"ha":833,"x_min":0,"x_max":732,"o":"m 225 1315 q 274 1235 251 1274 q 319 1158 296 1196 q 367 1078 343 1121 q 323 1078 343 1078 q 279 1078 303 1078 q 217 1078 256 1078 q 202 1081 208 1078 q 193 1086 196 1083 q 133 1153 157 1126 q 90 1201 108 1179 q 51 1244 71 1222 q 6 1296 32 1267 q 3 1309 0 1303 q 14 1315 6 1315 q 85 1315 58 1315 q 143 1315 113 1315 q 225 1315 174 1315 m 521 1315 q 569 1235 546 1274 q 615 1158 592 1196 q 663 1078 638 1121 q 618 1078 638 1078 q 575 1078 599 1078 q 511 1078 551 1078 q 497 1081 503 1078 q 489 1086 492 1083 q 428 1153 453 1126 q 385 1201 404 1179 q 347 1244 367 1222 q 300 1296 326 1267 q 298 1309 294 1303 q 310 1315 301 1315 q 382 1315 354 1315 q 440 1315 410 1315 q 521 1315 469 1315 m 514 104 l 314 104 l 319 161 q 319 214 319 185 q 319 267 319 243 q 319 416 319 342 q 319 566 319 490 q 319 717 319 642 q 319 868 319 793 l 521 868 l 514 811 q 514 761 514 789 q 514 710 514 733 q 514 558 514 633 q 514 406 514 482 q 514 256 514 331 q 514 104 514 181 m 732 0 l 117 0 q 110 1 113 0 q 105 3 107 1 q 102 8 103 6 q 101 15 101 11 q 101 68 101 43 q 101 117 101 93 q 101 169 101 142 l 717 169 q 725 167 722 169 q 730 163 728 165 q 732 154 732 160 q 732 102 732 126 q 732 53 732 78 q 732 0 732 28 m 101 972 l 717 972 q 728 968 724 972 q 732 957 732 964 q 732 917 732 936 q 732 879 732 897 q 732 842 732 861 q 732 803 732 824 l 117 803 q 106 807 110 803 q 101 818 101 811 q 101 858 101 839 q 101 895 101 876 q 101 933 101 914 q 101 972 101 953 z "},"Ȋ":{"ha":833,"x_min":101,"x_max":732,"o":"m 514 104 l 314 104 l 319 161 q 319 214 319 185 q 319 267 319 243 q 319 417 319 342 q 319 566 319 492 q 319 716 319 640 q 319 868 319 792 l 521 868 l 514 811 q 514 761 514 789 q 514 710 514 733 q 514 558 514 633 q 514 406 514 482 q 514 256 514 331 q 514 104 514 181 m 732 0 l 117 0 q 110 1 113 0 q 105 3 107 1 q 102 8 103 6 q 101 15 101 11 q 101 68 101 43 q 101 117 101 93 q 101 169 101 142 l 717 169 q 725 167 722 169 q 730 163 728 165 q 732 154 732 160 q 732 102 732 126 q 732 53 732 78 q 732 0 732 28 m 101 972 l 717 972 q 728 968 724 972 q 732 957 732 964 q 732 917 732 936 q 732 879 732 897 q 732 842 732 861 q 732 803 732 824 l 117 803 q 106 807 110 803 q 101 818 101 811 q 101 858 101 839 q 101 895 101 876 q 101 933 101 914 q 101 972 101 953 m 288 1083 q 229 1083 258 1083 q 171 1083 200 1083 q 153 1088 157 1083 q 151 1110 150 1093 q 192 1208 160 1163 q 273 1283 224 1254 q 383 1313 322 1313 l 450 1313 q 560 1283 511 1313 q 642 1208 610 1254 q 682 1110 674 1163 q 681 1088 685 1093 q 663 1083 676 1083 q 604 1083 633 1083 q 546 1083 575 1083 q 497 1146 528 1128 q 417 1164 467 1164 q 336 1146 367 1164 q 288 1083 306 1128 z "},"Ḯ":{"ha":833,"x_min":101,"x_max":732,"o":"m 514 104 l 314 104 l 319 161 q 319 214 319 185 q 319 267 319 243 q 319 417 319 342 q 319 566 319 492 q 319 716 319 640 q 319 868 319 792 l 521 868 l 514 811 q 514 761 514 789 q 514 710 514 733 q 514 558 514 633 q 514 406 514 482 q 514 256 514 331 q 514 104 514 181 m 732 0 l 117 0 q 110 1 113 0 q 105 3 107 1 q 102 8 103 6 q 101 15 101 11 q 101 68 101 43 q 101 117 101 93 q 101 169 101 142 l 717 169 q 725 167 722 169 q 730 163 728 165 q 732 154 732 160 q 732 102 732 126 q 732 53 732 78 q 732 0 732 28 m 101 972 l 717 972 q 728 968 724 972 q 732 957 732 964 q 732 917 732 936 q 732 879 732 897 q 732 842 732 861 q 732 803 732 824 l 117 803 q 106 807 110 803 q 101 818 101 811 q 101 858 101 839 q 101 895 101 876 q 101 933 101 914 q 101 972 101 953 m 165 1289 q 258 1289 211 1289 q 351 1289 306 1289 q 360 1287 357 1289 q 365 1282 363 1285 q 367 1274 367 1279 l 367 1099 q 274 1099 321 1099 q 181 1099 226 1099 q 173 1101 176 1099 q 167 1106 169 1103 q 165 1114 165 1110 l 165 1289 m 467 1289 q 560 1289 513 1289 q 653 1289 607 1289 q 661 1287 658 1289 q 666 1282 664 1285 q 668 1274 668 1279 l 668 1099 q 575 1099 622 1099 q 482 1099 528 1099 q 474 1101 478 1099 q 469 1106 471 1103 q 467 1114 467 1110 l 467 1289 m 476 1568 q 559 1568 529 1568 q 616 1568 589 1568 q 686 1568 643 1568 q 697 1562 694 1568 q 694 1549 700 1556 q 649 1497 668 1519 q 610 1453 629 1475 q 567 1406 592 1432 q 507 1339 543 1379 q 499 1333 504 1336 q 485 1331 493 1331 q 422 1331 446 1331 q 378 1331 397 1331 q 335 1331 358 1331 q 383 1411 360 1374 q 429 1488 406 1449 q 476 1568 453 1526 z "},"Ỉ":{"ha":833,"x_min":101,"x_max":732,"o":"m 514 104 l 314 104 l 319 161 q 319 214 319 185 q 319 267 319 243 q 319 417 319 342 q 319 566 319 492 q 319 716 319 640 q 319 868 319 792 l 521 868 l 514 811 q 514 761 514 789 q 514 710 514 733 q 514 558 514 633 q 514 406 514 482 q 514 256 514 331 q 514 104 514 181 m 732 0 l 117 0 q 110 1 113 0 q 105 3 107 1 q 102 8 103 6 q 101 15 101 11 q 101 68 101 43 q 101 117 101 93 q 101 169 101 142 l 717 169 q 725 167 722 169 q 730 163 728 165 q 732 154 732 160 q 732 102 732 126 q 732 53 732 78 q 732 0 732 28 m 101 972 l 717 972 q 728 968 724 972 q 732 957 732 964 q 732 917 732 936 q 732 879 732 897 q 732 842 732 861 q 732 803 732 824 l 117 803 q 106 807 110 803 q 101 818 101 811 q 101 858 101 839 q 101 895 101 876 q 101 933 101 914 q 101 972 101 953 m 333 1071 q 353 1095 343 1083 q 372 1122 363 1107 q 390 1146 382 1133 q 408 1172 399 1158 q 408 1179 408 1175 q 408 1189 408 1183 q 384 1189 399 1189 q 357 1189 369 1189 q 319 1189 344 1189 q 275 1189 293 1189 l 244 1189 q 244 1250 244 1224 q 244 1299 244 1276 q 249 1310 244 1306 q 260 1314 253 1314 q 317 1314 279 1314 q 400 1314 356 1314 q 486 1314 444 1314 q 556 1314 528 1314 q 565 1313 561 1314 q 570 1308 568 1311 q 572 1299 572 1304 l 572 1190 q 556 1167 572 1189 q 517 1118 539 1146 q 488 1084 503 1101 q 461 1053 474 1067 q 419 1053 443 1053 q 374 1053 396 1053 q 338 1053 351 1053 q 328 1058 328 1053 q 333 1071 328 1064 z "},"Ị":{"ha":833,"x_min":101,"x_max":732,"o":"m 514 104 l 314 104 l 319 161 q 319 214 319 185 q 319 267 319 243 q 319 417 319 342 q 319 566 319 492 q 319 716 319 640 q 319 868 319 792 l 521 868 l 514 811 q 514 761 514 789 q 514 710 514 733 q 514 558 514 633 q 514 406 514 482 q 514 256 514 331 q 514 104 514 181 m 732 0 l 117 0 q 110 1 113 0 q 105 3 107 1 q 102 8 103 6 q 101 15 101 11 q 101 68 101 43 q 101 117 101 93 q 101 169 101 142 l 717 169 q 725 167 722 169 q 730 163 728 165 q 732 154 732 160 q 732 102 732 126 q 732 53 732 78 q 732 0 732 28 m 101 972 l 717 972 q 728 968 724 972 q 732 957 732 964 q 732 917 732 936 q 732 879 732 897 q 732 842 732 861 q 732 803 732 824 l 117 803 q 106 807 110 803 q 101 818 101 811 q 101 858 101 839 q 101 895 101 876 q 101 933 101 914 q 101 972 101 953 m 301 -139 q 356 -139 329 -139 q 409 -139 382 -139 q 463 -139 436 -139 q 517 -139 489 -139 q 528 -143 524 -139 q 532 -154 532 -147 l 532 -333 q 478 -333 504 -333 q 424 -333 451 -333 q 371 -333 397 -333 q 317 -333 344 -333 q 306 -329 310 -333 q 301 -318 301 -325 l 301 -139 z "},"J":{"ha":833,"x_min":117,"x_max":704,"o":"m 344 149 q 415 158 385 149 q 465 186 444 167 q 488 219 479 200 q 500 263 496 238 q 504 319 504 288 q 504 440 504 379 q 504 567 504 501 q 504 700 504 632 q 504 840 504 768 l 532 776 l 479 835 l 543 803 q 454 803 499 803 q 365 803 410 803 q 276 803 321 803 q 188 803 232 803 q 180 805 183 803 q 174 810 176 807 q 172 818 172 814 q 172 895 172 858 q 172 972 172 932 q 301 972 236 972 q 431 972 367 972 q 560 972 494 972 q 689 972 625 972 q 697 970 694 972 q 702 965 700 968 q 704 957 704 963 q 704 801 704 879 q 704 646 704 724 q 704 490 704 568 q 704 335 704 413 q 683 190 704 256 q 618 75 661 124 q 510 -1 575 26 q 357 -28 444 -28 q 250 -21 299 -28 q 169 -3 201 -14 q 124 19 136 8 q 119 25 121 22 q 117 31 118 28 q 117 39 117 35 q 117 115 117 78 q 117 194 117 151 l 143 194 q 210 169 178 179 q 276 153 243 158 q 344 149 310 149 z "},"Ĵ":{"ha":833,"x_min":114,"x_max":774,"o":"m 344 149 q 415 158 385 149 q 465 186 444 167 q 488 219 479 200 q 500 263 496 238 q 504 319 504 288 q 504 440 504 379 q 504 567 504 501 q 504 700 504 632 q 504 840 504 768 l 532 776 l 479 835 l 543 803 q 454 803 499 803 q 365 803 410 803 q 276 803 321 803 q 188 803 232 803 q 180 805 183 803 q 174 810 176 807 q 172 818 172 814 q 172 895 172 858 q 172 972 172 932 q 301 972 236 972 q 431 972 367 972 q 560 972 494 972 q 689 972 625 972 q 697 970 694 972 q 702 965 700 968 q 704 957 704 963 q 704 801 704 879 q 704 646 704 724 q 704 490 704 568 q 704 335 704 413 q 683 190 704 256 q 618 75 661 124 q 510 -1 575 26 q 357 -28 444 -28 q 250 -21 299 -28 q 169 -3 201 -14 q 124 19 136 8 q 119 25 121 22 q 117 31 118 28 q 117 39 117 35 q 117 115 117 78 q 117 194 117 151 l 143 194 q 210 169 178 179 q 276 153 243 158 q 344 149 310 149 m 332 1314 q 390 1314 353 1314 q 465 1314 428 1314 q 521 1314 501 1314 q 538 1310 531 1314 q 565 1288 546 1306 q 599 1253 576 1276 q 652 1201 622 1231 q 713 1138 682 1171 q 774 1076 744 1106 q 690 1076 738 1076 q 607 1076 643 1076 q 585 1079 592 1076 q 568 1090 579 1082 q 507 1140 546 1107 q 411 1228 468 1174 l 483 1199 q 438 1199 461 1199 q 392 1199 415 1199 l 463 1229 q 365 1142 408 1179 q 288 1076 322 1106 l 129 1076 q 120 1077 124 1076 q 115 1081 117 1078 q 114 1086 114 1083 q 119 1097 114 1092 q 143 1122 124 1103 q 185 1166 161 1142 q 237 1217 210 1190 q 288 1270 264 1244 q 332 1314 313 1296 z "},"K":{"ha":833,"x_min":89,"x_max":803,"o":"m 451 576 q 567 395 508 488 q 681 213 625 303 q 710 178 697 186 q 749 171 722 171 q 766 171 760 171 q 782 171 772 171 l 790 171 q 790 124 790 149 q 790 76 790 99 q 790 36 790 53 q 790 15 790 19 q 786 4 790 8 q 775 0 782 0 q 762 0 769 0 q 744 0 754 0 q 719 0 733 0 q 637 7 671 0 q 575 38 603 14 q 515 111 547 63 q 472 185 490 154 q 441 241 453 215 q 419 291 429 267 q 401 342 410 315 l 329 342 l 451 576 m 790 972 q 797 971 794 972 q 801 967 800 969 q 803 961 803 964 q 801 953 803 958 q 791 936 799 949 q 765 897 783 924 q 712 822 743 868 q 640 719 681 775 q 554 597 600 663 q 458 460 508 531 q 358 317 408 389 q 257 174 307 244 l 257 493 l 310 493 q 328 546 318 521 q 351 596 339 571 q 378 646 363 621 q 410 699 393 671 q 465 788 435 739 q 525 885 494 836 q 579 972 556 933 l 790 972 m 89 972 q 179 972 136 972 q 268 972 222 972 q 279 968 275 972 q 283 957 283 964 q 283 718 283 838 q 283 478 283 599 q 283 239 283 358 q 283 0 283 119 q 194 0 238 0 q 104 0 151 0 q 93 4 97 0 q 89 15 89 8 q 89 285 89 150 q 89 556 89 421 q 89 825 89 690 q 89 899 89 863 q 89 972 89 935 z "},"Ķ":{"ha":833,"x_min":89,"x_max":803,"o":"m 451 576 q 567 395 508 488 q 681 213 625 303 q 710 178 697 186 q 749 171 722 171 q 766 171 760 171 q 782 171 772 171 l 790 171 q 790 124 790 149 q 790 76 790 99 q 790 36 790 53 q 790 15 790 19 q 786 4 790 8 q 775 0 782 0 q 762 0 769 0 q 744 0 754 0 q 719 0 733 0 q 637 7 671 0 q 575 38 603 14 q 515 111 547 63 q 472 185 490 154 q 441 241 453 215 q 419 291 429 267 q 401 342 410 315 l 329 342 l 451 576 m 790 972 q 797 971 794 972 q 801 967 800 969 q 803 961 803 964 q 801 953 803 958 q 791 936 799 949 q 765 897 783 924 q 712 822 743 868 q 640 719 681 775 q 554 597 600 663 q 458 460 508 531 q 358 317 408 389 q 257 174 307 244 l 257 493 l 310 493 q 328 546 318 521 q 351 596 339 571 q 378 646 363 621 q 410 699 393 671 q 465 788 435 739 q 525 885 494 836 q 579 972 556 933 l 790 972 m 89 972 q 179 972 136 972 q 268 972 222 972 q 279 968 275 972 q 283 957 283 964 q 283 718 283 838 q 283 478 283 599 q 283 239 283 358 q 283 0 283 119 q 194 0 238 0 q 104 0 151 0 q 93 4 97 0 q 89 15 89 8 q 89 285 89 150 q 89 556 89 421 q 89 825 89 690 q 89 899 89 863 q 89 972 89 935 m 374 -85 q 435 -85 406 -85 q 497 -85 465 -85 q 558 -85 528 -85 q 572 -90 567 -85 q 574 -103 576 -94 q 544 -180 558 -143 q 516 -253 529 -217 q 486 -332 503 -289 q 480 -342 485 -337 q 465 -346 475 -346 q 399 -346 438 -346 q 315 -346 360 -346 q 335 -256 325 -300 q 354 -168 344 -211 q 374 -85 364 -125 z "},"M":{"ha":833,"x_min":75,"x_max":758,"o":"m 263 0 q 176 0 219 0 q 90 0 133 0 q 83 2 86 0 q 77 7 79 4 q 75 15 75 10 q 75 220 75 118 q 75 424 75 322 q 75 629 75 526 q 75 833 75 732 q 75 903 75 868 q 75 972 75 938 q 133 972 103 972 q 193 972 163 972 q 253 972 224 972 q 263 969 258 972 q 272 956 267 965 q 285 926 276 947 q 319 838 304 878 q 347 758 335 797 q 371 676 360 719 q 393 579 382 633 q 415 454 404 525 l 371 515 l 464 515 l 419 454 q 441 579 431 525 q 463 679 451 633 q 490 769 475 725 q 523 862 504 813 q 568 972 542 911 q 627 972 597 972 q 686 972 657 972 q 744 972 715 972 q 752 970 749 972 q 757 965 756 968 q 758 957 758 963 q 758 833 758 897 q 758 701 758 769 q 758 561 758 632 q 758 419 758 490 q 758 277 758 349 q 758 138 758 206 q 758 92 758 115 q 758 47 758 69 q 758 0 758 24 q 672 0 715 0 q 586 0 629 0 q 578 2 582 0 q 573 7 575 4 q 571 15 571 10 q 571 74 571 46 q 571 133 571 103 q 571 190 571 163 q 572 239 571 214 q 575 295 572 264 q 581 365 578 326 q 591 452 585 403 q 606 561 597 501 q 628 696 615 621 l 651 657 l 557 657 l 611 693 q 575 590 593 642 q 538 489 557 539 q 501 389 519 439 q 465 289 482 339 q 428 189 447 239 q 417 189 422 189 q 407 189 413 189 q 397 191 401 189 q 390 200 393 193 q 359 291 375 244 q 326 388 343 338 q 292 490 310 439 q 258 592 275 540 q 224 694 240 643 l 278 657 l 183 657 l 206 696 q 227 563 218 622 q 242 455 236 503 q 253 368 249 407 q 259 297 257 329 q 262 240 261 265 q 263 190 263 214 q 263 95 263 143 q 263 0 263 47 z "},"Ṃ":{"ha":833,"x_min":75,"x_max":758,"o":"m 303 -139 q 356 -139 329 -139 q 410 -139 383 -139 q 464 -139 438 -139 q 518 -139 490 -139 q 529 -143 525 -139 q 533 -154 533 -147 l 533 -333 q 479 -333 506 -333 q 426 -333 453 -333 q 372 -333 399 -333 q 318 -333 344 -333 q 307 -329 311 -333 q 303 -318 303 -325 l 303 -139 m 263 0 q 176 0 219 0 q 90 0 133 0 q 83 2 86 0 q 77 7 79 4 q 75 15 75 10 q 75 220 75 118 q 75 424 75 322 q 75 629 75 526 q 75 833 75 732 q 75 903 75 868 q 75 972 75 938 q 133 972 103 972 q 193 972 163 972 q 253 972 224 972 q 263 969 258 972 q 272 956 267 965 q 285 926 276 947 q 319 838 304 878 q 347 758 335 797 q 371 676 360 719 q 393 579 382 633 q 415 454 404 525 l 371 515 l 464 515 l 419 454 q 441 579 431 525 q 463 679 451 633 q 490 769 475 725 q 523 862 504 813 q 568 972 542 911 q 627 972 597 972 q 686 972 657 972 q 744 972 715 972 q 752 970 749 972 q 757 965 756 968 q 758 957 758 963 q 758 833 758 897 q 758 701 758 769 q 758 561 758 632 q 758 419 758 490 q 758 277 758 349 q 758 138 758 206 q 758 92 758 115 q 758 47 758 69 q 758 0 758 24 q 672 0 715 0 q 586 0 629 0 q 578 2 582 0 q 573 7 575 4 q 571 15 571 10 q 571 74 571 46 q 571 133 571 103 q 571 190 571 163 q 572 239 571 214 q 575 295 572 264 q 581 365 578 326 q 591 452 585 403 q 606 561 597 501 q 628 696 615 621 l 651 657 l 557 657 l 611 693 q 575 590 593 642 q 538 489 557 539 q 501 389 519 439 q 465 289 482 339 q 428 189 447 239 q 417 189 422 189 q 407 189 413 189 q 397 191 401 189 q 390 200 393 193 q 359 291 375 244 q 326 388 343 338 q 292 490 310 439 q 258 592 275 540 q 224 694 240 643 l 278 657 l 183 657 l 206 696 q 227 563 218 622 q 242 455 236 503 q 253 368 249 407 q 259 297 257 329 q 262 240 261 265 q 263 190 263 214 q 263 95 263 143 q 263 0 263 47 z "},"N":{"ha":833,"x_min":88,"x_max":746,"o":"m 276 0 q 190 0 233 0 q 103 0 147 0 q 95 2 99 0 q 90 7 92 4 q 88 15 88 10 q 88 218 88 117 q 88 420 88 319 q 88 623 88 521 q 88 825 88 725 q 88 899 88 863 q 88 972 88 936 q 158 972 117 972 q 241 972 200 972 q 310 972 282 972 q 324 969 318 972 q 334 956 329 967 q 347 921 339 946 q 374 849 360 889 q 407 760 389 808 q 446 655 425 711 q 490 535 467 599 q 538 402 513 472 q 589 256 563 332 l 544 276 l 636 276 l 610 260 q 586 405 596 343 q 571 517 576 467 q 563 607 565 567 q 558 686 560 647 q 557 767 557 725 q 557 869 557 818 q 557 972 557 921 q 644 972 601 972 q 731 972 688 972 q 742 968 738 972 q 746 957 746 964 q 746 756 746 857 q 746 555 746 656 q 746 354 746 454 q 746 153 746 254 q 746 76 746 114 q 746 0 746 38 q 680 0 718 0 q 606 0 642 0 q 551 0 571 0 q 527 6 536 0 q 506 44 518 13 q 447 195 478 115 q 383 362 415 275 q 315 542 350 449 q 246 732 281 635 l 292 711 l 199 711 l 224 729 q 247 584 238 647 q 261 472 256 521 q 270 381 267 422 q 275 303 274 340 q 276 226 276 265 q 276 115 275 172 q 276 0 276 57 z "},"Ñ":{"ha":833,"x_min":88,"x_max":746,"o":"m 276 0 q 190 0 233 0 q 103 0 147 0 q 95 2 99 0 q 90 7 92 4 q 88 15 88 10 q 88 218 88 117 q 88 420 88 319 q 88 623 88 521 q 88 825 88 725 q 88 899 88 863 q 88 972 88 936 q 158 972 117 972 q 241 972 200 972 q 310 972 282 972 q 324 969 318 972 q 334 956 329 967 q 347 921 339 946 q 374 849 360 889 q 407 760 389 808 q 446 655 425 711 q 490 535 467 599 q 538 402 513 472 q 589 256 563 332 l 544 276 l 636 276 l 610 260 q 586 405 596 343 q 571 517 576 467 q 563 607 565 567 q 558 686 560 647 q 557 767 557 725 q 557 869 557 818 q 557 972 557 921 q 644 972 601 972 q 731 972 688 972 q 742 968 738 972 q 746 957 746 964 q 746 756 746 857 q 746 555 746 656 q 746 354 746 454 q 746 153 746 254 q 746 76 746 114 q 746 0 746 38 q 680 0 718 0 q 606 0 642 0 q 551 0 571 0 q 527 6 536 0 q 506 44 518 13 q 447 195 478 115 q 383 362 415 275 q 315 542 350 449 q 246 732 281 635 l 292 711 l 199 711 l 224 729 q 247 584 238 647 q 261 472 256 521 q 270 381 267 422 q 275 303 274 340 q 276 226 276 265 q 276 115 275 172 q 276 0 276 57 m 564 1228 q 624 1241 597 1228 q 672 1285 650 1254 l 699 1285 q 699 1217 699 1250 q 699 1156 699 1183 q 697 1139 699 1144 q 689 1126 696 1133 q 635 1089 667 1103 q 557 1075 604 1075 q 475 1087 513 1075 q 404 1114 438 1099 q 338 1141 371 1129 q 269 1153 306 1153 q 210 1139 236 1153 q 161 1096 183 1125 l 135 1096 q 135 1164 135 1131 q 135 1225 135 1197 q 136 1241 135 1235 q 144 1256 138 1247 q 198 1293 167 1279 q 276 1307 229 1307 q 358 1294 321 1307 q 429 1267 396 1282 q 495 1240 463 1253 q 564 1228 528 1228 z "},"Ń":{"ha":833,"x_min":88,"x_max":746,"o":"m 276 0 q 190 0 233 0 q 103 0 147 0 q 95 2 99 0 q 90 7 92 4 q 88 15 88 10 q 88 218 88 117 q 88 420 88 319 q 88 623 88 521 q 88 825 88 725 q 88 899 88 863 q 88 972 88 936 q 158 972 117 972 q 241 972 200 972 q 310 972 282 972 q 324 969 318 972 q 334 956 329 967 q 347 921 339 946 q 374 849 360 889 q 407 760 389 808 q 446 655 425 711 q 490 535 467 599 q 538 402 513 472 q 589 256 563 332 l 544 276 l 636 276 l 610 260 q 586 405 596 343 q 571 517 576 467 q 563 607 565 567 q 558 686 560 647 q 557 767 557 725 q 557 869 557 818 q 557 972 557 921 q 644 972 601 972 q 731 972 688 972 q 742 968 738 972 q 746 957 746 964 q 746 756 746 857 q 746 555 746 656 q 746 354 746 454 q 746 153 746 254 q 746 76 746 114 q 746 0 746 38 q 680 0 718 0 q 606 0 642 0 q 551 0 571 0 q 527 6 536 0 q 506 44 518 13 q 447 195 478 115 q 383 362 415 275 q 315 542 350 449 q 246 732 281 635 l 292 711 l 199 711 l 224 729 q 247 584 238 647 q 261 472 256 521 q 270 381 267 422 q 275 303 274 340 q 276 226 276 265 q 276 115 275 172 q 276 0 276 57 m 476 1313 q 559 1313 529 1313 q 616 1313 589 1313 q 686 1313 643 1313 q 697 1306 694 1313 q 694 1293 700 1300 q 649 1242 668 1264 q 610 1198 629 1219 q 567 1150 592 1176 q 507 1083 543 1124 q 499 1078 504 1081 q 485 1075 493 1075 q 422 1075 446 1075 q 378 1075 397 1075 q 335 1075 358 1075 q 383 1156 360 1118 q 429 1232 406 1193 q 476 1313 453 1271 z "},"Ņ":{"ha":833,"x_min":88,"x_max":746,"o":"m 276 0 q 190 0 233 0 q 103 0 147 0 q 95 2 99 0 q 90 7 92 4 q 88 15 88 10 q 88 218 88 117 q 88 420 88 319 q 88 623 88 521 q 88 825 88 725 q 88 899 88 863 q 88 972 88 936 q 158 972 117 972 q 241 972 200 972 q 310 972 282 972 q 324 969 318 972 q 334 956 329 967 q 347 921 339 946 q 374 849 360 889 q 407 760 389 808 q 446 655 425 711 q 490 535 467 599 q 538 402 513 472 q 589 256 563 332 l 544 276 l 636 276 l 610 260 q 586 405 596 343 q 571 517 576 467 q 563 607 565 567 q 558 686 560 647 q 557 767 557 725 q 557 869 557 818 q 557 972 557 921 q 644 972 601 972 q 731 972 688 972 q 742 968 738 972 q 746 957 746 964 q 746 756 746 857 q 746 555 746 656 q 746 354 746 454 q 746 153 746 254 q 746 76 746 114 q 746 0 746 38 q 680 0 718 0 q 606 0 642 0 q 551 0 571 0 q 527 6 536 0 q 506 44 518 13 q 447 195 478 115 q 383 362 415 275 q 315 542 350 449 q 246 732 281 635 l 292 711 l 199 711 l 224 729 q 247 584 238 647 q 261 472 256 521 q 270 381 267 422 q 275 303 274 340 q 276 226 276 265 q 276 115 275 172 q 276 0 276 57 m 344 -85 q 406 -85 376 -85 q 467 -85 436 -85 q 529 -85 499 -85 q 542 -90 538 -85 q 544 -103 547 -94 q 515 -180 529 -143 q 487 -253 500 -217 q 457 -332 474 -289 q 451 -342 456 -337 q 436 -346 446 -346 q 369 -346 408 -346 q 286 -346 331 -346 q 306 -256 296 -300 q 325 -168 315 -211 q 344 -85 335 -125 z "},"Ň":{"ha":833,"x_min":79,"x_max":746,"o":"m 276 0 q 190 0 233 0 q 103 0 147 0 q 95 2 99 0 q 90 7 92 4 q 88 15 88 10 q 88 218 88 117 q 88 420 88 319 q 88 623 88 521 q 88 825 88 725 q 88 899 88 863 q 88 972 88 936 q 158 972 117 972 q 241 972 200 972 q 310 972 282 972 q 324 969 318 972 q 334 956 329 967 q 347 921 339 946 q 374 849 360 889 q 407 760 389 808 q 446 655 425 711 q 490 535 467 599 q 538 402 513 472 q 589 256 563 332 l 544 276 l 636 276 l 610 260 q 586 405 596 343 q 571 517 576 467 q 563 607 565 567 q 558 686 560 647 q 557 767 557 725 q 557 869 557 818 q 557 972 557 921 q 644 972 601 972 q 731 972 688 972 q 742 968 738 972 q 746 957 746 964 q 746 756 746 857 q 746 555 746 656 q 746 354 746 454 q 746 153 746 254 q 746 76 746 114 q 746 0 746 38 q 680 0 718 0 q 606 0 642 0 q 551 0 571 0 q 527 6 536 0 q 506 44 518 13 q 447 195 478 115 q 383 362 415 275 q 315 542 350 449 q 246 732 281 635 l 292 711 l 199 711 l 224 729 q 247 584 238 647 q 261 472 256 521 q 270 381 267 422 q 275 303 274 340 q 276 226 276 265 q 276 115 275 172 q 276 0 276 57 m 521 1075 q 463 1075 501 1075 q 388 1075 425 1075 q 332 1075 350 1075 q 314 1079 322 1075 q 288 1101 306 1083 q 253 1135 276 1113 q 201 1188 231 1158 q 140 1251 171 1218 q 79 1313 108 1283 q 162 1313 114 1313 q 246 1313 210 1313 q 267 1310 261 1313 q 285 1299 274 1308 q 345 1249 306 1282 q 442 1163 385 1215 l 369 1192 q 415 1192 392 1192 q 460 1192 438 1192 l 390 1160 q 488 1248 444 1211 q 564 1313 531 1285 l 724 1313 q 733 1312 729 1313 q 738 1309 736 1311 q 739 1303 739 1307 q 734 1292 739 1297 q 710 1267 729 1286 q 667 1225 692 1250 q 616 1172 643 1200 q 564 1119 589 1144 q 521 1075 539 1093 z "},"Ṅ":{"ha":833,"x_min":88,"x_max":746,"o":"m 296 1290 q 351 1290 322 1290 q 409 1290 379 1290 q 467 1290 439 1290 q 522 1290 496 1290 q 533 1286 529 1290 q 538 1275 538 1282 l 538 1096 q 483 1096 511 1096 q 424 1096 454 1096 q 366 1096 394 1096 q 311 1096 338 1096 q 300 1100 304 1096 q 296 1111 296 1104 l 296 1290 m 276 0 q 190 0 233 0 q 103 0 147 0 q 95 2 99 0 q 90 7 92 4 q 88 15 88 10 q 88 218 88 117 q 88 420 88 319 q 88 623 88 521 q 88 825 88 725 q 88 899 88 863 q 88 972 88 936 q 158 972 117 972 q 240 972 199 972 q 310 972 282 972 q 324 969 318 972 q 334 956 329 967 q 347 921 339 946 q 374 849 360 889 q 407 760 389 808 q 446 655 425 711 q 490 535 467 599 q 538 402 513 472 q 589 256 563 332 l 544 276 l 636 276 l 610 260 q 586 405 596 343 q 571 517 576 467 q 563 607 565 567 q 558 686 560 647 q 557 767 557 725 q 557 869 557 818 q 557 972 557 921 q 644 972 601 972 q 731 972 688 972 q 742 968 738 972 q 746 957 746 964 q 746 756 746 857 q 746 555 746 656 q 746 354 746 454 q 746 153 746 254 q 746 76 746 114 q 746 0 746 38 q 680 0 718 0 q 606 0 642 0 q 551 0 571 0 q 527 6 536 0 q 506 44 518 13 q 447 195 478 115 q 383 362 415 275 q 315 542 350 449 q 246 732 281 635 l 292 711 l 199 711 l 224 729 q 247 584 238 647 q 261 472 256 521 q 270 381 267 422 q 275 303 274 340 q 276 226 276 265 q 276 115 275 172 q 276 0 276 57 z "},"Ṇ":{"ha":833,"x_min":88,"x_max":746,"o":"m 301 -139 q 356 -139 329 -139 q 409 -139 382 -139 q 463 -139 436 -139 q 517 -139 489 -139 q 528 -143 524 -139 q 532 -154 532 -147 l 532 -333 q 478 -333 504 -333 q 424 -333 451 -333 q 371 -333 397 -333 q 317 -333 344 -333 q 306 -329 310 -333 q 301 -318 301 -325 l 301 -139 m 276 0 q 190 0 233 0 q 103 0 147 0 q 95 2 99 0 q 90 7 92 4 q 88 15 88 10 q 88 218 88 117 q 88 420 88 319 q 88 623 88 521 q 88 825 88 725 q 88 899 88 863 q 88 972 88 936 q 158 972 117 972 q 241 972 200 972 q 310 972 282 972 q 324 969 318 972 q 334 956 329 967 q 347 921 339 946 q 374 849 360 889 q 407 760 389 808 q 446 655 425 711 q 490 535 467 599 q 538 402 513 472 q 589 256 563 332 l 544 276 l 636 276 l 610 260 q 586 405 596 343 q 571 517 576 467 q 563 607 565 567 q 558 686 560 647 q 557 767 557 725 q 557 869 557 818 q 557 972 557 921 q 644 972 601 972 q 731 972 688 972 q 742 968 738 972 q 746 957 746 964 q 746 756 746 857 q 746 555 746 656 q 746 354 746 454 q 746 153 746 254 q 746 76 746 114 q 746 0 746 38 q 680 0 718 0 q 606 0 642 0 q 551 0 571 0 q 527 6 536 0 q 506 44 518 13 q 447 195 478 115 q 383 362 415 275 q 315 542 350 449 q 246 732 281 635 l 292 711 l 199 711 l 224 729 q 247 584 238 647 q 261 472 256 521 q 270 381 267 422 q 275 303 274 340 q 276 226 276 265 q 276 115 275 172 q 276 0 276 57 z "},"Ṉ":{"ha":833,"x_min":88,"x_max":746,"o":"m 168 -87 l 650 -87 q 661 -92 657 -87 q 665 -103 665 -96 q 665 -149 665 -126 q 665 -195 665 -172 q 665 -243 665 -218 l 183 -243 q 175 -241 178 -243 q 170 -235 172 -239 q 168 -228 168 -232 q 168 -180 168 -203 q 168 -134 168 -157 q 168 -87 168 -111 m 276 0 q 190 0 233 0 q 103 0 147 0 q 95 2 99 0 q 90 7 92 4 q 88 15 88 10 q 88 218 88 117 q 88 420 88 319 q 88 623 88 521 q 88 825 88 725 q 88 899 88 863 q 88 972 88 936 q 158 972 117 972 q 241 972 200 972 q 310 972 282 972 q 324 969 318 972 q 334 956 329 967 q 347 921 339 946 q 374 849 360 889 q 407 760 389 808 q 446 655 425 711 q 490 535 467 599 q 538 402 513 472 q 589 256 563 332 l 544 276 l 636 276 l 610 260 q 586 405 596 343 q 571 517 576 467 q 563 607 565 567 q 558 686 560 647 q 557 767 557 725 q 557 869 557 818 q 557 972 557 921 q 644 972 601 972 q 731 972 688 972 q 742 968 738 972 q 746 957 746 964 q 746 756 746 857 q 746 555 746 656 q 746 354 746 454 q 746 153 746 254 q 746 76 746 114 q 746 0 746 38 q 680 0 718 0 q 606 0 642 0 q 551 0 571 0 q 527 6 536 0 q 506 44 518 13 q 447 195 478 115 q 383 362 415 275 q 315 542 350 449 q 246 732 281 635 l 292 711 l 199 711 l 224 729 q 247 584 238 647 q 261 472 256 521 q 270 381 267 422 q 275 303 274 340 q 276 226 276 265 q 276 115 275 172 q 276 0 276 57 z "},"O":{"ha":833,"x_min":79,"x_max":754,"o":"m 417 1000 q 596 962 521 1000 q 713 848 671 924 q 754 664 754 772 l 754 308 q 713 124 754 200 q 596 10 671 49 q 417 -28 521 -28 q 238 10 314 -28 q 121 124 163 49 q 79 308 79 200 l 79 664 q 121 848 79 772 q 238 962 163 924 q 417 1000 314 1000 m 267 310 q 276 234 267 268 q 308 179 286 200 q 352 151 325 161 q 417 142 379 142 q 502 162 469 142 q 551 219 535 182 q 567 310 567 257 l 567 663 q 563 715 567 690 q 549 760 558 740 q 525 793 540 779 q 481 822 507 813 q 417 831 454 831 q 332 810 365 831 q 283 753 299 790 q 267 663 267 717 l 267 310 z "},"Ò":{"ha":833,"x_min":79,"x_max":754,"o":"m 417 1000 q 596 962 521 1000 q 713 848 671 924 q 754 664 754 772 l 754 308 q 713 124 754 200 q 596 10 671 49 q 417 -28 521 -28 q 238 10 314 -28 q 121 124 163 49 q 79 308 79 200 l 79 664 q 121 848 79 772 q 238 962 163 924 q 417 1000 314 1000 m 267 310 q 276 234 267 268 q 308 179 286 200 q 352 151 325 161 q 417 142 379 142 q 502 162 469 142 q 551 219 535 182 q 567 310 567 257 l 567 663 q 563 715 567 690 q 549 760 558 740 q 525 793 540 779 q 481 822 507 813 q 417 831 454 831 q 332 810 365 831 q 283 753 299 790 q 267 663 267 717 l 267 310 m 358 1314 q 406 1233 383 1272 q 452 1157 429 1194 q 499 1076 475 1119 q 456 1076 475 1076 q 412 1076 436 1076 q 349 1076 388 1076 q 335 1079 340 1076 q 326 1085 329 1082 q 266 1151 290 1125 q 223 1199 242 1178 q 184 1243 204 1221 q 138 1294 164 1265 q 135 1308 132 1301 q 147 1314 139 1314 q 219 1314 192 1314 q 276 1314 246 1314 q 358 1314 307 1314 z "},"Ó":{"ha":833,"x_min":79,"x_max":754,"o":"m 417 1000 q 596 962 521 1000 q 713 848 671 924 q 754 664 754 772 l 754 308 q 713 124 754 200 q 596 10 671 49 q 417 -28 521 -28 q 238 10 314 -28 q 121 124 163 49 q 79 308 79 200 l 79 664 q 121 848 79 772 q 238 962 163 924 q 417 1000 314 1000 m 267 310 q 276 234 267 268 q 308 179 286 200 q 352 151 325 161 q 417 142 379 142 q 502 162 469 142 q 551 219 535 182 q 567 310 567 257 l 567 663 q 563 715 567 690 q 549 760 558 740 q 525 793 540 779 q 481 822 507 813 q 417 831 454 831 q 332 810 365 831 q 283 753 299 790 q 267 663 267 717 l 267 310 m 476 1314 q 559 1314 529 1314 q 616 1314 589 1314 q 686 1314 643 1314 q 697 1308 694 1314 q 694 1294 700 1301 q 649 1243 668 1265 q 610 1199 629 1221 q 567 1151 592 1178 q 507 1085 543 1125 q 499 1079 504 1082 q 485 1076 493 1076 q 422 1076 446 1076 q 378 1076 397 1076 q 335 1076 358 1076 q 383 1157 360 1119 q 429 1233 406 1194 q 476 1314 453 1272 z "},"Ô":{"ha":833,"x_min":79,"x_max":756,"o":"m 417 1000 q 596 962 521 1000 q 713 848 671 924 q 754 664 754 772 l 754 308 q 713 124 754 200 q 596 10 671 49 q 417 -28 521 -28 q 238 10 314 -28 q 121 124 163 49 q 79 308 79 200 l 79 664 q 121 848 79 772 q 238 962 163 924 q 417 1000 314 1000 m 267 310 q 276 234 267 268 q 308 179 286 200 q 352 151 325 161 q 417 142 379 142 q 502 162 469 142 q 551 219 535 182 q 567 310 567 257 l 567 663 q 563 715 567 690 q 549 760 558 740 q 525 793 540 779 q 481 822 507 813 q 417 831 454 831 q 332 810 365 831 q 283 753 299 790 q 267 663 267 717 l 267 310 m 314 1314 q 372 1314 335 1314 q 447 1314 410 1314 q 503 1314 483 1314 q 520 1310 513 1314 q 547 1288 528 1306 q 581 1253 558 1276 q 634 1201 604 1231 q 695 1138 664 1171 q 756 1076 726 1106 q 672 1076 719 1076 q 589 1076 625 1076 q 567 1079 574 1076 q 550 1090 561 1082 q 489 1140 528 1107 q 393 1228 450 1174 l 465 1199 q 420 1199 443 1199 q 374 1199 397 1199 l 444 1229 q 347 1142 390 1179 q 269 1076 304 1106 l 111 1076 q 102 1077 106 1076 q 97 1081 99 1078 q 96 1086 96 1083 q 101 1097 96 1092 q 125 1122 106 1103 q 167 1166 143 1142 q 219 1217 192 1190 q 270 1270 246 1244 q 314 1314 294 1296 z "},"Õ":{"ha":833,"x_min":79,"x_max":754,"o":"m 417 1000 q 596 962 521 1000 q 713 848 671 924 q 754 664 754 772 l 754 308 q 713 124 754 200 q 596 10 671 49 q 417 -28 521 -28 q 238 10 314 -28 q 121 124 163 49 q 79 308 79 200 l 79 664 q 121 848 79 772 q 238 962 163 924 q 417 1000 314 1000 m 267 310 q 276 234 267 268 q 308 179 286 200 q 352 151 325 161 q 417 142 379 142 q 502 162 469 142 q 551 219 535 182 q 567 310 567 257 l 567 663 q 563 715 567 690 q 549 760 558 740 q 525 793 540 779 q 481 822 507 813 q 417 831 454 831 q 332 810 365 831 q 283 753 299 790 q 267 663 267 717 l 267 310 m 564 1229 q 624 1242 597 1229 q 672 1286 650 1256 l 699 1286 q 699 1218 699 1251 q 699 1157 699 1185 q 697 1140 699 1146 q 689 1128 696 1135 q 635 1090 667 1104 q 557 1076 604 1076 q 475 1088 513 1076 q 404 1115 438 1100 q 338 1142 371 1131 q 269 1154 306 1154 q 210 1140 236 1154 q 161 1097 183 1126 l 135 1097 q 135 1165 135 1132 q 135 1226 135 1199 q 136 1242 135 1236 q 144 1257 138 1249 q 198 1294 167 1281 q 276 1308 229 1308 q 358 1296 321 1308 q 429 1269 396 1283 q 495 1242 463 1254 q 564 1229 528 1229 z "},"Ö":{"ha":833,"x_min":79,"x_max":754,"o":"m 417 1000 q 596 962 521 1000 q 713 848 671 924 q 754 664 754 772 l 754 308 q 713 124 754 200 q 596 10 671 49 q 417 -28 521 -28 q 238 10 314 -28 q 121 124 163 49 q 79 308 79 200 l 79 664 q 121 848 79 772 q 238 962 163 924 q 417 1000 314 1000 m 267 310 q 276 234 267 268 q 308 179 286 200 q 352 151 325 161 q 417 142 379 142 q 502 162 469 142 q 551 219 535 182 q 567 310 567 257 l 567 663 q 563 715 567 690 q 549 760 558 740 q 525 793 540 779 q 481 822 507 813 q 417 831 454 831 q 332 810 365 831 q 283 753 299 790 q 267 663 267 717 l 267 310 m 165 1289 q 258 1289 211 1289 q 351 1289 306 1289 q 360 1287 357 1289 q 365 1282 363 1285 q 367 1274 367 1279 l 367 1099 q 274 1099 321 1099 q 181 1099 226 1099 q 173 1101 176 1099 q 167 1106 169 1103 q 165 1114 165 1110 l 165 1289 m 467 1289 q 560 1289 513 1289 q 653 1289 607 1289 q 661 1287 658 1289 q 666 1282 664 1285 q 668 1274 668 1279 l 668 1099 q 575 1099 622 1099 q 482 1099 528 1099 q 474 1101 478 1099 q 469 1106 471 1103 q 467 1114 467 1110 l 467 1289 z "},"Ō":{"ha":833,"x_min":79,"x_max":754,"o":"m 417 1000 q 596 962 521 1000 q 713 848 671 924 q 754 664 754 772 l 754 308 q 713 124 754 200 q 596 10 671 49 q 417 -28 521 -28 q 238 10 314 -28 q 121 124 163 49 q 79 308 79 200 l 79 664 q 121 848 79 772 q 238 962 163 924 q 417 1000 314 1000 m 267 310 q 276 234 267 268 q 308 179 286 200 q 352 151 325 161 q 417 142 379 142 q 502 162 469 142 q 551 219 535 182 q 567 310 567 257 l 567 663 q 563 715 567 690 q 549 760 558 740 q 525 793 540 779 q 481 822 507 813 q 417 831 454 831 q 332 810 365 831 q 283 753 299 790 q 267 663 267 717 l 267 310 m 168 1268 l 650 1268 q 661 1264 657 1268 q 665 1253 665 1260 q 665 1183 665 1217 q 665 1113 665 1149 l 183 1113 q 176 1115 179 1113 q 170 1120 172 1117 q 168 1128 168 1124 q 168 1198 168 1164 q 168 1268 168 1232 z "},"Ŏ":{"ha":833,"x_min":79,"x_max":754,"o":"m 417 1000 q 596 962 521 1000 q 713 848 671 924 q 754 664 754 772 l 754 308 q 713 124 754 200 q 596 10 671 49 q 417 -28 521 -28 q 238 10 314 -28 q 121 124 163 49 q 79 308 79 200 l 79 664 q 121 848 79 772 q 238 962 163 924 q 417 1000 314 1000 m 267 310 q 276 234 267 268 q 308 179 286 200 q 352 151 325 161 q 417 142 379 142 q 502 162 469 142 q 551 219 535 182 q 567 310 567 257 l 567 663 q 563 715 567 690 q 549 760 558 740 q 525 793 540 779 q 481 822 507 813 q 417 831 454 831 q 332 810 365 831 q 283 753 299 790 q 267 663 267 717 l 267 310 m 546 1315 q 604 1315 575 1315 q 663 1315 633 1315 q 681 1310 676 1315 q 682 1288 685 1304 q 642 1190 674 1236 q 560 1115 610 1143 q 450 1086 511 1086 l 383 1086 q 273 1115 322 1086 q 192 1190 224 1143 q 151 1288 160 1236 q 153 1310 150 1304 q 171 1315 157 1315 q 229 1315 200 1315 q 288 1315 258 1315 q 336 1251 306 1269 q 417 1233 367 1233 q 497 1251 467 1233 q 546 1315 528 1269 z "},"Ő":{"ha":833,"x_min":79,"x_max":851,"o":"m 332 1314 q 413 1314 383 1314 q 470 1314 443 1314 q 542 1314 497 1314 q 553 1308 550 1314 q 550 1294 556 1301 q 503 1243 524 1265 q 465 1199 483 1221 q 422 1151 446 1178 q 361 1085 397 1125 q 353 1079 358 1082 q 339 1076 347 1076 q 277 1076 301 1076 q 233 1076 253 1076 q 189 1076 214 1076 q 238 1158 215 1119 q 284 1234 261 1196 q 332 1314 307 1272 m 626 1314 q 709 1314 679 1314 q 766 1314 739 1314 q 836 1314 793 1314 q 848 1308 844 1314 q 846 1294 851 1301 q 799 1243 819 1265 q 760 1199 779 1221 q 717 1151 742 1178 q 657 1085 693 1125 q 649 1079 654 1082 q 635 1076 643 1076 q 572 1076 596 1076 q 528 1076 547 1076 q 485 1076 508 1076 q 533 1158 511 1119 q 579 1234 556 1196 q 626 1314 603 1272 m 417 1000 q 595 962 519 1000 q 713 848 671 924 q 754 664 754 772 l 754 308 q 713 124 754 200 q 596 10 671 49 q 418 -28 521 -28 q 238 10 314 -28 q 121 124 163 49 q 79 308 79 200 l 79 664 q 121 848 79 772 q 238 962 163 924 q 417 1000 314 1000 m 267 310 q 276 234 267 268 q 308 179 286 200 q 352 151 325 161 q 417 142 379 142 q 502 162 469 142 q 551 219 535 182 q 567 310 567 257 l 567 663 q 563 715 567 690 q 549 760 558 740 q 525 793 540 779 q 481 822 507 813 q 417 831 454 831 q 332 810 365 831 q 283 753 299 790 q 267 663 267 717 l 267 310 z "},"Ơ":{"ha":833,"x_min":79,"x_max":819,"o":"m 417 1000 q 596 962 521 1000 q 713 848 671 924 q 754 664 754 772 l 754 308 q 713 124 754 200 q 596 10 671 49 q 417 -28 521 -28 q 238 10 314 -28 q 121 124 163 49 q 79 308 79 200 l 79 664 q 121 848 79 772 q 238 962 163 924 q 417 1000 314 1000 m 267 310 q 276 234 267 268 q 308 179 286 200 q 352 151 325 161 q 417 142 379 142 q 502 162 469 142 q 551 219 535 182 q 567 310 567 257 l 567 663 q 563 715 567 690 q 549 760 558 740 q 525 793 540 779 q 481 822 507 813 q 417 831 454 831 q 332 810 365 831 q 283 753 299 790 q 267 663 267 717 l 267 310 m 654 1154 q 727 1154 690 1154 q 797 1154 764 1154 q 815 1149 810 1154 q 819 1132 819 1143 q 819 1101 819 1124 q 819 1065 819 1079 q 813 994 819 1024 q 792 944 806 965 q 754 899 779 922 q 690 836 718 863 q 626 779 661 810 q 626 810 626 789 q 626 856 626 831 q 626 905 626 882 q 626 940 626 928 q 633 956 629 947 q 643 978 638 964 q 652 1006 650 992 q 654 1043 654 1021 q 654 1092 654 1058 q 654 1154 654 1125 z "},"Ǫ":{"ha":833,"x_min":79,"x_max":754,"o":"m 417 1000 q 596 962 521 1000 q 713 848 671 924 q 754 664 754 772 l 754 308 q 713 124 754 200 q 596 10 671 49 q 417 -28 521 -28 q 238 10 314 -28 q 121 124 163 49 q 79 308 79 200 l 79 664 q 121 848 79 772 q 238 962 163 924 q 417 1000 314 1000 m 267 310 q 276 234 267 268 q 308 179 286 200 q 352 151 325 161 q 417 142 379 142 q 502 162 469 142 q 551 219 535 182 q 567 310 567 257 l 567 663 q 563 715 567 690 q 549 760 558 740 q 525 793 540 779 q 481 822 507 813 q 417 831 454 831 q 332 810 365 831 q 283 753 299 790 q 267 663 267 717 l 267 310 m 603 93 q 653 111 626 106 q 708 118 679 117 q 690 89 700 103 q 664 60 679 75 q 606 -9 626 22 q 578 -65 586 -40 q 569 -111 569 -90 q 585 -154 569 -142 q 628 -167 600 -167 q 663 -162 647 -167 q 694 -147 679 -157 l 721 -147 q 721 -176 721 -160 q 721 -219 721 -192 q 721 -299 721 -247 q 688 -333 721 -319 q 607 -347 654 -347 q 458 -306 513 -347 q 403 -176 403 -265 q 415 -92 403 -132 q 453 -19 428 -53 q 517 44 479 15 q 603 93 554 72 z "},"Ȍ":{"ha":833,"x_min":0,"x_max":754,"o":"m 225 1315 q 274 1235 251 1274 q 319 1158 296 1196 q 367 1078 343 1121 q 323 1078 343 1078 q 279 1078 303 1078 q 217 1078 256 1078 q 202 1081 208 1078 q 193 1086 196 1083 q 133 1153 157 1126 q 90 1201 108 1179 q 51 1244 71 1222 q 6 1296 32 1267 q 3 1309 0 1303 q 14 1315 6 1315 q 85 1315 58 1315 q 143 1315 113 1315 q 225 1315 174 1315 m 521 1315 q 569 1235 546 1274 q 615 1158 592 1196 q 663 1078 638 1121 q 618 1078 638 1078 q 575 1078 599 1078 q 511 1078 551 1078 q 497 1081 503 1078 q 489 1086 492 1083 q 428 1153 453 1126 q 385 1201 404 1179 q 347 1244 367 1222 q 300 1296 326 1267 q 298 1309 294 1303 q 310 1315 301 1315 q 382 1315 354 1315 q 440 1315 410 1315 q 521 1315 469 1315 m 417 1000 q 595 962 519 1000 q 713 848 671 924 q 754 664 754 772 l 754 308 q 713 124 754 200 q 596 10 671 49 q 418 -28 521 -28 q 238 10 314 -28 q 121 124 163 49 q 79 308 79 200 l 79 664 q 121 848 79 772 q 238 962 163 924 q 417 1000 314 1000 m 267 310 q 276 234 267 268 q 308 179 286 200 q 352 151 325 161 q 417 142 379 142 q 502 162 469 142 q 551 219 535 182 q 567 310 567 257 l 567 663 q 563 715 567 690 q 549 760 558 740 q 525 793 540 779 q 481 822 507 813 q 417 831 454 831 q 332 810 365 831 q 283 753 299 790 q 267 663 267 717 l 267 310 z "},"Ȏ":{"ha":833,"x_min":79,"x_max":754,"o":"m 417 1000 q 596 962 521 1000 q 713 848 671 924 q 754 664 754 772 l 754 308 q 713 124 754 200 q 596 10 671 49 q 417 -28 521 -28 q 238 10 314 -28 q 121 124 163 49 q 79 308 79 200 l 79 664 q 121 848 79 772 q 238 962 163 924 q 417 1000 314 1000 m 267 310 q 276 234 267 268 q 308 179 286 200 q 352 151 325 161 q 417 142 379 142 q 502 162 469 142 q 551 219 535 182 q 567 310 567 257 l 567 663 q 563 715 567 690 q 549 760 558 740 q 525 793 540 779 q 481 822 507 813 q 417 831 454 831 q 332 810 365 831 q 283 753 299 790 q 267 663 267 717 l 267 310 m 288 1083 q 229 1083 258 1083 q 171 1083 200 1083 q 153 1088 157 1083 q 151 1110 150 1093 q 192 1208 160 1163 q 273 1283 224 1254 q 383 1313 322 1313 l 450 1313 q 560 1283 511 1313 q 642 1208 610 1254 q 682 1110 674 1163 q 681 1088 685 1093 q 663 1083 676 1083 q 604 1083 633 1083 q 546 1083 575 1083 q 497 1146 528 1128 q 417 1164 467 1164 q 336 1146 367 1164 q 288 1083 306 1128 z "},"Ȫ":{"ha":833,"x_min":79,"x_max":754,"o":"m 417 1000 q 596 962 521 1000 q 713 848 671 924 q 754 664 754 772 l 754 308 q 713 124 754 200 q 596 10 671 49 q 417 -28 521 -28 q 238 10 314 -28 q 121 124 163 49 q 79 308 79 200 l 79 664 q 121 848 79 772 q 238 962 163 924 q 417 1000 314 1000 m 267 310 q 276 234 267 268 q 308 179 286 200 q 352 151 325 161 q 417 142 379 142 q 502 162 469 142 q 551 219 535 182 q 567 310 567 257 l 567 663 q 563 715 567 690 q 549 760 558 740 q 525 793 540 779 q 481 822 507 813 q 417 831 454 831 q 332 810 365 831 q 283 753 299 790 q 267 663 267 717 l 267 310 m 165 1289 q 258 1289 211 1289 q 351 1289 306 1289 q 360 1287 357 1289 q 365 1282 363 1285 q 367 1274 367 1279 l 367 1099 q 274 1099 321 1099 q 181 1099 226 1099 q 173 1101 176 1099 q 167 1106 169 1103 q 165 1114 165 1110 l 165 1289 m 467 1289 q 560 1289 513 1289 q 653 1289 607 1289 q 661 1287 658 1289 q 666 1282 664 1285 q 668 1274 668 1279 l 668 1099 q 575 1099 622 1099 q 482 1099 528 1099 q 474 1101 478 1099 q 469 1106 471 1103 q 467 1114 467 1110 l 467 1289 m 168 1522 l 650 1522 q 661 1518 657 1522 q 665 1507 665 1514 q 665 1437 665 1471 q 665 1367 665 1403 l 183 1367 q 176 1369 179 1367 q 170 1374 172 1371 q 168 1382 168 1378 q 168 1452 168 1418 q 168 1522 168 1486 z "},"Ȭ":{"ha":833,"x_min":79,"x_max":754,"o":"m 417 1000 q 596 962 521 1000 q 713 848 671 924 q 754 664 754 772 l 754 308 q 713 124 754 200 q 596 10 671 49 q 417 -28 521 -28 q 238 10 314 -28 q 121 124 163 49 q 79 308 79 200 l 79 664 q 121 848 79 772 q 238 962 163 924 q 417 1000 314 1000 m 267 310 q 276 234 267 268 q 308 179 286 200 q 352 151 325 161 q 417 142 379 142 q 502 162 469 142 q 551 219 535 182 q 567 310 567 257 l 567 663 q 563 715 567 690 q 549 760 558 740 q 525 793 540 779 q 481 822 507 813 q 417 831 454 831 q 332 810 365 831 q 283 753 299 790 q 267 663 267 717 l 267 310 m 564 1229 q 624 1242 597 1229 q 672 1286 650 1256 l 699 1286 q 699 1218 699 1251 q 699 1157 699 1185 q 697 1140 699 1146 q 689 1128 696 1135 q 635 1090 667 1104 q 557 1076 604 1076 q 475 1088 513 1076 q 404 1115 438 1100 q 338 1142 371 1131 q 269 1154 306 1154 q 210 1140 236 1154 q 161 1097 183 1126 l 135 1097 q 135 1165 135 1132 q 135 1226 135 1199 q 136 1242 135 1236 q 144 1257 138 1249 q 198 1294 167 1281 q 276 1308 229 1308 q 358 1296 321 1308 q 429 1269 396 1283 q 495 1242 463 1254 q 564 1229 528 1229 m 168 1536 l 650 1536 q 661 1532 657 1536 q 665 1521 665 1528 q 665 1451 665 1485 q 665 1381 665 1417 l 183 1381 q 176 1383 179 1381 q 170 1388 172 1385 q 168 1396 168 1392 q 168 1466 168 1432 q 168 1536 168 1500 z "},"Ȱ":{"ha":833,"x_min":79,"x_max":754,"o":"m 296 1292 q 351 1292 322 1292 q 409 1292 379 1292 q 467 1292 439 1292 q 522 1292 496 1292 q 533 1288 529 1292 q 538 1276 538 1283 l 538 1097 q 483 1097 511 1097 q 424 1097 454 1097 q 366 1097 394 1097 q 311 1097 338 1097 q 300 1101 304 1097 q 296 1113 296 1106 l 296 1292 m 417 1000 q 596 962 521 1000 q 713 848 671 924 q 754 664 754 772 l 754 308 q 713 124 754 200 q 596 10 671 49 q 417 -28 521 -28 q 238 10 314 -28 q 121 124 163 49 q 79 308 79 200 l 79 664 q 121 848 79 772 q 238 962 163 924 q 417 1000 314 1000 m 267 310 q 276 234 267 268 q 308 179 286 200 q 352 151 325 161 q 417 142 379 142 q 502 162 469 142 q 551 219 535 182 q 567 310 567 257 l 567 663 q 563 715 567 690 q 549 760 558 740 q 525 793 540 779 q 481 822 507 813 q 417 831 454 831 q 332 810 365 831 q 283 753 299 790 q 267 663 267 717 l 267 310 m 168 1510 l 650 1510 q 661 1506 657 1510 q 665 1494 665 1501 q 665 1424 665 1458 q 665 1354 665 1390 l 183 1354 q 176 1356 179 1354 q 170 1362 172 1358 q 168 1369 168 1365 q 168 1440 168 1406 q 168 1510 168 1474 z "},"Ṍ":{"ha":833,"x_min":79,"x_max":754,"o":"m 417 1000 q 596 962 521 1000 q 713 848 671 924 q 754 664 754 772 l 754 308 q 713 124 754 200 q 596 10 671 49 q 417 -28 521 -28 q 238 10 314 -28 q 121 124 163 49 q 79 308 79 200 l 79 664 q 121 848 79 772 q 238 962 163 924 q 417 1000 314 1000 m 267 310 q 276 234 267 268 q 308 179 286 200 q 352 151 325 161 q 417 142 379 142 q 502 162 469 142 q 551 219 535 182 q 567 310 567 257 l 567 663 q 563 715 567 690 q 549 760 558 740 q 525 793 540 779 q 481 822 507 813 q 417 831 454 831 q 332 810 365 831 q 283 753 299 790 q 267 663 267 717 l 267 310 m 564 1229 q 624 1242 597 1229 q 672 1286 650 1256 l 699 1286 q 699 1218 699 1251 q 699 1157 699 1185 q 697 1140 699 1146 q 689 1128 696 1135 q 635 1090 667 1104 q 557 1076 604 1076 q 475 1088 513 1076 q 404 1115 438 1100 q 338 1142 371 1131 q 269 1154 306 1154 q 210 1140 236 1154 q 161 1097 183 1126 l 135 1097 q 135 1165 135 1132 q 135 1226 135 1199 q 136 1242 135 1236 q 144 1257 138 1249 q 198 1294 167 1281 q 276 1308 229 1308 q 358 1296 321 1308 q 429 1269 396 1283 q 495 1242 463 1254 q 564 1229 528 1229 m 476 1582 q 559 1582 529 1582 q 616 1582 589 1582 q 686 1582 643 1582 q 697 1576 694 1582 q 694 1563 700 1569 q 649 1511 668 1533 q 610 1467 629 1489 q 567 1419 592 1446 q 507 1353 543 1393 q 499 1347 504 1350 q 485 1344 493 1344 q 422 1344 446 1344 q 378 1344 397 1344 q 335 1344 358 1344 q 383 1425 360 1388 q 429 1501 406 1463 q 476 1582 453 1540 z "},"Ṏ":{"ha":833,"x_min":79,"x_max":754,"o":"m 417 1000 q 596 962 521 1000 q 713 848 671 924 q 754 664 754 772 l 754 308 q 713 124 754 200 q 596 10 671 49 q 417 -28 521 -28 q 238 10 314 -28 q 121 124 163 49 q 79 308 79 200 l 79 664 q 121 848 79 772 q 238 962 163 924 q 417 1000 314 1000 m 267 310 q 276 234 267 268 q 308 179 286 200 q 352 151 325 161 q 417 142 379 142 q 502 162 469 142 q 551 219 535 182 q 567 310 567 257 l 567 663 q 563 715 567 690 q 549 760 558 740 q 525 793 540 779 q 481 822 507 813 q 417 831 454 831 q 332 810 365 831 q 283 753 299 790 q 267 663 267 717 l 267 310 m 564 1229 q 624 1242 597 1229 q 672 1286 650 1256 l 699 1286 q 699 1218 699 1251 q 699 1157 699 1185 q 697 1140 699 1146 q 689 1128 696 1135 q 635 1090 667 1104 q 557 1076 604 1076 q 475 1088 513 1076 q 404 1115 438 1100 q 338 1142 371 1131 q 269 1154 306 1154 q 210 1140 236 1154 q 161 1097 183 1126 l 135 1097 q 135 1165 135 1132 q 135 1226 135 1199 q 136 1242 135 1236 q 144 1257 138 1249 q 198 1294 167 1281 q 276 1308 229 1308 q 358 1296 321 1308 q 429 1269 396 1283 q 495 1242 463 1254 q 564 1229 528 1229 m 165 1557 q 258 1557 211 1557 q 351 1557 306 1557 q 360 1555 357 1557 q 365 1550 363 1553 q 367 1542 367 1547 l 367 1367 q 274 1367 321 1367 q 181 1367 226 1367 q 173 1369 176 1367 q 167 1374 169 1371 q 165 1382 165 1378 l 165 1557 m 467 1557 q 560 1557 513 1557 q 653 1557 607 1557 q 661 1555 658 1557 q 666 1550 664 1553 q 668 1542 668 1547 l 668 1367 q 575 1367 622 1367 q 482 1367 528 1367 q 474 1369 478 1367 q 469 1374 471 1371 q 467 1382 467 1378 l 467 1557 z "},"Ṑ":{"ha":833,"x_min":79,"x_max":754,"o":"m 417 1000 q 596 962 521 1000 q 713 848 671 924 q 754 664 754 772 l 754 308 q 713 124 754 200 q 596 10 671 49 q 417 -28 521 -28 q 238 10 314 -28 q 121 124 163 49 q 79 308 79 200 l 79 664 q 121 848 79 772 q 238 962 163 924 q 417 1000 314 1000 m 267 310 q 276 234 267 268 q 308 179 286 200 q 352 151 325 161 q 417 142 379 142 q 502 162 469 142 q 551 219 535 182 q 567 310 567 257 l 567 663 q 563 715 567 690 q 549 760 558 740 q 525 793 540 779 q 481 822 507 813 q 417 831 454 831 q 332 810 365 831 q 283 753 299 790 q 267 663 267 717 l 267 310 m 168 1268 l 650 1268 q 661 1264 657 1268 q 665 1253 665 1260 q 665 1183 665 1217 q 665 1113 665 1149 l 183 1113 q 176 1115 179 1113 q 170 1120 172 1117 q 168 1128 168 1124 q 168 1198 168 1164 q 168 1268 168 1232 m 358 1563 q 406 1482 383 1521 q 452 1406 429 1443 q 499 1325 475 1368 q 456 1325 475 1325 q 412 1325 436 1325 q 349 1325 388 1325 q 335 1328 340 1325 q 326 1333 329 1331 q 266 1400 290 1374 q 223 1448 242 1426 q 184 1492 204 1469 q 138 1543 164 1514 q 135 1556 132 1550 q 147 1563 139 1563 q 219 1563 192 1563 q 276 1563 246 1563 q 358 1563 307 1563 z "},"Ṓ":{"ha":833,"x_min":79,"x_max":754,"o":"m 417 1000 q 596 962 521 1000 q 713 848 671 924 q 754 664 754 772 l 754 308 q 713 124 754 200 q 596 10 671 49 q 417 -28 521 -28 q 238 10 314 -28 q 121 124 163 49 q 79 308 79 200 l 79 664 q 121 848 79 772 q 238 962 163 924 q 417 1000 314 1000 m 267 310 q 276 234 267 268 q 308 179 286 200 q 352 151 325 161 q 417 142 379 142 q 502 162 469 142 q 551 219 535 182 q 567 310 567 257 l 567 663 q 563 715 567 690 q 549 760 558 740 q 525 793 540 779 q 481 822 507 813 q 417 831 454 831 q 332 810 365 831 q 283 753 299 790 q 267 663 267 717 l 267 310 m 168 1268 l 650 1268 q 661 1264 657 1268 q 665 1253 665 1260 q 665 1183 665 1217 q 665 1113 665 1149 l 183 1113 q 176 1115 179 1113 q 170 1120 172 1117 q 168 1128 168 1124 q 168 1198 168 1164 q 168 1268 168 1232 m 476 1563 q 559 1563 529 1563 q 616 1563 589 1563 q 686 1563 643 1563 q 697 1556 694 1563 q 694 1543 700 1550 q 649 1492 668 1514 q 610 1448 629 1469 q 567 1400 592 1426 q 507 1333 543 1374 q 499 1328 504 1331 q 485 1325 493 1325 q 422 1325 446 1325 q 378 1325 397 1325 q 335 1325 358 1325 q 383 1406 360 1368 q 429 1482 406 1443 q 476 1563 453 1521 z "},"Ọ":{"ha":833,"x_min":79,"x_max":754,"o":"m 417 1000 q 596 962 521 1000 q 713 848 671 924 q 754 664 754 772 l 754 308 q 713 124 754 200 q 596 10 671 49 q 417 -28 521 -28 q 238 10 314 -28 q 121 124 163 49 q 79 308 79 200 l 79 664 q 121 848 79 772 q 238 962 163 924 q 417 1000 314 1000 m 267 310 q 276 234 267 268 q 308 179 286 200 q 352 151 325 161 q 417 142 379 142 q 502 162 469 142 q 551 219 535 182 q 567 310 567 257 l 567 663 q 563 715 567 690 q 549 760 558 740 q 525 793 540 779 q 481 822 507 813 q 417 831 454 831 q 332 810 365 831 q 283 753 299 790 q 267 663 267 717 l 267 310 m 301 -139 q 356 -139 329 -139 q 409 -139 382 -139 q 463 -139 436 -139 q 517 -139 489 -139 q 528 -143 524 -139 q 532 -154 532 -147 l 532 -333 q 478 -333 504 -333 q 424 -333 451 -333 q 371 -333 397 -333 q 317 -333 344 -333 q 306 -329 310 -333 q 301 -318 301 -325 l 301 -139 z "},"Ỏ":{"ha":833,"x_min":79,"x_max":754,"o":"m 417 1000 q 596 962 521 1000 q 713 848 671 924 q 754 664 754 772 l 754 308 q 713 124 754 200 q 596 10 671 49 q 417 -28 521 -28 q 238 10 314 -28 q 121 124 163 49 q 79 308 79 200 l 79 664 q 121 848 79 772 q 238 962 163 924 q 417 1000 314 1000 m 267 310 q 276 234 267 268 q 308 179 286 200 q 352 151 325 161 q 417 142 379 142 q 502 162 469 142 q 551 219 535 182 q 567 310 567 257 l 567 663 q 563 715 567 690 q 549 760 558 740 q 525 793 540 779 q 481 822 507 813 q 417 831 454 831 q 332 810 365 831 q 283 753 299 790 q 267 663 267 717 l 267 310 m 333 1071 q 353 1095 343 1083 q 372 1122 363 1107 q 390 1146 382 1133 q 408 1172 399 1158 q 408 1179 408 1175 q 408 1189 408 1183 q 384 1189 399 1189 q 357 1189 369 1189 q 319 1189 344 1189 q 275 1189 293 1189 l 244 1189 q 244 1250 244 1224 q 244 1299 244 1276 q 249 1310 244 1306 q 260 1314 253 1314 q 317 1314 279 1314 q 400 1314 356 1314 q 486 1314 444 1314 q 556 1314 528 1314 q 565 1313 561 1314 q 570 1308 568 1311 q 572 1299 572 1304 l 572 1190 q 556 1167 572 1189 q 517 1118 539 1146 q 488 1084 503 1101 q 461 1053 474 1067 q 419 1053 443 1053 q 374 1053 396 1053 q 338 1053 351 1053 q 328 1058 328 1053 q 333 1071 328 1064 z "},"Ố":{"ha":833,"x_min":79,"x_max":974,"o":"m 417 1000 q 596 962 521 1000 q 713 848 671 924 q 754 664 754 772 l 754 308 q 713 124 754 200 q 596 10 671 49 q 417 -28 521 -28 q 238 10 314 -28 q 121 124 163 49 q 79 308 79 200 l 79 664 q 121 848 79 772 q 238 962 163 924 q 417 1000 314 1000 m 267 310 q 276 234 267 268 q 308 179 286 200 q 352 151 325 161 q 417 142 379 142 q 502 162 469 142 q 551 219 535 182 q 567 310 567 257 l 567 663 q 563 715 567 690 q 549 760 558 740 q 525 793 540 779 q 481 822 507 813 q 417 831 454 831 q 332 810 365 831 q 283 753 299 790 q 267 663 267 717 l 267 310 m 314 1314 q 372 1314 335 1314 q 447 1314 410 1314 q 503 1314 483 1314 q 520 1310 513 1314 q 547 1288 528 1306 q 581 1253 558 1276 q 634 1201 604 1231 q 695 1138 664 1171 q 756 1076 726 1106 q 672 1076 719 1076 q 589 1076 625 1076 q 567 1079 574 1076 q 550 1090 561 1082 q 489 1140 528 1107 q 393 1228 450 1174 l 465 1199 q 420 1199 443 1199 q 374 1199 397 1199 l 444 1229 q 347 1142 390 1179 q 269 1076 304 1106 l 111 1076 q 102 1077 106 1076 q 97 1081 99 1078 q 96 1086 96 1083 q 101 1097 96 1092 q 125 1122 106 1103 q 167 1166 143 1142 q 219 1217 192 1190 q 270 1270 246 1244 q 314 1314 294 1296 m 782 1471 q 842 1471 811 1471 q 903 1471 872 1471 q 960 1471 933 1471 q 971 1465 968 1471 q 968 1451 974 1458 q 910 1374 939 1413 q 855 1302 882 1336 q 806 1239 828 1268 q 794 1228 800 1231 q 779 1225 788 1225 q 720 1225 742 1225 q 682 1225 699 1225 q 642 1225 665 1225 q 690 1308 667 1268 q 735 1388 713 1347 q 782 1471 758 1429 z "},"Ồ":{"ha":833,"x_min":79,"x_max":806,"o":"m 417 1000 q 596 962 521 1000 q 713 848 671 924 q 754 664 754 772 l 754 308 q 713 124 754 200 q 596 10 671 49 q 417 -28 521 -28 q 238 10 314 -28 q 121 124 163 49 q 79 308 79 200 l 79 664 q 121 848 79 772 q 238 962 163 924 q 417 1000 314 1000 m 267 310 q 276 234 267 268 q 308 179 286 200 q 352 151 325 161 q 417 142 379 142 q 502 162 469 142 q 551 219 535 182 q 567 310 567 257 l 567 663 q 563 715 567 690 q 549 760 558 740 q 525 793 540 779 q 481 822 507 813 q 417 831 454 831 q 332 810 365 831 q 283 753 299 790 q 267 663 267 717 l 267 310 m 314 1314 q 372 1314 335 1314 q 447 1314 410 1314 q 503 1314 483 1314 q 520 1310 513 1314 q 547 1288 528 1306 q 581 1253 558 1276 q 634 1201 604 1231 q 695 1138 664 1171 q 756 1076 726 1106 q 672 1076 719 1076 q 589 1076 625 1076 q 567 1079 574 1076 q 550 1090 561 1082 q 489 1140 528 1107 q 393 1228 450 1174 l 465 1199 q 420 1199 443 1199 q 374 1199 397 1199 l 444 1229 q 347 1142 390 1179 q 269 1076 304 1106 l 111 1076 q 102 1077 106 1076 q 97 1081 99 1078 q 96 1086 96 1083 q 101 1097 96 1092 q 125 1122 106 1103 q 167 1166 143 1142 q 219 1217 192 1190 q 270 1270 246 1244 q 314 1314 294 1296 m 665 1471 q 713 1388 690 1429 q 758 1308 735 1347 q 806 1225 782 1268 q 765 1225 782 1225 q 728 1225 749 1225 q 668 1225 707 1225 q 654 1228 660 1225 q 642 1239 649 1231 q 593 1302 621 1268 q 537 1374 565 1336 q 479 1451 508 1413 q 476 1465 474 1458 q 488 1471 479 1471 q 544 1471 514 1471 q 606 1471 575 1471 q 665 1471 636 1471 z "},"Ổ":{"ha":833,"x_min":79,"x_max":879,"o":"m 417 1000 q 596 962 521 1000 q 713 848 671 924 q 754 664 754 772 l 754 308 q 713 124 754 200 q 596 10 671 49 q 417 -28 521 -28 q 238 10 314 -28 q 121 124 163 49 q 79 308 79 200 l 79 664 q 121 848 79 772 q 238 962 163 924 q 417 1000 314 1000 m 267 310 q 276 234 267 268 q 308 179 286 200 q 352 151 325 161 q 417 142 379 142 q 502 162 469 142 q 551 219 535 182 q 567 310 567 257 l 567 663 q 563 715 567 690 q 549 760 558 740 q 525 793 540 779 q 481 822 507 813 q 417 831 454 831 q 332 810 365 831 q 283 753 299 790 q 267 663 267 717 l 267 310 m 314 1314 q 372 1314 335 1314 q 447 1314 410 1314 q 503 1314 483 1314 q 520 1310 513 1314 q 547 1288 528 1306 q 581 1253 558 1276 q 634 1201 604 1231 q 695 1138 664 1171 q 756 1076 726 1106 q 672 1076 719 1076 q 589 1076 625 1076 q 567 1079 574 1076 q 550 1090 561 1082 q 489 1140 528 1107 q 393 1228 450 1174 l 465 1199 q 420 1199 443 1199 q 374 1199 397 1199 l 444 1229 q 347 1142 390 1179 q 269 1076 304 1106 l 111 1076 q 102 1077 106 1076 q 97 1081 99 1078 q 96 1086 96 1083 q 101 1097 96 1092 q 125 1122 106 1103 q 167 1166 143 1142 q 219 1217 192 1190 q 270 1270 246 1244 q 314 1314 294 1296 m 640 1229 q 660 1253 650 1242 q 679 1281 669 1265 q 697 1304 689 1292 q 715 1331 706 1317 q 715 1338 715 1333 q 715 1347 715 1342 q 691 1347 706 1347 q 664 1347 676 1347 q 626 1347 651 1347 q 582 1347 600 1347 l 551 1347 q 551 1408 551 1382 q 551 1457 551 1435 q 556 1468 551 1464 q 567 1472 560 1472 q 624 1472 586 1472 q 707 1472 663 1472 q 793 1472 751 1472 q 863 1472 835 1472 q 872 1471 868 1472 q 877 1466 875 1469 q 879 1457 879 1463 l 879 1349 q 863 1326 879 1347 q 824 1276 846 1304 q 795 1242 810 1260 q 768 1211 781 1225 q 726 1211 750 1211 q 681 1211 703 1211 q 644 1211 658 1211 q 635 1217 635 1211 q 640 1229 635 1222 z "},"Ỗ":{"ha":833,"x_min":79,"x_max":756,"o":"m 417 1000 q 596 962 521 1000 q 713 848 671 924 q 754 664 754 772 l 754 308 q 713 124 754 200 q 596 10 671 49 q 417 -28 521 -28 q 238 10 314 -28 q 121 124 163 49 q 79 308 79 200 l 79 664 q 121 848 79 772 q 238 962 163 924 q 417 1000 314 1000 m 267 310 q 276 234 267 268 q 308 179 286 200 q 352 151 325 161 q 417 142 379 142 q 502 162 469 142 q 551 219 535 182 q 567 310 567 257 l 567 663 q 563 715 567 690 q 549 760 558 740 q 525 793 540 779 q 481 822 507 813 q 417 831 454 831 q 332 810 365 831 q 283 753 299 790 q 267 663 267 717 l 267 310 m 314 1314 q 372 1314 335 1314 q 447 1314 410 1314 q 503 1314 483 1314 q 520 1310 513 1314 q 547 1288 528 1306 q 581 1253 558 1276 q 634 1201 604 1231 q 695 1138 664 1171 q 756 1076 726 1106 q 672 1076 719 1076 q 589 1076 625 1076 q 567 1079 574 1076 q 550 1090 561 1082 q 489 1140 528 1107 q 393 1228 450 1174 l 465 1199 q 420 1199 443 1199 q 374 1199 397 1199 l 444 1229 q 347 1142 390 1179 q 269 1076 304 1106 l 111 1076 q 102 1077 106 1076 q 97 1081 99 1078 q 96 1086 96 1083 q 101 1097 96 1092 q 125 1122 106 1103 q 167 1166 143 1142 q 219 1217 192 1190 q 270 1270 246 1244 q 314 1314 294 1296 m 535 1479 q 576 1488 560 1479 q 611 1526 592 1497 l 636 1526 q 636 1460 636 1493 q 636 1401 636 1428 q 635 1385 636 1392 q 626 1372 633 1379 q 585 1340 610 1350 q 529 1331 560 1331 q 460 1340 490 1331 q 406 1363 431 1350 q 358 1386 382 1376 q 303 1396 333 1396 q 257 1384 274 1396 q 221 1350 240 1372 l 196 1350 q 196 1415 196 1383 q 196 1474 196 1447 q 197 1489 196 1483 q 206 1503 197 1494 q 247 1533 225 1524 q 304 1543 268 1543 q 364 1533 336 1543 q 417 1511 392 1524 q 472 1489 443 1499 q 535 1479 500 1479 z "},"Ộ":{"ha":833,"x_min":79,"x_max":756,"o":"m 301 -139 q 356 -139 329 -139 q 409 -139 382 -139 q 463 -139 436 -139 q 517 -139 489 -139 q 528 -143 524 -139 q 532 -154 532 -147 l 532 -333 q 478 -333 504 -333 q 424 -333 451 -333 q 371 -333 397 -333 q 317 -333 344 -333 q 306 -329 310 -333 q 301 -318 301 -325 l 301 -139 m 417 1000 q 595 962 519 1000 q 713 848 671 924 q 754 664 754 772 l 754 308 q 713 124 754 200 q 596 10 671 49 q 418 -28 521 -28 q 238 10 314 -28 q 121 124 163 49 q 79 308 79 200 l 79 664 q 121 848 79 772 q 238 962 163 924 q 417 1000 314 1000 m 267 310 q 276 234 267 268 q 308 179 286 200 q 352 151 325 161 q 417 142 379 142 q 502 162 469 142 q 551 219 535 182 q 567 310 567 257 l 567 663 q 563 715 567 690 q 549 760 558 740 q 525 793 540 779 q 481 822 507 813 q 417 831 454 831 q 332 810 365 831 q 283 753 299 790 q 267 663 267 717 l 267 310 m 314 1315 q 372 1315 335 1315 q 447 1315 410 1315 q 503 1315 483 1315 q 520 1310 513 1315 q 547 1288 528 1306 q 581 1253 558 1276 q 634 1201 604 1231 q 695 1139 664 1171 q 756 1076 726 1107 q 672 1076 719 1076 q 589 1076 625 1076 q 567 1079 574 1076 q 550 1090 561 1082 q 489 1140 528 1107 q 393 1228 450 1174 l 465 1199 q 420 1199 443 1199 q 374 1199 397 1199 l 444 1229 q 347 1142 390 1179 q 269 1076 304 1106 l 111 1076 q 102 1077 106 1076 q 97 1081 99 1078 q 96 1086 96 1083 q 101 1097 96 1092 q 125 1122 106 1103 q 167 1166 143 1142 q 219 1217 192 1190 q 270 1270 246 1244 q 314 1315 294 1296 z "},"Ớ":{"ha":833,"x_min":79,"x_max":819,"o":"m 417 1000 q 596 962 521 1000 q 713 848 671 924 q 754 664 754 772 l 754 308 q 713 124 754 200 q 596 10 671 49 q 417 -28 521 -28 q 238 10 314 -28 q 121 124 163 49 q 79 308 79 200 l 79 664 q 121 848 79 772 q 238 962 163 924 q 417 1000 314 1000 m 267 310 q 276 234 267 268 q 308 179 286 200 q 352 151 325 161 q 417 142 379 142 q 502 162 469 142 q 551 219 535 182 q 567 310 567 257 l 567 663 q 563 715 567 690 q 549 760 558 740 q 525 793 540 779 q 481 822 507 813 q 417 831 454 831 q 332 810 365 831 q 283 753 299 790 q 267 663 267 717 l 267 310 m 654 1154 q 727 1154 690 1154 q 797 1154 764 1154 q 815 1149 810 1154 q 819 1132 819 1143 q 819 1101 819 1124 q 819 1065 819 1079 q 813 994 819 1024 q 792 944 806 965 q 754 899 779 922 q 690 836 718 863 q 626 779 661 810 q 626 810 626 789 q 626 856 626 831 q 626 905 626 882 q 626 940 626 928 q 633 956 629 947 q 643 978 638 964 q 652 1006 650 992 q 654 1043 654 1021 q 654 1092 654 1058 q 654 1154 654 1125 m 475 1322 q 535 1322 504 1322 q 596 1322 565 1322 q 653 1322 626 1322 q 664 1316 661 1322 q 661 1303 667 1310 q 603 1226 632 1264 q 548 1153 575 1188 q 499 1090 521 1119 q 487 1079 493 1082 q 472 1076 481 1076 q 413 1076 435 1076 q 375 1076 392 1076 q 335 1076 358 1076 q 383 1159 360 1119 q 428 1240 406 1199 q 475 1322 451 1281 z "},"Ờ":{"ha":833,"x_min":79,"x_max":819,"o":"m 417 1000 q 596 962 521 1000 q 713 848 671 924 q 754 664 754 772 l 754 308 q 713 124 754 200 q 596 10 671 49 q 417 -28 521 -28 q 238 10 314 -28 q 121 124 163 49 q 79 308 79 200 l 79 664 q 121 848 79 772 q 238 962 163 924 q 417 1000 314 1000 m 267 310 q 276 234 267 268 q 308 179 286 200 q 352 151 325 161 q 417 142 379 142 q 502 162 469 142 q 551 219 535 182 q 567 310 567 257 l 567 663 q 563 715 567 690 q 549 760 558 740 q 525 793 540 779 q 481 822 507 813 q 417 831 454 831 q 332 810 365 831 q 283 753 299 790 q 267 663 267 717 l 267 310 m 654 1154 q 727 1154 690 1154 q 797 1154 764 1154 q 815 1149 810 1154 q 819 1132 819 1143 q 819 1101 819 1124 q 819 1065 819 1079 q 813 994 819 1024 q 792 944 806 965 q 754 899 779 922 q 690 836 718 863 q 626 779 661 810 q 626 810 626 789 q 626 856 626 831 q 626 905 626 882 q 626 940 626 928 q 633 956 629 947 q 643 978 638 964 q 652 1006 650 992 q 654 1043 654 1021 q 654 1092 654 1058 q 654 1154 654 1125 m 358 1322 q 406 1240 383 1281 q 451 1159 428 1199 q 499 1076 475 1119 q 458 1076 475 1076 q 421 1076 442 1076 q 361 1076 400 1076 q 347 1079 353 1076 q 335 1090 342 1082 q 286 1153 314 1119 q 230 1226 258 1188 q 172 1303 201 1264 q 169 1316 167 1310 q 181 1322 172 1322 q 238 1322 207 1322 q 299 1322 268 1322 q 358 1322 329 1322 z "},"Ở":{"ha":833,"x_min":79,"x_max":819,"o":"m 417 1000 q 596 962 521 1000 q 713 848 671 924 q 754 664 754 772 l 754 308 q 713 124 754 200 q 596 10 671 49 q 417 -28 521 -28 q 238 10 314 -28 q 121 124 163 49 q 79 308 79 200 l 79 664 q 121 848 79 772 q 238 962 163 924 q 417 1000 314 1000 m 267 310 q 276 234 267 268 q 308 179 286 200 q 352 151 325 161 q 417 142 379 142 q 502 162 469 142 q 551 219 535 182 q 567 310 567 257 l 567 663 q 563 715 567 690 q 549 760 558 740 q 525 793 540 779 q 481 822 507 813 q 417 831 454 831 q 332 810 365 831 q 283 753 299 790 q 267 663 267 717 l 267 310 m 654 1154 q 727 1154 690 1154 q 797 1154 764 1154 q 815 1149 810 1154 q 819 1132 819 1143 q 819 1101 819 1124 q 819 1065 819 1079 q 813 994 819 1024 q 792 944 806 965 q 754 899 779 922 q 690 836 718 863 q 626 779 661 810 q 626 810 626 789 q 626 856 626 831 q 626 905 626 882 q 626 940 626 928 q 633 956 629 947 q 643 978 638 964 q 652 1006 650 992 q 654 1043 654 1021 q 654 1092 654 1058 q 654 1154 654 1125 m 333 1071 q 353 1095 343 1083 q 372 1122 363 1107 q 390 1146 382 1133 q 408 1172 399 1158 q 408 1179 408 1175 q 408 1189 408 1183 q 384 1189 399 1189 q 357 1189 369 1189 q 319 1189 344 1189 q 275 1189 293 1189 l 244 1189 q 244 1250 244 1224 q 244 1299 244 1276 q 249 1310 244 1306 q 260 1314 253 1314 q 317 1314 279 1314 q 400 1314 356 1314 q 486 1314 444 1314 q 556 1314 528 1314 q 565 1313 561 1314 q 570 1308 568 1311 q 572 1299 572 1304 l 572 1190 q 556 1167 572 1189 q 517 1118 539 1146 q 488 1084 503 1101 q 461 1053 474 1067 q 419 1053 443 1053 q 374 1053 396 1053 q 338 1053 351 1053 q 328 1058 328 1053 q 333 1071 328 1064 z "},"Ỡ":{"ha":833,"x_min":79,"x_max":819,"o":"m 417 1000 q 596 962 521 1000 q 713 848 671 924 q 754 664 754 772 l 754 308 q 713 124 754 200 q 596 10 671 49 q 417 -28 521 -28 q 238 10 314 -28 q 121 124 163 49 q 79 308 79 200 l 79 664 q 121 848 79 772 q 238 962 163 924 q 417 1000 314 1000 m 267 310 q 276 234 267 268 q 308 179 286 200 q 352 151 325 161 q 417 142 379 142 q 502 162 469 142 q 551 219 535 182 q 567 310 567 257 l 567 663 q 563 715 567 690 q 549 760 558 740 q 525 793 540 779 q 481 822 507 813 q 417 831 454 831 q 332 810 365 831 q 283 753 299 790 q 267 663 267 717 l 267 310 m 654 1154 q 727 1154 690 1154 q 797 1154 764 1154 q 815 1149 810 1154 q 819 1132 819 1143 q 819 1101 819 1124 q 819 1065 819 1079 q 813 994 819 1024 q 792 944 806 965 q 754 899 779 922 q 690 836 718 863 q 626 779 661 810 q 626 810 626 789 q 626 856 626 831 q 626 905 626 882 q 626 940 626 928 q 633 956 629 947 q 643 978 638 964 q 652 1006 650 992 q 654 1043 654 1021 q 654 1092 654 1058 q 654 1154 654 1125 m 481 1238 q 522 1247 506 1238 q 557 1285 538 1256 l 582 1285 q 582 1219 582 1251 q 582 1160 582 1186 q 581 1144 582 1150 q 572 1131 579 1138 q 531 1099 556 1108 q 475 1089 506 1089 q 406 1099 436 1089 q 352 1122 376 1108 q 303 1144 328 1135 q 249 1154 279 1154 q 203 1142 219 1154 q 167 1108 186 1131 l 142 1108 q 142 1174 142 1142 q 142 1232 142 1206 q 142 1247 142 1242 q 151 1261 143 1253 q 192 1292 171 1282 q 250 1301 214 1301 q 310 1292 282 1301 q 363 1269 338 1282 q 417 1247 389 1257 q 481 1238 446 1238 z "},"Ợ":{"ha":833,"x_min":79,"x_max":819,"o":"m 301 -139 q 356 -139 329 -139 q 409 -139 382 -139 q 463 -139 436 -139 q 517 -139 489 -139 q 528 -143 524 -139 q 532 -154 532 -147 l 532 -333 q 478 -333 504 -333 q 424 -333 451 -333 q 371 -333 397 -333 q 317 -333 344 -333 q 306 -329 310 -333 q 301 -318 301 -325 l 301 -139 m 417 1000 q 595 962 519 1000 q 713 848 671 924 q 754 664 754 772 l 754 308 q 713 124 754 200 q 596 10 671 49 q 418 -28 521 -28 q 238 10 314 -28 q 121 124 163 49 q 79 308 79 200 l 79 664 q 121 848 79 772 q 238 962 163 924 q 417 1000 314 1000 m 267 310 q 276 234 267 268 q 308 179 286 200 q 352 151 325 161 q 417 142 379 142 q 502 162 469 142 q 551 219 535 182 q 567 310 567 257 l 567 663 q 563 716 567 692 q 549 760 558 740 q 525 793 540 779 q 481 822 507 813 q 417 831 454 831 q 332 810 365 831 q 283 753 299 790 q 267 663 267 717 l 267 310 m 654 1154 q 728 1154 690 1154 q 797 1154 765 1154 q 815 1149 810 1154 q 819 1132 819 1143 q 819 1101 819 1124 q 819 1065 819 1079 q 813 995 819 1024 q 793 945 807 967 q 754 899 779 924 q 690 836 718 863 q 626 779 661 810 q 626 810 626 789 q 626 856 626 831 q 626 905 626 882 q 626 940 626 928 q 635 956 631 947 q 643 978 639 964 q 652 1007 650 993 q 654 1043 654 1021 q 654 1092 654 1060 q 654 1154 654 1125 z "},"P":{"ha":833,"x_min":42,"x_max":756,"o":"m 310 0 q 218 0 264 0 q 125 0 172 0 q 114 4 118 0 q 110 15 110 8 q 110 233 110 128 q 110 442 110 338 q 110 652 110 546 q 110 868 110 758 l 325 868 l 310 831 q 310 760 310 793 q 310 693 310 728 q 310 512 310 603 q 310 328 310 421 q 310 136 310 236 q 310 64 310 99 q 310 0 310 29 m 42 972 q 242 972 136 972 q 432 972 347 972 q 553 960 500 972 q 644 923 606 947 q 706 863 682 899 q 743 781 731 828 q 756 678 756 735 l 756 593 q 738 469 756 524 q 681 376 719 414 q 581 317 643 338 q 433 297 519 297 q 360 297 397 297 q 285 297 322 297 l 269 292 l 269 467 q 358 467 315 467 q 433 467 401 467 q 487 474 464 467 q 525 494 510 481 q 547 531 540 508 q 554 586 554 553 l 554 688 q 548 741 554 719 q 528 776 542 763 q 490 798 514 792 q 433 804 467 804 q 308 804 372 804 q 181 804 244 804 q 57 804 117 804 q 46 808 50 804 q 42 819 42 813 q 42 896 42 860 q 42 972 42 932 z "},"Q":{"ha":833,"x_min":79,"x_max":792,"o":"m 611 146 q 656 71 636 106 q 699 -4 676 36 q 721 -27 711 -22 q 746 -32 731 -32 q 756 -32 753 -32 q 765 -32 760 -32 l 792 -32 q 792 -109 792 -75 q 792 -187 792 -143 q 788 -199 792 -194 q 776 -203 783 -203 q 751 -203 767 -203 q 721 -203 735 -203 q 644 -194 675 -203 q 590 -165 613 -186 q 549 -107 568 -143 q 499 -17 521 -60 q 450 72 476 25 l 611 146 m 417 1000 q 596 962 521 1000 q 713 848 671 924 q 754 664 754 772 l 754 308 q 713 124 754 200 q 596 10 671 49 q 417 -28 521 -28 q 238 10 314 -28 q 121 124 163 49 q 79 308 79 200 l 79 664 q 121 848 79 772 q 238 962 163 924 q 417 1000 314 1000 m 267 310 q 276 234 267 268 q 308 179 286 200 q 352 151 325 161 q 417 142 379 142 q 502 162 469 142 q 551 219 535 182 q 567 310 567 257 l 567 663 q 563 715 567 690 q 549 760 558 740 q 525 793 540 779 q 481 822 507 813 q 417 831 454 831 q 332 810 365 831 q 283 753 299 790 q 267 663 267 717 l 267 310 z "},"R":{"ha":833,"x_min":42,"x_max":778,"o":"m 551 444 q 618 326 588 381 q 683 206 649 271 q 706 177 696 185 q 732 169 717 169 q 742 169 739 169 q 751 169 746 169 l 778 169 q 778 92 778 128 q 778 15 778 57 q 774 4 778 8 q 763 0 769 0 q 737 0 753 0 q 707 0 721 0 q 628 8 660 0 q 573 35 596 15 q 531 92 550 56 q 459 233 494 163 q 388 372 424 303 l 551 444 m 42 972 q 233 972 138 972 q 425 972 329 972 q 569 953 510 972 q 667 895 629 933 q 722 804 704 857 q 739 686 739 751 l 739 608 q 719 494 739 544 q 663 408 700 443 q 574 354 626 372 q 454 336 521 336 q 370 336 413 336 q 285 336 328 336 l 269 328 l 269 500 q 351 500 310 500 q 432 500 392 500 q 496 511 471 500 q 533 547 521 522 q 544 606 544 571 l 544 696 q 538 742 544 722 q 518 775 532 761 q 484 795 506 788 q 432 803 463 803 q 306 803 369 803 q 181 803 243 803 q 57 803 119 803 q 46 807 50 803 q 42 818 42 811 q 42 895 42 858 q 42 972 42 932 m 303 0 q 215 0 257 0 q 125 0 172 0 q 114 4 118 0 q 110 15 110 8 q 110 233 110 128 q 110 442 110 338 q 110 652 110 546 q 110 868 110 758 l 319 868 l 303 831 q 303 740 303 785 q 303 653 303 694 q 303 484 303 567 q 303 316 303 401 q 303 136 303 231 q 303 64 303 99 q 303 0 303 29 z "},"Ŕ":{"ha":833,"x_min":42,"x_max":778,"o":"m 551 444 q 618 326 588 381 q 683 206 649 271 q 706 177 696 185 q 732 169 717 169 q 742 169 739 169 q 751 169 746 169 l 778 169 q 778 92 778 128 q 778 15 778 57 q 774 4 778 8 q 763 0 769 0 q 737 0 753 0 q 707 0 721 0 q 628 8 660 0 q 573 35 596 15 q 531 92 550 56 q 459 233 494 163 q 388 372 424 303 l 551 444 m 42 972 q 233 972 138 972 q 425 972 329 972 q 569 953 510 972 q 667 895 629 933 q 722 804 704 857 q 739 686 739 751 l 739 608 q 719 494 739 544 q 663 408 700 443 q 574 354 626 372 q 454 336 521 336 q 370 336 413 336 q 285 336 328 336 l 269 328 l 269 500 q 351 500 310 500 q 432 500 392 500 q 496 511 471 500 q 533 547 521 522 q 544 606 544 571 l 544 696 q 538 742 544 722 q 518 775 532 761 q 484 795 506 788 q 432 803 463 803 q 306 803 369 803 q 181 803 243 803 q 57 803 119 803 q 46 807 50 803 q 42 818 42 811 q 42 895 42 858 q 42 972 42 932 m 303 0 q 215 0 257 0 q 125 0 172 0 q 114 4 118 0 q 110 15 110 8 q 110 233 110 128 q 110 442 110 338 q 110 652 110 546 q 110 868 110 758 l 319 868 l 303 831 q 303 740 303 785 q 303 653 303 694 q 303 484 303 567 q 303 316 303 401 q 303 136 303 231 q 303 64 303 99 q 303 0 303 29 m 475 1314 q 558 1314 528 1314 q 615 1314 588 1314 q 685 1314 642 1314 q 696 1308 693 1314 q 693 1294 699 1301 q 647 1243 667 1265 q 609 1199 628 1221 q 566 1151 590 1178 q 506 1085 542 1125 q 497 1079 503 1082 q 483 1076 492 1076 q 420 1076 444 1076 q 376 1076 396 1076 q 333 1076 357 1076 q 381 1157 358 1119 q 428 1233 404 1194 q 475 1314 451 1272 z "},"Ŗ":{"ha":833,"x_min":42,"x_max":778,"o":"m 551 444 q 618 326 588 381 q 683 206 649 271 q 706 177 696 185 q 732 169 717 169 q 742 169 739 169 q 751 169 746 169 l 778 169 q 778 92 778 128 q 778 15 778 57 q 774 4 778 8 q 763 0 769 0 q 737 0 753 0 q 707 0 721 0 q 628 8 660 0 q 573 35 596 15 q 531 92 550 56 q 459 233 494 163 q 388 372 424 303 l 551 444 m 42 972 q 233 972 138 972 q 425 972 329 972 q 569 953 510 972 q 667 895 629 933 q 722 804 704 857 q 739 686 739 751 l 739 608 q 719 494 739 544 q 663 408 700 443 q 574 354 626 372 q 454 336 521 336 q 370 336 413 336 q 285 336 328 336 l 269 328 l 269 500 q 351 500 310 500 q 432 500 392 500 q 496 511 471 500 q 533 547 521 522 q 544 606 544 571 l 544 696 q 538 742 544 722 q 518 775 532 761 q 484 795 506 788 q 432 803 463 803 q 306 803 369 803 q 181 803 243 803 q 57 803 119 803 q 46 807 50 803 q 42 818 42 811 q 42 895 42 858 q 42 972 42 932 m 303 0 q 215 0 257 0 q 125 0 172 0 q 114 4 118 0 q 110 15 110 8 q 110 233 110 128 q 110 442 110 338 q 110 652 110 546 q 110 868 110 758 l 319 868 l 303 831 q 303 740 303 785 q 303 653 303 694 q 303 484 303 567 q 303 316 303 401 q 303 136 303 231 q 303 64 303 99 q 303 0 303 29 m 343 -85 q 405 -85 375 -85 q 466 -85 435 -85 q 528 -85 497 -85 q 541 -90 536 -85 q 543 -103 546 -94 q 513 -180 528 -143 q 485 -253 499 -217 q 456 -332 472 -289 q 449 -342 454 -337 q 435 -346 444 -346 q 368 -346 407 -346 q 285 -346 329 -346 q 304 -256 294 -300 q 324 -168 314 -211 q 343 -85 333 -125 z "},"Ř":{"ha":833,"x_min":42,"x_max":778,"o":"m 519 1076 q 462 1076 500 1076 q 387 1076 424 1076 q 331 1076 350 1076 q 313 1081 321 1076 q 286 1103 306 1085 q 252 1138 275 1114 q 199 1191 229 1161 q 138 1253 169 1221 q 78 1315 107 1285 q 161 1315 114 1314 q 244 1315 208 1315 q 266 1313 260 1315 q 283 1301 272 1310 q 344 1251 306 1283 q 440 1164 383 1218 l 368 1193 q 415 1193 392 1193 q 460 1193 438 1193 l 389 1161 q 487 1249 443 1213 q 564 1315 531 1286 l 722 1315 q 731 1314 728 1315 q 736 1310 735 1313 q 738 1306 738 1308 q 733 1294 738 1300 q 708 1268 729 1288 q 666 1226 690 1251 q 615 1174 642 1201 q 563 1121 588 1146 q 519 1076 538 1096 m 551 444 q 618 326 588 381 q 683 206 649 271 q 706 177 696 185 q 732 169 717 169 q 742 169 739 169 q 751 169 746 169 l 778 169 q 778 92 778 128 q 778 15 778 57 q 774 4 778 8 q 763 0 769 0 q 737 0 753 0 q 707 0 721 0 q 628 8 660 0 q 573 35 596 15 q 531 92 550 56 q 459 233 494 163 q 388 372 424 303 l 551 444 m 42 972 q 233 972 138 972 q 425 972 329 972 q 569 953 510 972 q 667 895 629 933 q 722 804 704 857 q 739 686 739 751 l 739 608 q 719 494 739 544 q 663 408 700 443 q 574 354 626 372 q 454 336 521 336 q 370 336 413 336 q 285 336 328 336 l 269 328 l 269 500 q 351 500 310 500 q 432 500 392 500 q 496 511 471 500 q 533 547 521 522 q 544 606 544 571 l 544 696 q 538 742 544 722 q 518 775 532 761 q 484 795 506 788 q 432 803 463 803 q 306 803 369 803 q 181 803 243 803 q 57 803 119 803 q 46 807 50 803 q 42 818 42 811 q 42 895 42 858 q 42 972 42 932 m 303 0 q 215 0 257 0 q 125 0 172 0 q 114 4 118 0 q 110 15 110 8 q 110 233 110 128 q 110 442 110 338 q 110 652 110 546 q 110 868 110 758 l 319 868 l 303 831 q 303 740 303 785 q 303 653 303 694 q 303 484 303 567 q 303 316 303 401 q 303 136 303 231 q 303 64 303 99 q 303 0 303 29 z "},"Ȑ":{"ha":833,"x_min":-1,"x_max":778,"o":"m 224 1315 q 272 1235 250 1274 q 318 1158 294 1196 q 365 1078 342 1121 q 322 1078 342 1078 q 278 1078 303 1078 q 215 1078 254 1078 q 201 1081 207 1078 q 193 1086 196 1083 q 133 1153 157 1126 q 89 1201 108 1179 q 50 1244 69 1222 q 4 1296 31 1267 q 1 1309 -1 1303 q 13 1315 4 1315 q 84 1315 57 1315 q 142 1315 111 1315 q 224 1315 174 1315 m 519 1315 q 567 1235 544 1274 q 613 1158 590 1196 q 661 1078 636 1121 q 617 1078 638 1078 q 574 1078 597 1078 q 510 1078 550 1078 q 496 1081 501 1078 q 488 1086 490 1083 q 427 1153 451 1126 q 384 1201 403 1179 q 346 1244 365 1222 q 300 1296 326 1267 q 297 1309 294 1303 q 308 1315 300 1315 q 381 1315 353 1315 q 438 1315 408 1315 q 519 1315 468 1315 m 551 444 q 618 326 588 381 q 683 206 649 271 q 706 177 696 185 q 732 169 717 169 q 742 169 739 169 q 751 169 746 169 l 778 169 q 778 92 778 128 q 778 15 778 57 q 774 4 778 8 q 763 0 769 0 q 737 0 753 0 q 707 0 721 0 q 628 8 660 0 q 573 35 596 15 q 531 92 550 56 q 459 233 494 163 q 388 372 424 303 l 551 444 m 42 972 q 233 972 138 972 q 425 972 329 972 q 569 953 510 972 q 667 895 629 933 q 722 804 704 857 q 739 686 739 751 l 739 608 q 719 494 739 544 q 663 408 700 443 q 574 354 626 372 q 454 336 521 336 q 370 336 413 336 q 285 336 328 336 l 269 328 l 269 500 q 351 500 310 500 q 432 500 392 500 q 496 511 471 500 q 533 547 521 522 q 544 606 544 571 l 544 696 q 538 742 544 722 q 518 775 532 761 q 484 795 506 788 q 432 803 463 803 q 306 803 369 803 q 181 803 243 803 q 57 803 119 803 q 46 807 50 803 q 42 818 42 811 q 42 895 42 858 q 42 972 42 932 m 303 0 q 215 0 257 0 q 125 0 172 0 q 114 4 118 0 q 110 15 110 8 q 110 233 110 128 q 110 442 110 338 q 110 652 110 546 q 110 868 110 758 l 319 868 l 303 831 q 303 740 303 785 q 303 653 303 694 q 303 484 303 567 q 303 316 303 401 q 303 136 303 231 q 303 64 303 99 q 303 0 303 29 z "},"Ȓ":{"ha":833,"x_min":42,"x_max":778,"o":"m 551 444 q 618 326 588 381 q 683 206 649 271 q 706 177 696 185 q 732 169 717 169 q 742 169 739 169 q 751 169 746 169 l 778 169 q 778 92 778 128 q 778 15 778 57 q 774 4 778 8 q 763 0 769 0 q 737 0 753 0 q 707 0 721 0 q 628 8 660 0 q 573 35 596 15 q 531 92 550 56 q 459 233 494 163 q 388 372 424 303 l 551 444 m 42 972 q 233 972 138 972 q 425 972 329 972 q 569 953 510 972 q 667 895 629 933 q 722 804 704 857 q 739 686 739 751 l 739 608 q 719 494 739 544 q 663 408 700 443 q 574 354 626 372 q 454 336 521 336 q 370 336 413 336 q 285 336 328 336 l 269 328 l 269 500 q 351 500 310 500 q 432 500 392 500 q 496 511 471 500 q 533 547 521 522 q 544 606 544 571 l 544 696 q 538 742 544 722 q 518 775 532 761 q 484 795 506 788 q 432 803 463 803 q 306 803 369 803 q 181 803 243 803 q 57 803 119 803 q 46 807 50 803 q 42 818 42 811 q 42 895 42 858 q 42 972 42 932 m 303 0 q 215 0 257 0 q 125 0 172 0 q 114 4 118 0 q 110 15 110 8 q 110 233 110 128 q 110 442 110 338 q 110 652 110 546 q 110 868 110 758 l 319 868 l 303 831 q 303 740 303 785 q 303 653 303 694 q 303 484 303 567 q 303 316 303 401 q 303 136 303 231 q 303 64 303 99 q 303 0 303 29 m 286 1083 q 228 1083 257 1083 q 169 1083 199 1083 q 152 1088 156 1083 q 150 1110 149 1093 q 190 1208 158 1163 q 272 1283 222 1254 q 382 1313 321 1313 l 449 1313 q 559 1283 510 1313 q 640 1208 608 1254 q 681 1110 672 1163 q 679 1088 683 1093 q 661 1083 675 1083 q 603 1083 632 1083 q 544 1083 574 1083 q 496 1146 526 1128 q 415 1164 465 1164 q 335 1146 365 1164 q 286 1083 304 1128 z "}}}
